<svg xmlns="http://www.w3.org/2000/svg" id="HANDSKETCHED_LAURELS" data-name="HANDSKETCHED LAURELS" viewBox="0 0 226.89 129.84"><defs><style>.cls-1,.cls-2{fill:#AFAFAF;}.cls-2{fill-rule:#AFAFAF;}</style></defs><path class="cls-1" d="M75.8,9.19a1.13,1.13,0,0,0-.42-.94,5.43,5.43,0,0,0-1.5-.7,13.59,13.59,0,0,1-1.75-.69,3.33,3.33,0,0,1-2.21-3,2.68,2.68,0,0,1,.55-1.67A3.61,3.61,0,0,1,72,1.08,6,6,0,0,1,74.3.68a5.37,5.37,0,0,1,2.2.43A3.53,3.53,0,0,1,78,2.36a3.27,3.27,0,0,1,.54,1.85H75.81a1.4,1.4,0,0,0-.42-1.08,1.71,1.71,0,0,0-1.16-.38,1.92,1.92,0,0,0-1.16.32,1,1,0,0,0-.42.83,1,1,0,0,0,.47.79,5.94,5.94,0,0,0,1.65.74,10,10,0,0,1,1.93.81,3.27,3.27,0,0,1,1.85,2.93,2.79,2.79,0,0,1-1.13,2.35,5,5,0,0,1-3.09.85,6.13,6.13,0,0,1-2.5-.5,3.75,3.75,0,0,1-1.69-1.36,3.51,3.51,0,0,1-.56-2h2.75a1.73,1.73,0,0,0,.47,1.35,2.22,2.22,0,0,0,1.53.44,1.73,1.73,0,0,0,1.08-.3A1,1,0,0,0,75.8,9.19Z"/><path class="cls-1" d="M82.32,3.76l.09,1A2.89,2.89,0,0,1,84.82,3.6,2.15,2.15,0,0,1,87,4.87,2.81,2.81,0,0,1,89.48,3.6c1.71,0,2.59,1,2.64,3.11v5.5H89.48V6.87a1.65,1.65,0,0,0-.22-.94.93.93,0,0,0-.8-.3,1.25,1.25,0,0,0-1.17.7v5.88H84.66V6.89a1.71,1.71,0,0,0-.21-1,.93.93,0,0,0-.81-.3,1.25,1.25,0,0,0-1.15.7v5.88H79.85V3.76Z"/><path class="cls-1" d="M93.6,1.58A1.19,1.19,0,0,1,94,.65a1.73,1.73,0,0,1,2.11,0,1.19,1.19,0,0,1,.41.93,1.19,1.19,0,0,1-.41.92A1.73,1.73,0,0,1,94,2.5,1.19,1.19,0,0,1,93.6,1.58Zm2.8,10.63H93.76V3.76H96.4Z"/><path class="cls-1" d="M101.09,1.65V3.76h1.39V5.59h-1.39V9.45a1,1,0,0,0,.17.67,1,1,0,0,0,.68.19,4,4,0,0,0,.66-.05v1.88a4.89,4.89,0,0,1-1.49.23,2.73,2.73,0,0,1-2-.64,2.61,2.61,0,0,1-.65-2V5.59H97.38V3.76h1.08V1.65Z"/><path class="cls-1" d="M106.09,4.66a2.89,2.89,0,0,1,4.27-.23,3.74,3.74,0,0,1,.73,2.44v5.34h-2.64V6.94a1.45,1.45,0,0,0-.28-1,1.17,1.17,0,0,0-.93-.32,1.27,1.27,0,0,0-1.15.52v6.06h-2.63V.21h2.63Z"/><path class="cls-1" d="M117,9.84a.6.6,0,0,0-.35-.54,4.89,4.89,0,0,0-1.34-.42,6.07,6.07,0,0,1-1.62-.58,2.68,2.68,0,0,1-1-.86,2.11,2.11,0,0,1-.34-1.17,2.34,2.34,0,0,1,1-1.92,4,4,0,0,1,2.51-.75,4.36,4.36,0,0,1,2.69.76,2.36,2.36,0,0,1,1,2H116.9c0-.68-.36-1-1.08-1a1,1,0,0,0-.69.23.69.69,0,0,0-.28.57.65.65,0,0,0,.34.57,3.12,3.12,0,0,0,1.1.36,9,9,0,0,1,1.32.34,2.39,2.39,0,0,1,1.91,2.35,2.2,2.2,0,0,1-1,1.88,4.45,4.45,0,0,1-2.66.73,4.64,4.64,0,0,1-1.94-.39,3.27,3.27,0,0,1-1.32-1.06,2.4,2.4,0,0,1-.48-1.42h2.46a1,1,0,0,0,.39.86,1.6,1.6,0,0,0,1,.27,1.3,1.3,0,0,0,.81-.22A.71.71,0,0,0,117,9.84Z"/><path class="cls-1" d="M120.42,7.91a5,5,0,0,1,.49-2.26,3.54,3.54,0,0,1,1.42-1.52,4.29,4.29,0,0,1,2.16-.53,3.88,3.88,0,0,1,3,1.18A4.5,4.5,0,0,1,128.58,8v.09a4.34,4.34,0,0,1-1.1,3.14,4.41,4.41,0,0,1-5.87.08,4.24,4.24,0,0,1-1.18-2.94Zm2.63.16a3.18,3.18,0,0,0,.37,1.72,1.25,1.25,0,0,0,1.09.55c.94,0,1.42-.72,1.44-2.17V7.91c0-1.52-.49-2.28-1.46-2.28s-1.35.66-1.43,2Z"/><path class="cls-1" d="M132.16,3.76l.09,1a2.84,2.84,0,0,1,2.41-1.15,2.39,2.39,0,0,1,2,.79,3.77,3.77,0,0,1,.68,2.38v5.44h-2.64V6.87a1.44,1.44,0,0,0-.26-.94,1.19,1.19,0,0,0-.94-.3,1.28,1.28,0,0,0-1.15.61v6h-2.63V3.76Z"/><path class="cls-1" d="M138.75,1.58a1.19,1.19,0,0,1,.41-.93,1.52,1.52,0,0,1,1.05-.36,1.55,1.55,0,0,1,1.06.36,1.18,1.18,0,0,1,.4.93,1.18,1.18,0,0,1-.4.92,1.55,1.55,0,0,1-1.06.36,1.52,1.52,0,0,1-1.05-.36A1.19,1.19,0,0,1,138.75,1.58Zm2.8,10.63h-2.64V3.76h2.64Z"/><path class="cls-1" d="M147.93,12.21a3.41,3.41,0,0,1-.25-.75,2.46,2.46,0,0,1-2,.91,3,3,0,0,1-2-.72,2.31,2.31,0,0,1-.84-1.82,2.36,2.36,0,0,1,1-2.08,5.16,5.16,0,0,1,2.95-.7h.82V6.6c0-.78-.34-1.17-1-1.17a.83.83,0,0,0-.94.93H143a2.36,2.36,0,0,1,1-2,4.39,4.39,0,0,1,2.66-.76,3.84,3.84,0,0,1,2.56.79,2.78,2.78,0,0,1,1,2.16V10.3a3.82,3.82,0,0,0,.36,1.78v.13Zm-1.65-1.72a1.47,1.47,0,0,0,.82-.21,1.4,1.4,0,0,0,.47-.47V8.45h-.77c-.92,0-1.37.42-1.37,1.24a.75.75,0,0,0,.24.58A.85.85,0,0,0,146.28,10.49Z"/><path class="cls-1" d="M154.09,3.76l.08,1a2.87,2.87,0,0,1,2.42-1.15,2.4,2.4,0,0,1,2,.79,3.77,3.77,0,0,1,.68,2.38v5.44h-2.65V6.87a1.45,1.45,0,0,0-.25-.94,1.22,1.22,0,0,0-.94-.3,1.27,1.27,0,0,0-1.15.61v6h-2.63V3.76Z"/><path class="cls-1" d="M79.84,28H73.28v6.73H69.21V17.84H80.5V21H73.28v3.88h6.56Z"/><path class="cls-1" d="M81.28,28.33A7.4,7.4,0,0,1,82,25a5.31,5.31,0,0,1,2.1-2.25,6.26,6.26,0,0,1,3.21-.79,5.74,5.74,0,0,1,4.44,1.75,6.68,6.68,0,0,1,1.62,4.74v.14a6.49,6.49,0,0,1-1.63,4.66A5.79,5.79,0,0,1,87.34,35,5.86,5.86,0,0,1,83,33.34,6.31,6.31,0,0,1,81.29,29Zm3.91.24a4.7,4.7,0,0,0,.54,2.55,1.82,1.82,0,0,0,1.61.82c1.39,0,2.1-1.07,2.14-3.22v-.39c0-2.25-.72-3.37-2.16-3.37s-2,1-2.12,2.91Z"/><path class="cls-1" d="M99.23,34.72H95.31V16.91h3.92Z"/><path class="cls-1" d="M106.67,30l-1.1,1.11v3.57h-3.91V16.9h3.91v9.46l.39-.52,3-3.67h4.68l-4.39,5.16,4.68,7.39H109.4Z"/><path class="cls-1" d="M124.77,31.59h7.09v3.13H120.71V17.84h4.06Z"/><path class="cls-1" d="M133.37,18.94a1.75,1.75,0,0,1,.6-1.37,2.58,2.58,0,0,1,3.13,0,1.86,1.86,0,0,1,0,2.74,2.58,2.58,0,0,1-3.13,0A1.75,1.75,0,0,1,133.37,18.94Zm4.15,15.78H133.6V22.17h3.92Z"/><path class="cls-1" d="M140.78,34.72V24.89H139V22.17h1.82v-1a4.35,4.35,0,0,1,1.27-3.33,5,5,0,0,1,3.55-1.18,7.94,7.94,0,0,1,1.83.24v2.88a3.51,3.51,0,0,0-1-.11c-1.19,0-1.78.51-1.78,1.53v1h2.45v2.72H144.7v9.83Z"/><path class="cls-1" d="M154.31,35a6.48,6.48,0,0,1-4.67-1.72,5.94,5.94,0,0,1-1.78-4.48v-.33a7.61,7.61,0,0,1,.71-3.39,5.28,5.28,0,0,1,2.08-2.28,6.25,6.25,0,0,1,3.25-.81,5.44,5.44,0,0,1,4.17,1.64,6.47,6.47,0,0,1,1.53,4.58v1.51h-7.77a2.81,2.81,0,0,0,.92,1.66,2.73,2.73,0,0,0,1.83.61,3.53,3.53,0,0,0,2.9-1.3l1.78,2.11a4.93,4.93,0,0,1-2.07,1.6A6.94,6.94,0,0,1,154.31,35Zm-.44-10c-1.14,0-1.82.75-2,2.27h3.94v-.3a1.94,1.94,0,0,0-.47-1.46A1.91,1.91,0,0,0,153.87,25Z"/><path class="cls-1" d="M81.18,51.54H73.9V59H69.38V40.27H81.91v3.49h-8v4.31h7.28Z"/><path class="cls-1" d="M90.06,59.26a7.18,7.18,0,0,1-5.19-1.91,6.59,6.59,0,0,1-2-5V52a8.5,8.5,0,0,1,.79-3.77A5.79,5.79,0,0,1,86,45.72a6.92,6.92,0,0,1,3.6-.9,6.06,6.06,0,0,1,4.64,1.82,7.18,7.18,0,0,1,1.69,5.08v1.69H87.3a3.19,3.19,0,0,0,1,1.84,3,3,0,0,0,2,.66,3.89,3.89,0,0,0,3.22-1.44l2,2.35a5.59,5.59,0,0,1-2.3,1.78A7.75,7.75,0,0,1,90.06,59.26Zm-.49-11.09c-1.27,0-2,.84-2.27,2.52h4.38v-.33a2.14,2.14,0,0,0-.53-1.62A2.11,2.11,0,0,0,89.57,48.17Z"/><path class="cls-1" d="M105,55.09a1,1,0,0,0-.58-.89,9.05,9.05,0,0,0-2.2-.69,10,10,0,0,1-2.68-.95,4.5,4.5,0,0,1-1.61-1.42,3.4,3.4,0,0,1-.55-1.92,3.84,3.84,0,0,1,1.58-3.15,6.52,6.52,0,0,1,4.14-1.25,7.23,7.23,0,0,1,4.43,1.25,3.89,3.89,0,0,1,1.67,3.28h-4.35c0-1.11-.58-1.67-1.76-1.67a1.76,1.76,0,0,0-1.14.38,1.18,1.18,0,0,0-.47.95,1.07,1.07,0,0,0,.57.93,5.48,5.48,0,0,0,1.81.6,15.7,15.7,0,0,1,2.18.55q3.14,1.08,3.14,3.87a3.65,3.65,0,0,1-1.69,3.1,7.42,7.42,0,0,1-4.39,1.2,7.57,7.57,0,0,1-3.19-.64,5.4,5.4,0,0,1-2.18-1.75,3.94,3.94,0,0,1-.79-2.33h4A1.7,1.7,0,0,0,101.6,56a2.68,2.68,0,0,0,1.58.44,2.07,2.07,0,0,0,1.33-.36A1.14,1.14,0,0,0,105,55.09Z"/><path class="cls-1" d="M116.21,41.62v3.46h2.29v3h-2.29v6.37a1.6,1.6,0,0,0,.29,1.09,1.5,1.5,0,0,0,1.12.31,6.58,6.58,0,0,0,1.08-.07v3.1a8,8,0,0,1-2.45.37A4.5,4.5,0,0,1,113,58.2a4.28,4.28,0,0,1-1.07-3.2V48.09H110.1v-3h1.78V41.62Z"/><path class="cls-1" d="M120.18,41.49a1.93,1.93,0,0,1,.67-1.52,2.52,2.52,0,0,1,1.73-.59,2.56,2.56,0,0,1,1.74.59,2.06,2.06,0,0,1,0,3,2.56,2.56,0,0,1-1.74.59,2.52,2.52,0,0,1-1.73-.59A1.92,1.92,0,0,1,120.18,41.49ZM124.78,59h-4.35V45.08h4.35Z"/><path class="cls-1" d="M133,53.84l2.2-8.76h4.57L135.23,59H130.8l-4.54-13.92h4.58Z"/><path class="cls-1" d="M148.71,59a5,5,0,0,1-.41-1.25A4,4,0,0,1,145,59.26a5,5,0,0,1-3.35-1.19,3.78,3.78,0,0,1-1.38-3,3.88,3.88,0,0,1,1.68-3.42,8.43,8.43,0,0,1,4.86-1.16h1.34v-.74c0-1.28-.55-1.93-1.66-1.93a1.36,1.36,0,0,0-1.54,1.53h-4.34a3.89,3.89,0,0,1,1.72-3.28,7.19,7.19,0,0,1,4.38-1.26,6.38,6.38,0,0,1,4.21,1.3,4.58,4.58,0,0,1,1.58,3.57v6.16a6.15,6.15,0,0,0,.59,2.93V59ZM146,56.17a2.32,2.32,0,0,0,1.34-.35,2.2,2.2,0,0,0,.77-.78V52.81h-1.26c-1.51,0-2.27.68-2.27,2a1.28,1.28,0,0,0,.4,1A1.48,1.48,0,0,0,146,56.17Z"/><path class="cls-1" d="M159.43,59h-4.35V39.24h4.35Z"/><path class="cls-1" d="M87.64,88.14H70.35V84.39l8-8.37c2-2.23,2.94-4,2.94-5.32a3.7,3.7,0,0,0-.7-2.44,2.5,2.5,0,0,0-2-.83,2.53,2.53,0,0,0-2.13,1.11,4.63,4.63,0,0,0-.82,2.79H69.84A8.17,8.17,0,0,1,71,67.11a8.09,8.09,0,0,1,3.17-3A9.47,9.47,0,0,1,78.67,63a9.25,9.25,0,0,1,6.19,1.86A6.62,6.62,0,0,1,87,70.19,7.83,7.83,0,0,1,86.49,73,12.84,12.84,0,0,1,84.79,76,42.57,42.57,0,0,1,81.09,80l-3.2,3.69h9.75Z"/><path class="cls-1" d="M112.22,78q0,5-2.25,7.75a8.82,8.82,0,0,1-12.76,0C95.7,83.91,95,81.34,95,78V73.49q0-5,2.25-7.75a8.82,8.82,0,0,1,12.76,0q2.27,2.74,2.26,7.74Zm-5.73-5.25a8.93,8.93,0,0,0-.7-4,2.34,2.34,0,0,0-2.21-1.31,2.28,2.28,0,0,0-2.16,1.22,8.39,8.39,0,0,0-.72,3.71v6.33a8.85,8.85,0,0,0,.7,4.06,2.32,2.32,0,0,0,2.21,1.28,2.29,2.29,0,0,0,2.16-1.25,8.39,8.39,0,0,0,.72-3.92Z"/><path class="cls-1" d="M137.33,88.14H120V84.39L128,76c2-2.23,2.95-4,2.95-5.32a3.75,3.75,0,0,0-.7-2.44,2.73,2.73,0,0,0-4.16.28,4.63,4.63,0,0,0-.81,2.79h-5.75a8.17,8.17,0,0,1,1.14-4.22,8.06,8.06,0,0,1,3.16-3A9.48,9.48,0,0,1,128.36,63a9.2,9.2,0,0,1,6.18,1.86,6.62,6.62,0,0,1,2.17,5.33,7.83,7.83,0,0,1-.54,2.85A12.77,12.77,0,0,1,134.48,76,43,43,0,0,1,130.77,80l-3.19,3.69h9.75Z"/><path class="cls-1" d="M159,88.14h-5.75V69.83l-5.65,1.65V67.12l10.87-3.76H159Z"/><path class="cls-1" d="M35.81,88.48h28V76.9a38.83,38.83,0,0,0-3.89.2V72.94h3.89L58.34,51.19,52.9,72.94h3.89v4.59a39.37,39.37,0,0,0-9.33,2.89V76.05h3.89L45.91,57.4,40.47,76.05h3.89v6A39.36,39.36,0,0,0,35.81,88.48Z"/><path class="cls-1" d="M184.73,82v-6h3.88L183.17,57.4l-5.44,18.65h3.89v4.37a39.29,39.29,0,0,0-9.32-2.89V72.94h3.88l-5.44-21.75L165.3,72.94h3.89V77.1a38.83,38.83,0,0,0-3.89-.2V88.48h28A39.55,39.55,0,0,0,184.73,82Z"/><path class="cls-1" d="M148.58,116.91c-11.24-7-26.48-4.26-34,6.21-.39.54-.75,1.11-1.1,1.7a17.64,17.64,0,0,0-1.1-1.7c-7.55-10.47-22.79-13.25-34-6.21,7,9.66,20.49,12.76,31.37,7.64l.12.16a22.08,22.08,0,0,1,2.08,3.55,1.87,1.87,0,0,0,3.13,0,21.36,21.36,0,0,1,2.08-3.55l.12-.16C128.09,129.67,141.6,126.57,148.58,116.91Z"/><path class="cls-1" d="M130.38,110.55a19.06,19.06,0,0,0,1.27-11.13h0c-10,2-17.07,10.25-17.42,19.45A28,28,0,0,1,130.38,110.55Z"/><path class="cls-1" d="M112.66,118.87c-.35-9.2-7.43-17.46-17.42-19.45h0a19,19,0,0,0,1.27,11.13A28.06,28.06,0,0,1,112.66,118.87Z"/><path class="cls-2" d="M17.42,33.31c5.75-5.49,7-18.53,1.44-28C11.9,10.38,12.11,23.4,17.42,33.31Z"/><path class="cls-2" d="M26,21.48c5.59-1.2,18.8-11.89,15.76-19.82A2.3,2.3,0,0,0,39.47,0C31.3.18,25.15,14.41,26,21.48Z"/><path class="cls-2" d="M22,28.93c2.67,2.7,8.6,1.24,12.71-2.14C34.29,25,33.17,25,32.6,23.59,28.88,23.52,24.48,26.08,22,28.93Z"/><path class="cls-2" d="M16.38,47.26c4.74-.37,10.31-3.5,10.28-8.86C22.31,34.72,16.49,41.92,16.38,47.26Z"/><path class="cls-2" d="M15.24,66.37C19.65,63.28,23.65,60,21.9,53.1,16.47,53.49,13.82,61,15.24,66.37Z"/><path class="cls-2" d="M1.6,74C4.37,84.72,12,89.37,18.72,86.93,17.72,75.93,8.71,72.14,1.6,74Z"/><path class="cls-2" d="M19.1,81.66C21.72,79.73,24.29,74,22,69.15,17.76,70.06,18.53,77.78,19.1,81.66Z"/><path class="cls-2" d="M10,92.61c1.26,11,11,9.27,17.31,8.09C25.07,91.64,17.51,90.8,10,92.61Z"/><path class="cls-2" d="M35.55,105.46c4.31-1.82.75-10.52-1.78-12.1C29.62,95.29,32.87,103.77,35.55,105.46Z"/><path class="cls-2" d="M44.31,103c-1.3,4.47.56,10.3,4,11,0-.65,1-.35,1.08-.86C48.49,108.52,48.08,103.18,44.31,103Z"/><path class="cls-2" d="M55.75,110.46c-3.38,3.42,1.68,7.3,3.49,8.93C62.24,116.73,58.82,110,55.75,110.46Z"/><path class="cls-2" d="M34.78,120.53c3.85,6.9,13.14,2.28,16.85-2.12C47.52,112,38.52,115.06,34.78,120.53Z"/><path class="cls-2" d="M12.46,51.75c4.88-5.7.74-21.49-5.55-25.95C1.14,32.27,6.15,47.71,12.46,51.75Z"/><path class="cls-2" d="M.85,49.06C-3,60,7.26,67.81,12.86,71,15,61.64,7.23,49.91.85,49.06Z"/><path class="cls-2" d="M26.23,95.64c3.22-2.34,3.09-8.2.67-13.07C23.2,83.47,23.12,92.29,26.23,95.64Z"/><path class="cls-2" d="M21.11,109c2.27,8.85,11.69,5.7,17.51,1.06C34.73,103.6,27.37,104.21,21.11,109Z"/><path class="cls-2" d="M47.39,128.13c5.18,4.44,13.74-.55,16.19-5.87C58.57,118.42,49.68,122.46,47.39,128.13Z"/><path class="cls-2" d="M209.47,33.31c-5.75-5.49-7-18.53-1.44-28C215,10.38,214.78,23.4,209.47,33.31Z"/><path class="cls-2" d="M200.91,21.48c-5.59-1.2-18.8-11.89-15.76-19.82A2.29,2.29,0,0,1,187.41,0C195.59.18,201.74,14.41,200.91,21.48Z"/><path class="cls-2" d="M204.92,28.93c-2.67,2.7-8.6,1.24-12.71-2.14.39-1.79,1.51-1.83,2.08-3.2C198,23.52,202.41,26.08,204.92,28.93Z"/><path class="cls-2" d="M210.51,47.26c-4.74-.37-10.31-3.5-10.28-8.86C204.58,34.72,210.4,41.92,210.51,47.26Z"/><path class="cls-2" d="M211.65,66.37C207.24,63.28,203.23,60,205,53.1,210.42,53.49,213.07,61,211.65,66.37Z"/><path class="cls-2" d="M225.29,74c-2.77,10.71-10.38,15.36-17.12,12.92C209.17,75.93,218.18,72.14,225.29,74Z"/><path class="cls-2" d="M207.79,81.66c-2.62-1.93-5.19-7.62-2.94-12.51C209.13,70.06,208.36,77.78,207.79,81.66Z"/><path class="cls-2" d="M216.9,92.61c-1.26,11-11,9.27-17.32,8.09C201.82,91.64,209.38,90.8,216.9,92.61Z"/><path class="cls-2" d="M191.34,105.46c-4.31-1.82-.75-10.52,1.78-12.1C197.26,95.29,194,103.77,191.34,105.46Z"/><path class="cls-2" d="M182.58,103c1.29,4.47-.57,10.3-4,11,0-.65-.94-.35-1.07-.86C178.4,108.52,178.8,103.18,182.58,103Z"/><path class="cls-2" d="M171.14,110.46c3.37,3.42-1.69,7.3-3.5,8.93C164.65,116.73,168.07,110,171.14,110.46Z"/><path class="cls-2" d="M192.11,120.53c-3.85,6.9-13.14,2.28-16.85-2.12C179.37,112,188.37,115.06,192.11,120.53Z"/><path class="cls-2" d="M214.42,51.75c-4.88-5.7-.73-21.49,5.56-25.95C225.75,32.27,220.74,47.71,214.42,51.75Z"/><path class="cls-2" d="M226,49.06C229.91,60,219.63,67.81,214,71,211.91,61.64,219.66,49.91,226,49.06Z"/><path class="cls-2" d="M200.66,95.64c-3.23-2.34-3.09-8.2-.67-13.07C203.69,83.47,203.76,92.29,200.66,95.64Z"/><path class="cls-2" d="M205.78,109c-2.27,8.85-11.69,5.7-17.52,1.06C192.15,103.6,199.52,104.21,205.78,109Z"/><path class="cls-2" d="M179.49,128.13c-5.17,4.44-13.73-.55-16.18-5.87C168.32,118.42,177.21,122.46,179.49,128.13Z"/></svg>