<svg xmlns="http://www.w3.org/2000/svg" data-name="HANDSKETCHED LAURELS" viewBox="0 0 255.25 113.34" fill="#afafaf"><path class="cls-1" d="M25.16 23.05C23.63 11.47 27.58 2.06 35.47 0c5.31 9.63-1.2 21.29-10.31 23.05m33.96-18.8c-1.05 9.21-11.11 14.08-21.23 11.22C40.25 8.32 48.78-.22 59.12 4.25M16.36 36.39c-5.8-5.34-5.43-19.06.61-23.65 8.33 3.53 5.83 20.91-.61 23.65m29.72-14.86c-2.52 4.58-11.42 3.04-14.86.3 2.8-3.92 11.82-4.36 14.86-.3m-11.52 7.89c-2.12 3.65-6.55 6.58-13.04 4.85-.41-5.44 9.09-8.12 13.04-4.85m-8.8 10.91c-1.41 4.66-4.12 9.62-10.61 8.19.09-4.8 5.33-8.59 10.61-8.19m-4.85 13.04c1.49 4.52-1.81 9.24-6.07 10.01-1.46-4.84 2.16-8.64 6.07-10.01m1.22 12.13c1.82 4.29.44 11.28-3.34 11.52-2.83-4.1.18-9.74 3.34-11.52m-3.64 16.99c-7.86-.36-14.44-4.54-16.38-11.83 9.17-.98 13.85 5.15 16.38 11.83m7.58 6.67c-3.54-1.62-3.54-9.23-1.21-11.22 4.25 1.32 3.03 8.15 1.21 11.22m8.79 7.88c-3.07-1.27-5.71-6.31-3.03-9.71 3.65.66 6.23 6.68 3.03 9.71m12.13 5.16c-3.84 1.62-5.87-3.29-6.07-7.28 3.59-.33 5.63 3.45 6.07 7.28m-9.09-.91c-4.79 2.18-14.04 5.24-18.2-.3 4.11-4.95 14.3-4.71 18.2.3m11.22 4.85c-2.2 5.07-10.59 6.35-16.07 3.34 1.06-6.72 11.24-6.74 16.07-3.34m-10.01-.6c1.15 1.15-.13-.13 0 0"/><path class="cls-1" d="M39.11 105.54c-.13-.13 1.15 1.15 0 0m-27.9-53.68C6.45 48.24.54 38.1 5.14 30.93c5.88 3.25 10.32 12.95 6.07 20.93m1.21 16.37C5.58 66.18-2.24 60.57.59 51.85c7.53 1.68 12.17 7.84 11.83 16.38m13.95 26.08c-7.34 1.42-15.87-.78-17.29-6.67 7.21-4.15 15.21.98 17.29 6.67m201.89-71.54c-7.27-2.65-12.12-13.03-9.1-22.74 8.37 1.91 11.72 12.77 9.1 22.74m-11.83-6.98c-5.94.86-22.11-3.64-21.23-11.22.11-.98.67-1.77 1.82-2.12 8.25-2.56 18.31 7.21 19.41 13.34m6.06 4.85c-1.94 3.12-8.29 3.87-13.34 2.43-.09-1.61 1.02-2.01 1.21-3.34 3.71-1.3 8.83-.62 12.13.91m10.62 13.35c-4.85 1.26-11.3.51-12.74-3.94 3.36-4.49 11.17-.44 12.74 3.94m6.37 15.46c-5.27-1.1-10.2-2.54-10.31-8.79 5.55-1.47 10.25 3.83 10.31 8.79m15.76 1.82c.15 9.8-6.22 16.17-13.65 16.38-2-9.45 6-15.57 13.65-16.38M239.78 63.4c-3.16-.73-7.29-4.6-6.37-9.4 4.55-.66 5.88 5.99 6.37 9.4m12.13 6.07c1.74 9.53-8.49 11.32-15.16 12.43-.23-8.25 7.13-11.45 15.16-12.43m-22.14 19.1c-4.82-.08-3.63-8.47-1.52-10.61 4.68.23 3.75 8.33 1.52 10.61m-6.97-1.82c1.83 3.71.49 9-3.03 10.01-.05-.56-1.03-.19-1.21-.61.43-4.12.3-8.8 4.25-9.4Zm-11.22 7.89c3.9 2.54-1 6.55-2.73 8.19-3.42-1.93-.54-8.17 2.73-8.19m23.04 6.06c-3.31 6.47-13.54 3.65-17.89.3 3.64-6.11 13.4-4.56 17.89-.3m3.64-64.29c-6.45-3.11-6.61-17.57-1.52-23.35 7.56 3.46 6.75 17.91 1.52 23.35m10.92-6.06c6.88 7.79-1.3 17.66-6.07 22.14-4.67-7.04-.1-19.33 6.07-22.14m-12.74 47c-3.87-.88-5.34-5.78-4.25-10.61 3.97-.47 6.45 6.81 4.25 10.61m8.8 9.4c.14 8.08-10.17 8.59-17.28 6.67 2.13-6.66 9.69-8.59 17.28-6.67m-23.05 22.14c-4.96 4.5-14.46 1.27-17.59-3.03 4.85-3.96 14.6-1.59 17.59 3.03"/><path class="cls-2" d="M61.94 37.52V15.75h7.82c2.8 0 4.93.51 6.39 1.54q2.19 1.545 2.19 4.47c0 1.13-.26 2.09-.78 2.89s-1.28 1.39-2.29 1.76c1.14.3 2.01.86 2.62 1.67.61.82.91 1.81.91 2.99 0 2.13-.68 3.74-2.03 4.81s-3.35 1.62-6 1.64h-8.84Zm5.24-12.7h2.74c1.15-.01 1.96-.22 2.45-.63s.73-1.01.73-1.81c0-.92-.26-1.58-.79-1.99s-1.38-.61-2.56-.61h-2.57zm0 3.44v5.22h3.44c.95 0 1.67-.22 2.18-.65s.76-1.04.76-1.83c0-1.81-.9-2.73-2.71-2.74h-3.68Zm14.24-11.09c0-.72.26-1.31.78-1.76.52-.46 1.19-.69 2.02-.69s1.5.23 2.02.69.78 1.05.78 1.76-.26 1.31-.78 1.76c-.52.46-1.19.69-2.02.69s-1.5-.23-2.02-.69-.78-1.05-.78-1.76m5.35 20.35h-5.05V21.34h5.05zm18.12-7.96c0 2.65-.55 4.69-1.64 6.12-1.1 1.43-2.64 2.14-4.64 2.14-1.64 0-2.97-.65-3.98-1.96l-.21 1.66H89.9V14.55h5.04v8.09c.94-1.07 2.15-1.6 3.63-1.6 2.01 0 3.57.72 4.67 2.17 1.1 1.44 1.64 3.48 1.64 6.1v.25Zm-5.05-.32c0-1.55-.21-2.66-.62-3.32s-1.05-.99-1.91-.99c-1.14 0-1.92.43-2.36 1.3v6.42c.43.86 1.23 1.28 2.39 1.28s1.94-.58 2.26-1.73c.16-.57.24-1.55.24-2.96m12.59 8.28h-5.05V14.55h5.05zm3.06-20.35c0-.72.26-1.31.78-1.76.52-.46 1.19-.69 2.02-.69s1.5.23 2.02.69.78 1.05.78 1.76-.26 1.31-.78 1.76c-.52.46-1.19.69-2.02.69s-1.5-.23-2.02-.69-.78-1.05-.78-1.76m5.36 20.35h-5.05V21.34h5.05zm2.46-8.24c0-1.61.31-3.05.94-4.31s1.53-2.23 2.71-2.91q1.77-1.02 4.14-1.02 3.63 0 5.73 2.25c1.4 1.5 2.09 3.54 2.09 6.12v.18q0 3.78-2.1 6c-1.4 1.48-3.3 2.22-5.69 2.22s-4.15-.69-5.55-2.07-2.15-3.25-2.26-5.61v-.85Zm5.04.31c0 1.5.23 2.59.7 3.29s1.16 1.05 2.08 1.05c1.79 0 2.71-1.38 2.75-4.14v-.51c0-2.9-.93-4.35-2.78-4.35-1.68 0-2.6 1.25-2.74 3.75v.91Zm18.66-12.27v4.02h2.66v3.5h-2.66v7.4c0 .61.11 1.03.33 1.27s.65.36 1.3.36q.75 0 1.26-.09v3.6c-.91.29-1.85.43-2.84.43-1.73 0-3.02-.41-3.84-1.23-.83-.82-1.24-2.06-1.24-3.72v-8.03h-2.06v-3.5h2.06v-4.02h5.04Zm12.47 20.5q-3.72 0-6.03-2.22c-1.54-1.48-2.3-3.41-2.3-5.78v-.42c0-1.65.31-3.11.92-4.38s1.51-2.25 2.68-2.94c1.18-.69 2.57-1.04 4.19-1.04 2.27 0 4.07.71 5.38 2.12 1.32 1.41 1.97 3.38 1.97 5.9v1.96h-10.02c.18.91.57 1.62 1.18 2.14s1.4.78 2.36.78c1.59 0 2.84-.56 3.74-1.67l2.3 2.72q-.945 1.305-2.67 2.07c-1.15.51-2.39.77-3.72.77Zm-.56-12.89c-1.48 0-2.35.98-2.63 2.93h5.08v-.39c.02-.81-.18-1.43-.61-1.88-.43-.44-1.04-.67-1.84-.67Zm16.25 9c.71 0 1.26-.19 1.64-.58.39-.38.58-.92.57-1.61h4.72c0 1.77-.64 3.23-1.91 4.37s-2.91 1.7-4.91 1.7c-2.35 0-4.21-.74-5.56-2.21-1.36-1.47-2.03-3.52-2.03-6.13v-.21c0-1.63.3-3.08.9-4.33s1.47-2.21 2.61-2.89c1.14-.67 2.48-1.01 4.04-1.01 2.1 0 3.77.58 5.01 1.75s1.85 2.75 1.85 4.74h-4.72c0-.84-.2-1.48-.61-1.93s-.96-.67-1.64-.67c-1.31 0-2.07.83-2.29 2.5-.07.53-.1 1.26-.1 2.18 0 1.62.19 2.75.58 3.38s1.01.94 1.85.94Zm18.18 3.59c-.18-.33-.34-.81-.48-1.45-.93 1.17-2.22 1.75-3.89 1.75-1.53 0-2.82-.46-3.89-1.38s-1.6-2.08-1.6-3.48c0-1.75.65-3.08 1.94-3.98 1.3-.9 3.18-1.35 5.65-1.35h1.56v-.86c0-1.49-.64-2.24-1.93-2.24-1.2 0-1.79.59-1.79 1.77h-5.04c0-1.56.67-2.83 2-3.81s3.03-1.46 5.09-1.46 3.69.5 4.89 1.51 1.81 2.39 1.84 4.14v7.16c.02 1.49.25 2.62.69 3.41v.25h-5.04Zm-3.15-3.29c.63 0 1.15-.13 1.56-.4s.71-.57.89-.91v-2.59h-1.47c-1.75 0-2.63.79-2.63 2.36 0 .46.15.83.46 1.11s.7.43 1.18.43Zm-51.32 18.24v-.18c0-.71.08-1.36.23-1.95.16-.59.39-1.09.69-1.52s.69-.75 1.15-.98.98-.35 1.58-.35c.53 0 1 .12 1.4.37s.74.59 1.02 1.03.51.95.69 1.54.32 1.22.41 1.9v.22c-.09.64-.23 1.24-.41 1.8q-.27.84-.69 1.5c-.28.43-.63.77-1.03 1.02s-.87.37-1.41.37c-.6 0-1.12-.12-1.57-.36s-.83-.57-1.14-1c-.3-.43-.53-.93-.69-1.51s-.23-1.21-.23-1.89Zm2.92-.19v.18c0 .35.02.68.07.98s.13.57.24.79.26.41.45.53.42.19.7.19q.57 0 .93-.27c.36-.27.43-.43.55-.76s.17-.72.15-1.16v-.69c.01-.38-.01-.72-.08-1.01-.06-.29-.16-.54-.3-.73s-.31-.35-.51-.45q-.315-.15-.72-.15c-.405 0-.5.06-.69.19s-.34.31-.46.53c-.12.23-.2.5-.25.81s-.08.65-.08 1.01Zm2.84 2.62V43.73h2.94v13.33h-2.64l-.3-2.15Zm9.15 2.32c-.76 0-1.45-.12-2.05-.36s-1.11-.57-1.52-.99-.73-.91-.95-1.46q-.33-.825-.33-1.74v-.33c0-.69.1-1.33.29-1.91.19-.59.47-1.1.85-1.54s.85-.78 1.41-1.03c.57-.25 1.23-.37 1.98-.37.67 0 1.26.11 1.79.32s.97.52 1.34.92.65.88.84 1.45.29 1.2.29 1.91v1.19h-7.67v-1.83h4.81v-.23c0-.31-.05-.58-.16-.8s-.28-.39-.49-.5c-.21-.12-.47-.17-.78-.17s-.58.07-.79.21-.36.33-.48.57-.19.52-.24.83-.07.64-.07.99v.33c0 .35.05.66.14.95.1.28.23.53.42.72.18.2.4.35.66.46s.55.16.88.16c.4 0 .79-.07 1.18-.23.39-.15.72-.4 1-.75l1.33 1.58c-.19.27-.46.54-.81.79s-.77.46-1.25.62c-.49.16-1.03.24-1.63.24Zm-11.36 8.52v12.63h-3.05V65.74zm5.4 0v2.35h-6.27v-2.35zm-.49 5.26v2.34h-5.78V71zm1.08 2.77v-.18c0-.69.1-1.32.3-1.9s.49-1.09.87-1.51c.38-.43.85-.76 1.41-1s1.21-.36 1.94-.36 1.39.12 1.96.36 1.04.57 1.42 1 .67.93.87 1.51.29 1.22.29 1.9v.18c0 .68-.1 1.31-.29 1.9-.2.58-.49 1.09-.87 1.52s-.85.76-1.41 1-1.21.36-1.94.36-1.39-.12-1.95-.36c-.57-.24-1.04-.57-1.42-1s-.67-.94-.87-1.52-.3-1.21-.3-1.9Zm2.92-.18v.18c0 .35.03.68.08.99s.14.57.26.8.29.41.49.53c.21.13.47.19.78.19s.56-.06.77-.19.37-.31.49-.53.21-.5.26-.8c.05-.31.08-.64.08-.99v-.18c0-.34-.03-.66-.08-.97-.05-.3-.14-.57-.26-.81-.12-.23-.29-.42-.49-.55-.21-.13-.47-.2-.78-.2s-.56.07-.77.2-.37.32-.49.55-.21.5-.26.81c-.05.3-.08.63-.08.97m.28-5.82 1.72-2.72h3.09l-2.42 2.72zm12.06 7.96c0-.16-.05-.3-.16-.42s-.29-.23-.56-.33-.64-.2-1.12-.31q-.69-.15-1.29-.39c-.6-.24-.75-.36-1.05-.59s-.54-.51-.71-.82c-.17-.32-.26-.68-.26-1.09s.09-.78.26-1.13.42-.67.75-.95.74-.49 1.22-.65 1.03-.24 1.64-.24q1.26 0 2.19.39c.93.39 1.09.62 1.42 1.08s.5.99.5 1.59h-2.92c0-.24-.04-.44-.12-.61s-.2-.3-.38-.39c-.17-.09-.41-.13-.69-.13-.2 0-.39.04-.55.11-.16.08-.3.18-.39.31-.1.13-.15.29-.15.47 0 .13.03.24.09.34s.15.19.28.28.29.16.49.23.43.13.71.18c.63.12 1.22.28 1.77.49s1 .52 1.34.91.52.92.52 1.59c0 .42-.1.8-.29 1.15s-.47.66-.82.92c-.36.26-.79.47-1.29.61s-1.07.22-1.7.22c-.9 0-1.65-.16-2.27-.48s-1.09-.73-1.4-1.21c-.32-.49-.47-.98-.47-1.49h2.72c.01.29.08.53.21.71.13.19.3.32.52.41s.47.13.76.13c.27 0 .49-.04.66-.11s.31-.18.4-.31.14-.28.14-.46Zm4.18-9.17q0-.63.45-1.02c.3-.27.69-.4 1.17-.4s.87.13 1.17.4q.45.405.45 1.02c0 .615-.15.76-.45 1.02s-.69.4-1.17.4-.87-.13-1.17-.4q-.45-.405-.45-1.02m3.1 2.42v9.39h-2.93v-9.39zm4.89-3.94v13.33h-2.93V65.04zm6.34 13.5c-.76 0-1.45-.12-2.05-.36s-1.11-.57-1.52-.99-.73-.91-.95-1.46q-.33-.825-.33-1.74v-.33c0-.69.1-1.33.29-1.91.19-.59.47-1.1.85-1.54s.85-.78 1.41-1.03c.57-.25 1.23-.37 1.98-.37.67 0 1.26.11 1.79.32s.97.52 1.34.92.65.88.84 1.45.29 1.2.29 1.91v1.19h-7.67v-1.83h4.81v-.23c0-.31-.05-.58-.16-.8s-.28-.39-.49-.5c-.21-.12-.47-.17-.78-.17s-.58.07-.79.21-.36.33-.48.57-.19.52-.24.83-.07.64-.07.99V74c0 .35.05.66.14.95.1.28.23.53.42.72.18.2.4.35.66.46s.55.16.88.16c.4 0 .79-.07 1.18-.23.39-.15.72-.4 1-.75l1.33 1.58c-.19.27-.46.54-.81.79s-.77.46-1.25.62c-.49.16-1.03.24-1.63.24Zm10.06-2.81c0-.16-.05-.3-.16-.42s-.29-.23-.56-.33-.64-.2-1.12-.31q-.69-.15-1.29-.39c-.6-.24-.75-.36-1.05-.59s-.54-.51-.71-.82c-.17-.32-.26-.68-.26-1.09s.09-.78.26-1.13.42-.67.75-.95.74-.49 1.22-.65 1.03-.24 1.64-.24q1.26 0 2.19.39c.93.39 1.09.62 1.42 1.08s.5.99.5 1.59h-2.92c0-.24-.04-.44-.12-.61s-.2-.3-.38-.39c-.17-.09-.41-.13-.69-.13-.2 0-.39.04-.55.11-.16.08-.3.18-.39.31-.1.13-.15.29-.15.47 0 .13.03.24.09.34s.15.19.28.28.29.16.49.23.43.13.71.18c.63.12 1.22.28 1.77.49s1 .52 1.34.91.52.92.52 1.59c0 .42-.1.8-.29 1.15s-.47.66-.82.92c-.36.26-.79.47-1.29.61s-1.07.22-1.7.22c-.9 0-1.65-.16-2.27-.48s-1.09-.73-1.4-1.21c-.32-.49-.47-.98-.47-1.49h2.72c.01.29.08.53.21.71.13.19.3.32.52.41s.47.13.76.13c.27 0 .49-.04.66-.11s.31-.18.4-.31.14-.28.14-.46ZM69.99 91.54h3c-.04.87-.27 1.63-.7 2.3s-1.02 1.18-1.78 1.55-1.65.55-2.68.55c-.83 0-1.58-.14-2.23-.42s-1.21-.68-1.66-1.21-.8-1.16-1.04-1.91-.36-1.59-.36-2.53v-.68c0-.94.12-1.78.37-2.53s.6-1.39 1.06-1.92 1.01-.93 1.66-1.21 1.36-.42 2.15-.42c1.09 0 2 .19 2.75.58s1.33.92 1.74 1.6.65 1.45.73 2.31h-3c-.01-.47-.09-.86-.24-1.18s-.38-.56-.7-.72-.75-.24-1.28-.24c-.37 0-.69.07-.97.21-.27.14-.5.35-.69.65s-.32.68-.41 1.15-.13 1.04-.13 1.7v.69c0 .66.04 1.23.12 1.7s.21.85.39 1.15q.27.45.69.66c.42.21.63.21 1.04.21.46 0 .84-.07 1.16-.22.31-.15.56-.37.73-.67s.26-.68.27-1.15Zm8.78 4.4c-.75 0-1.43-.12-2.02-.36s-1.1-.56-1.5-.98-.72-.9-.93-1.44-.32-1.12-.32-1.72v-.33c0-.68.09-1.31.28-1.89s.47-1.09.84-1.52.84-.77 1.4-1.02q.84-.36 1.95-.36c.66 0 1.25.11 1.77.32s.96.51 1.32.91c.36.39.64.87.83 1.43s.29 1.19.29 1.89v1.17H75.1v-1.81h4.76v-.22c0-.31-.05-.57-.16-.79s-.27-.38-.48-.5c-.21-.11-.47-.17-.77-.17s-.57.07-.78.21c-.2.14-.36.32-.47.56s-.19.51-.24.82-.07.63-.07.98v.33c0 .34.05.65.14.93s.23.52.41.72.4.35.65.46.54.16.87.16c.39 0 .78-.07 1.17-.22.38-.15.71-.39.99-.74l1.31 1.56c-.19.27-.46.53-.8.78-.35.25-.76.46-1.24.61-.48.16-1.02.24-1.61.24Zm7.91-7.47v7.3h-2.89v-9.28h2.71zm-.34 2.34-.68.02c0-.71.09-1.34.26-1.9s.41-1.03.73-1.42c.31-.39.69-.68 1.13-.89.44-.2.92-.3 1.46-.3.43 0 .82.06 1.18.19s.67.33.93.61q.39.42.6 1.11c.21.69.21 1.03.21 1.7v5.84h-2.91v-5.85c0-.37-.05-.66-.15-.85-.1-.2-.25-.33-.45-.41s-.43-.11-.71-.11c-.3 0-.55.06-.75.17s-.37.27-.49.48q-.18.3-.27.72c-.05.27-.08.57-.08.9Zm12.3-4.32v2.01h-5.59v-2.01zm-4.42-2.3h2.89v8.56q0 .375.09.57c.06.13.16.23.3.28s.33.08.56.08c.17 0 .3 0 .41-.01.11 0 .21-.02.31-.04v2.07c-.25.08-.5.14-.77.18s-.55.06-.86.06c-.62 0-1.14-.1-1.58-.29s-.77-.5-1-.92-.34-.96-.34-1.63v-8.92Zm8.48 4.6v6.98h-2.89v-9.28h2.7zm2.75-2.37-.05 2.68c-.11-.01-.27-.03-.46-.04a5 5 0 0 0-.49-.03q-.51 0-.87.12c-.24.08-.44.19-.6.34s-.27.34-.34.57-.1.49-.1.8l-.52-.34c0-.62.06-1.19.18-1.7s.3-.95.53-1.33c.23-.37.51-.66.83-.87s.69-.3 1.1-.3c.14 0 .28 0 .42.03.14.02.26.04.37.08Zm.32 4.81v-.18c0-.68.1-1.31.29-1.88s.48-1.07.86-1.5.84-.75 1.4-.99q.825-.36 1.92-.36c1.095 0 1.38.12 1.93.36.56.24 1.02.57 1.4.99s.66.92.86 1.5c.19.57.29 1.2.29 1.88v.18c0 .67-.1 1.3-.29 1.87s-.48 1.07-.86 1.5-.84.76-1.4.99c-.55.23-1.19.35-1.92.35s-1.37-.12-1.93-.35q-.84-.345-1.41-.99c-.38-.43-.66-.93-.86-1.5s-.29-1.2-.29-1.87Zm2.89-.18v.18c0 .35.03.67.08.98.05.3.14.57.26.79.12.23.28.4.49.53s.46.19.77.19.56-.06.76-.19.36-.3.48-.53.21-.49.26-.79.08-.63.08-.98v-.18c0-.34-.03-.66-.08-.96s-.14-.57-.26-.8-.28-.41-.49-.54-.46-.2-.77-.2-.56.07-.76.2q-.3.195-.48.54c-.12.23-.21.5-.26.8s-.08.62-.08.96m12.51-.95.02 1.54h-1.28c-.27 0-.5.04-.68.11-.19.07-.33.18-.45.3s-.19.27-.24.43-.07.33-.07.51.04.32.12.46c.08.13.2.24.34.31s.3.11.48.11c.32 0 .59-.06.82-.18s.4-.27.52-.45.18-.34.18-.5l.63 1.18q-.165.345-.39.69c-.225.345-.33.45-.54.65s-.48.36-.78.48c-.31.12-.68.18-1.12.18-.57 0-1.1-.12-1.57-.35-.48-.23-.86-.56-1.14-.98-.29-.42-.43-.9-.43-1.45 0-.48.09-.91.26-1.29s.44-.7.79-.96.81-.46 1.35-.6 1.19-.21 1.94-.21h1.24Zm-.35 3.34v-3.82c0-.26-.04-.49-.11-.68s-.19-.34-.35-.44-.37-.16-.64-.16c-.22 0-.4.04-.56.11-.15.07-.27.19-.35.33q-.12.225-.12.57h-2.89c0-.43.1-.83.29-1.2s.47-.69.82-.96c.36-.27.79-.49 1.29-.64s1.06-.23 1.68-.23c.74 0 1.4.12 1.98.37s1.04.61 1.38 1.1.51 1.1.51 1.84v3.8c0 .61.03 1.06.1 1.38.07.31.17.58.29.82v.15h-2.9q-.21-.435-.3-1.05c-.07-.41-.1-.84-.1-1.28Zm7.43-4.98v7.31h-2.89v-9.28h2.71l.18 1.96Zm-.36 2.35-.66.02c0-.65.08-1.25.23-1.8s.38-1.03.69-1.43c.3-.41.68-.72 1.12-.94s.96-.33 1.54-.33c.41 0 .77.06 1.11.18.33.12.62.31.86.57s.42.6.55 1.01.19.91.19 1.49v6.19h-2.89v-5.82c0-.39-.04-.69-.13-.89s-.22-.33-.38-.4c-.17-.07-.37-.1-.61-.1s-.48.06-.68.17q-.3.165-.51.48c-.21.315-.25.44-.32.72-.07.27-.11.57-.11.9Zm5.3 0-.81.02c0-.65.07-1.25.22-1.8s.37-1.03.66-1.43c.29-.41.66-.72 1.1-.94q.66-.33 1.53-.33c.42 0 .81.06 1.17.19.35.13.66.33.92.61q.39.42.6 1.11c.21.69.21 1.03.21 1.7v5.84h-2.9v-5.84c0-.38-.04-.67-.13-.87a.75.75 0 0 0-.38-.4c-.17-.07-.36-.11-.59-.11-.27 0-.51.06-.71.17s-.37.27-.5.48q-.195.3-.3.72-.09.405-.09.9Zm11.76 5.13c-.75 0-1.43-.12-2.02-.36s-1.1-.56-1.5-.98-.72-.9-.93-1.44-.32-1.12-.32-1.72v-.33c0-.68.09-1.31.28-1.89s.47-1.09.84-1.52.84-.77 1.4-1.02q.84-.36 1.95-.36c.66 0 1.25.11 1.77.32s.96.51 1.32.91c.36.39.64.87.83 1.43s.29 1.19.29 1.89v1.17h-7.58v-1.81h4.76v-.22c0-.31-.05-.57-.16-.79s-.27-.38-.48-.5c-.21-.11-.47-.17-.77-.17s-.57.07-.78.21c-.2.14-.36.32-.47.56s-.19.51-.24.82-.07.63-.07.98v.33c0 .34.05.65.14.93s.23.52.41.72.4.35.65.46.54.16.87.16c.39 0 .78-.07 1.17-.22.38-.15.71-.39.99-.74l1.31 1.56c-.19.27-.46.53-.8.78-.35.25-.76.46-1.24.61-.48.16-1.02.24-1.61.24Zm7.99-7.15v6.98h-2.89v-9.28h2.7zm2.74-2.37-.05 2.68c-.11-.01-.27-.03-.46-.04a5 5 0 0 0-.49-.03q-.51 0-.87.12c-.24.08-.44.19-.6.34s-.27.34-.34.57-.1.49-.1.8l-.52-.34c0-.62.06-1.19.18-1.7s.3-.95.53-1.33c.23-.37.51-.66.83-.87s.69-.3 1.1-.3c.14 0 .28 0 .42.03.14.02.26.04.37.08Zm.98-2.32c0-.41.15-.75.45-1.01s.68-.39 1.16-.39.86.13 1.16.39.45.6.45 1.01-.15.75-.45 1.01-.68.39-1.16.39-.86-.13-1.16-.39-.45-.6-.45-1.01m3.07 2.39v9.28h-2.9v-9.28zm5.69 7.22q.405 0 .69-.15c.285-.15.34-.24.44-.43s.15-.41.14-.67h2.72c0 .7-.16 1.31-.51 1.83s-.81.93-1.41 1.22c-.59.29-1.26.43-2 .43s-1.36-.12-1.9-.36-1-.57-1.36-.99a4.3 4.3 0 0 1-.81-1.5q-.27-.855-.27-1.86v-.2q0-1.005.27-1.86t.81-1.5 1.35-.99q.81-.36 1.89-.36c.77 0 1.45.15 2.04.44s1.06.71 1.39 1.27c.34.55.5 1.23.5 2.01h-2.72c0-.28-.04-.53-.13-.75q-.135-.33-.42-.54c-.19-.13-.44-.2-.73-.2s-.54.07-.72.2q-.27.195-.42.54c-.09.23-.16.5-.19.79-.03.3-.05.61-.05.95v.2c0 .34.02.66.05.96s.1.56.19.79c.1.23.24.4.42.53s.43.19.73.19Zm10.39-3.61.02 1.54h-1.28c-.27 0-.5.04-.68.11-.19.07-.33.18-.45.3s-.19.27-.24.43-.07.33-.07.51.04.32.12.46c.08.13.2.24.34.31s.3.11.48.11c.32 0 .59-.06.82-.18s.4-.27.52-.45.18-.34.18-.5l.63 1.18q-.165.345-.39.69c-.225.345-.33.45-.54.65s-.48.36-.78.48c-.31.12-.68.18-1.12.18-.57 0-1.1-.12-1.57-.35-.48-.23-.86-.56-1.14-.98-.29-.42-.43-.9-.43-1.45 0-.48.09-.91.26-1.29s.44-.7.79-.96.81-.46 1.35-.6 1.19-.21 1.94-.21h1.24Zm-.36 3.34v-3.82c0-.26-.04-.49-.11-.68s-.19-.34-.35-.44-.37-.16-.64-.16c-.22 0-.4.04-.56.11-.15.07-.27.19-.35.33q-.12.225-.12.57h-2.89c0-.43.1-.83.29-1.2s.47-.69.82-.96c.36-.27.79-.49 1.29-.64s1.06-.23 1.68-.23c.74 0 1.4.12 1.98.37s1.04.61 1.38 1.1.51 1.1.51 1.84v3.8c0 .61.03 1.06.1 1.38.07.31.17.58.29.82v.15h-2.9q-.21-.435-.3-1.05c-.07-.41-.1-.84-.1-1.28Zm7.35-4.97v7.3h-2.89v-9.28h2.71zm-.34 2.34-.68.02c0-.71.09-1.34.26-1.9s.41-1.03.73-1.42c.31-.39.69-.68 1.13-.89.44-.2.92-.3 1.46-.3.43 0 .82.06 1.18.19s.67.33.93.61q.39.42.6 1.11c.21.69.21 1.03.21 1.7v5.84h-2.91v-5.85c0-.37-.05-.66-.15-.85-.1-.2-.25-.33-.45-.41s-.43-.11-.71-.11c-.3 0-.55.06-.75.17s-.37.27-.49.48q-.18.3-.27.72c-.05.27-.08.57-.08.9Zm12.59-.71.02 1.54h-1.28c-.27 0-.5.04-.68.11-.19.07-.33.18-.45.3s-.19.27-.24.43-.07.33-.07.51.04.32.12.46c.08.13.2.24.34.31s.3.11.48.11c.32 0 .59-.06.82-.18s.4-.27.52-.45.18-.34.18-.5l.63 1.18q-.165.345-.39.69c-.225.345-.33.45-.54.65s-.48.36-.78.48c-.31.12-.68.18-1.12.18-.57 0-1.1-.12-1.57-.35-.48-.23-.86-.56-1.14-.98-.29-.42-.43-.9-.43-1.45 0-.48.09-.91.26-1.29s.44-.7.79-.96.81-.46 1.35-.6 1.19-.21 1.94-.21h1.24Zm-.36 3.34v-3.82c0-.26-.04-.49-.11-.68s-.19-.34-.35-.44-.37-.16-.64-.16c-.22 0-.4.04-.56.11-.15.07-.27.19-.35.33q-.12.225-.12.57h-2.89c0-.43.1-.83.29-1.2s.47-.69.82-.96c.36-.27.79-.49 1.29-.64s1.06-.23 1.68-.23c.74 0 1.4.12 1.98.37s1.04.61 1.38 1.1.51 1.1.51 1.84v3.8c0 .61.03 1.06.1 1.38.07.31.17.58.29.82v.15h-2.9q-.21-.435-.3-1.05c-.07-.41-.1-.84-.1-1.28ZM83.88 57.18h3.83c3.04 0 4.56-1.49 4.56-4.46 0-1.16-.36-2.1-1.09-2.83-.72-.73-1.74-1.1-3.06-1.1-1.08 0-2.01.31-2.81.94s-1.19 1.41-1.19 2.34h-8.13c0-1.85.51-3.5 1.54-4.94 1.03-1.45 2.46-2.58 4.28-3.39s3.83-1.22 6.02-1.22c3.91 0 6.98.89 9.21 2.68 2.23 1.78 3.35 4.24 3.35 7.35 0 1.51-.46 2.94-1.39 4.28-.92 1.34-2.27 2.43-4.04 3.27 1.86.68 3.33 1.7 4.39 3.07q1.59 2.055 1.59 5.1c0 3.14-1.21 5.64-3.62 7.52s-5.58 2.82-9.5 2.82c-2.3 0-4.43-.44-6.4-1.31-1.97-.88-3.46-2.09-4.47-3.64s-1.52-3.32-1.52-5.29h8.17c0 1.08.43 2.01 1.3 2.8s1.94 1.18 3.21 1.18c1.43 0 2.57-.4 3.42-1.19.85-.8 1.28-1.81 1.28-3.05 0-1.77-.44-3.02-1.33-3.76-.88-.74-2.11-1.11-3.67-1.11h-3.95v-6.05Zm21.68 20.95V43.02h11.31c3.1 0 5.89.7 8.37 2.11s4.41 3.39 5.8 5.96c1.39 2.56 2.09 5.44 2.11 8.62v1.62q0 4.83-2.04 8.64c-1.36 2.55-3.27 4.54-5.74 5.98s-5.22 2.17-8.26 2.18zm8.46-28.57v22.06h2.94c2.43 0 4.29-.86 5.59-2.59s1.95-4.3 1.95-7.7v-1.52c0-3.39-.65-5.95-1.95-7.67s-3.2-2.58-5.69-2.58h-2.85ZM32.89 66.65l.7 1.38 2.98-1.51q-.375-.675-.66-1.41l-3.03 1.53Zm2.58 4.85.77 1.35 3.49-2.05c-.23-.46-.52-.88-.85-1.25-1.16.67-2.38 1.36-3.41 1.95"/><path class="cls-2" d="m38.82 65.39-2.25 1.14c.57 1.06 1.29 2.02 2.13 2.85.06.06.12.12.17.18.29-.17 2.15-1.24 2.32-1.34-.95-.79-1.76-1.76-2.38-2.83Zm-1.36-4.21c-.9-.18-1.76-.53-2.54-1.02.03 1.74.38 3.43.99 4.97L38.14 64c-.35-.9-.58-1.85-.68-2.81Zm5.06 7.98-2.8 1.64c.49.96.75 2.14.75 3.21h4.44c0-1.28-.17-2.67-.5-3.95-.66-.23-1.3-.54-1.9-.9Zm12.75-3.35h-2.42v-2.38H51.3v2.38h-2.42v-2.38h-1.55v2.16c-2.06-.56-3.59-2.23-4.15-4.27h-4.13c.14 1.02.45 2.01.92 2.92a8.99 8.99 0 0 0 7.97 4.86h8.89v-5.68h-1.55v2.38Z"/><path class="cls-2" d="m56.37 54.22-1.01-.45-14.04-6.23h-2.38c-3.36 0-6.1 2.74-6.1 6.12s2.81 6.12 6.1 6.12h6.36v2.36h1.55v-2.36h2.45v2.36h1.55v-2.36h2.45v2.36h1.55v-2.36h2.45v2.26h1.55v-2.26h.47v-1.54c0-1.68-.94-2.95-2.95-4.01Zm-16.22 3.02a3.59 3.59 0 0 1-3.58-3.58c0-1.97 1.61-3.58 3.58-3.58s3.58 1.61 3.58 3.58-1.61 3.58-3.58 3.58m14.05.04h-3.35v-1.55h3.35zm141.96 49.64 1.09-5.26 1.16 5.23 2.76-.34-1.61 2.27 3.47 4.02-4.57-2.06-1.09 2.56-1.15-2.53-4.56 2.13 3.41-4.06-1.68-2.23zm-139.44 0 1.09-5.26 1.16 5.23 2.76-.34-1.61 2.27 3.47 4.02-4.57-2.06-1.09 2.56-1.15-2.53-4.56 2.13 3.41-4.06-1.68-2.23z"/><path class="cls-1" d="m221.62 70.52-.63.63c-.7.7-1.83.7-2.53 0l-5.06-5.06c-.59-.59-.65-1.46-.25-2.15l-2.76-2.76a8.9 8.9 0 0 1-5.31 1.76c-4.94 0-8.94-4-8.94-8.94s4-8.94 8.94-8.94 8.94 4 8.94 8.94c0 2.3-.87 4.39-2.3 5.97l2.7 2.7c.68-.4 1.56-.33 2.15.25l5.06 5.06c.7.7.7 1.83 0 2.53Zm-9.86-16.54a6.7 6.7 0 1 0-13.4 0 6.7 6.7 0 0 0 13.4 0"/><path class="cls-1" d="M205.06 48.08c-3.25 0-5.89 2.64-5.89 5.89s2.64 5.89 5.89 5.89 5.89-2.64 5.89-5.89-2.64-5.89-5.89-5.89m0 2.81a4.17 4.17 0 0 0-4.01 3.04c.03-2.2 1.81-3.97 4.01-3.97s4 1.78 4.02 3.99a4.17 4.17 0 0 0-4.02-3.06"/></svg>