<svg xmlns="http://www.w3.org/2000/svg" id="HANDSKETCHED_LAURELS" data-name="HANDSKETCHED LAURELS" viewBox="0 0 192.04 192.17"><defs><style>.cls-1{font-size:23.04px;}.cls-1,.cls-2,.cls-4,.cls-5,.cls-6{fill:#AFAFAF;}.cls-1,.cls-2,.cls-4,.cls-5{font-family:Roboto-Black, Roboto;font-weight:800;}.cls-2{font-size:25.11px;}.cls-3{letter-spacing:-0.02em;}.cls-4{font-size:23.98px;}.cls-5{font-size:20.32px;}</style></defs><text class="cls-1" transform="translate(25.05 106.48)">Digitalización</text><text class="cls-2" transform="translate(59.91 128.42)">P<tspan class="cls-3" x="16.35" y="0">r</tspan><tspan x="25.42" y="0">ocesos</tspan></text><text class="cls-4" transform="translate(28.83 129.09)">de</text><text class="cls-5" transform="translate(49.08 148.7)">Logísticos</text><polygon class="cls-6" points="83.58 60.28 83.58 52.53 74.34 52.53 74.34 63.05 83.58 60.28"/><polygon class="cls-6" points="109.98 60.28 109.98 52.53 119.22 52.53 119.22 63.05 109.98 60.28"/><path class="cls-6" d="M104.7,36.69l-1.32-7.92h-4v7.92H94.14v-4H88.86v4H80.94V42l6.6,2.64V59.09l9.24-2.77L106,59.09V44.61l6.6-2.64V36.69Zm-3.3,9.24H92.16V42h9.24v4Z"/><path class="cls-6" d="M77.77,80.26a8.92,8.92,0,0,0,12.67,0,8.82,8.82,0,0,0,4.36,2.39V61.05L70.38,68.38l3.16,14.23A8.84,8.84,0,0,0,77.77,80.26Zm11.75-13.2a2,2,0,1,1-2,2A2,2,0,0,1,89.52,67.06Z"/><path class="cls-6" d="M98.76,82.65a8.9,8.9,0,0,0,4.36-2.39,8.92,8.92,0,0,0,12.67,0A8.9,8.9,0,0,0,120,82.62l3.16-14.24L98.76,61.05ZM104,67.06a2,2,0,1,1-2,2A2,2,0,0,1,104,67.06Z"/><path class="cls-6" d="M98.5,0l.67.08c2.22.14,4.45.24,6.67.44a81.68,81.68,0,0,1,10.43,1.64A95.5,95.5,0,0,1,163.1,27.33a100.36,100.36,0,0,1,18.61,24.81,90.25,90.25,0,0,1,7.5,19.15c.72,2.7,1.3,5.43,1.76,8.19a61.73,61.73,0,0,1,.82,6.64c.12,2,.14,4,.16,6.06,0,1.21-.09,2.42-.09,3.64a19.48,19.48,0,0,0,.18,2v3.69a2.49,2.49,0,0,0-.09.37q-.3,4.81-1.06,9.59a98.18,98.18,0,0,1-3.77,15.32,96.05,96.05,0,0,1-22.32,36.41,95.83,95.83,0,0,1-39.86,24.52,93.5,93.5,0,0,1-13.62,3.19c-3,.48-6,.83-9,1-1.51.09-3,.12-4.55.18a3.91,3.91,0,0,0-.48,0H95.39c-.55,0-1.09-.07-1.64-.08a94.82,94.82,0,0,1-50.66-15.91,91.32,91.32,0,0,1-15-12.26A100.39,100.39,0,0,1,9.28,137.83,90.93,90.93,0,0,1,2.93,121a88.91,88.91,0,0,1-1.86-8.72c-.38-2.36-.68-4.73-.83-7.12A57.34,57.34,0,0,1,.17,98a23.2,23.2,0,0,0-.09-3.82,21.18,21.18,0,0,1,0-4.06l.45-4.64c.29-2.81.74-5.6,1.3-8.38A93.31,93.31,0,0,1,7.69,58.26,96.27,96.27,0,0,1,65.9,4.83,93.73,93.73,0,0,1,80.1,1.34,91.9,91.9,0,0,1,92.49.08,5.58,5.58,0,0,0,93.06,0ZM96.14,189.65a92.23,92.23,0,0,0,15.11-1.24,93.78,93.78,0,0,0,75-67.69,91.84,91.84,0,0,0,2.34-11.14c.25-1.68.43-3.37.64-5,.31-2.55.61-5.1.92-7.66a4.42,4.42,0,0,0,0-1c-.22-2.35-.47-4.7-.7-7a100.11,100.11,0,0,0-1.81-11.29,97,97,0,0,0-4.43-15,92.76,92.76,0,0,0-46.24-50.64,92.19,92.19,0,0,0-35.89-9.29A93,93,0,0,0,77.81,4.29a92,92,0,0,0-23.2,7.9A94.1,94.1,0,0,0,7.36,66.37a90.55,90.55,0,0,0-3.68,15c-.31,2-.54,3.91-.79,5.86-.35,2.84-.68,5.69-1,8.53a1.93,1.93,0,0,0,0,.48c.18,1.8.37,3.6.54,5.4.3,3.16.71,6.3,1.29,9.42s1.27,6.27,2.12,9.35a97.8,97.8,0,0,0,7.1,18.33,91.25,91.25,0,0,0,18.47,25,93.09,93.09,0,0,0,35.66,21.33,91.31,91.31,0,0,0,19.06,4.07Q91.12,189.64,96.14,189.65Z"/><path class="cls-6" d="M96.09,13.9c2.59,0,5.17.15,7.75.4A82.26,82.26,0,0,1,129.42,21a89,89,0,0,1,14.05,7.91,81.57,81.57,0,0,1,14.62,12.7A79,79,0,0,1,173,65.24a73.28,73.28,0,0,1,4.44,15.84,60.23,60.23,0,0,1,.8,11.69c0,.82-.12,1.65-.14,2.47s0,1.68,0,2.52c0,2.41,0,4.82-.22,7.22a74.33,74.33,0,0,1-2,12.24,77.73,77.73,0,0,1-19.67,35.42,82.34,82.34,0,0,1-39.38,22.93,78.37,78.37,0,0,1-9.6,1.91,67.17,67.17,0,0,1-7,.61c-2.18.06-4.36.12-6.54.07a80.59,80.59,0,0,1-26.2-5,82.86,82.86,0,0,1-13.25-6.3,90.79,90.79,0,0,1-9.85-6.64,81.72,81.72,0,0,1-19.3-21.39,76.6,76.6,0,0,1-7.94-17.16,68.66,68.66,0,0,1-2.65-11.32,61.35,61.35,0,0,1-.7-10c0-1.28.14-2.55.19-3.83,0-.85,0-1.71,0-2.57,0-1.47,0-2.94.08-4.41.1-1.76.25-3.51.44-5.27a65.57,65.57,0,0,1,1.61-9.11,78,78,0,0,1,20.09-36A81.9,81.9,0,0,1,68.87,18.5,85.72,85.72,0,0,1,82.81,15a66.35,66.35,0,0,1,7.32-.82C92.11,14.06,94.1,14,96.09,13.9Zm-.16,161.9c1.72-.07,3.43-.13,5.14-.21a70.3,70.3,0,0,0,7.66-.82A76.35,76.35,0,0,0,124,170.66a78.86,78.86,0,0,0,35.15-26.76,84.41,84.41,0,0,0,16.15-40.57c.22-1.86.38-3.73.54-5.59a10.25,10.25,0,0,0,.07-1.75c-.08-1.11-.23-2.22-.36-3.32-.32-2.6-.67-5.2-1.11-7.78A92,92,0,0,0,171,71.22a83.21,83.21,0,0,0-11.66-22.73,80.36,80.36,0,0,0-16.6-16.9,71.74,71.74,0,0,0-9.17-5.88,77.14,77.14,0,0,0-12.7-5.4,78.84,78.84,0,0,0-20-3.79,84.91,84.91,0,0,0-11.39.14,75.63,75.63,0,0,0-9.11,1.28,76.91,76.91,0,0,0-19.88,7A79.43,79.43,0,0,0,35,45.7,83,83,0,0,0,19,77.23a80.71,80.71,0,0,0-2.16,11.32c-.22,1.8-.38,3.6-.55,5.4a15.87,15.87,0,0,0-.09,2.28c.07,1.16.24,2.31.38,3.47.36,3,.77,5.89,1.31,8.82a90.25,90.25,0,0,0,4.87,17A82.66,82.66,0,0,0,31.63,142,80,80,0,0,0,49.44,160.6a67.7,67.7,0,0,0,9,5.78,79.47,79.47,0,0,0,27.6,8.78A85.77,85.77,0,0,0,95.93,175.8Z"/><circle class="cls-6" cx="66.99" cy="12.7" r="1.55"/><circle class="cls-6" cx="41.48" cy="26.64" r="1.55"/><circle class="cls-6" cx="21.89" cy="48.11" r="1.55"/><circle class="cls-6" cx="10.33" cy="74.78" r="1.55"/><circle class="cls-6" cx="8.05" cy="103.76" r="1.55"/><circle class="cls-6" cx="15.31" cy="131.9" r="1.55"/><circle class="cls-6" cx="31.31" cy="156.17" r="1.55"/><circle class="cls-6" cx="54.33" cy="173.92" r="1.55"/><circle class="cls-6" cx="81.86" cy="183.24" r="1.55"/><circle class="cls-6" cx="110.93" cy="183.11" r="1.55"/><circle class="cls-6" cx="138.38" cy="173.56" r="1.55"/><circle class="cls-6" cx="161.24" cy="155.61" r="1.55"/><circle class="cls-6" cx="177.03" cy="131.2" r="1.55"/><circle class="cls-6" cx="184.05" cy="103" r="1.55"/><circle class="cls-6" cx="181.52" cy="74.04" r="1.55"/><circle class="cls-6" cx="169.73" cy="47.47" r="1.55"/><circle class="cls-6" cx="149.95" cy="26.17" r="1.55"/><circle class="cls-6" cx="124.33" cy="12.45" r="1.55"/><circle class="cls-6" cx="95.64" cy="7.79" r="1.55"/></svg>