<svg xmlns="http://www.w3.org/2000/svg" id="HANDSKETCHED_LAURELS" data-name="HANDSKETCHED LAURELS" viewBox="0 0 184.69 183.81"><defs><style>.cls-1{fill:#AFAFAF;}</style></defs><path class="cls-1" d="M51.07,66.73H45.61l-1,3.09H40.41L46.46,53.3H50.2l6.11,16.52H52Zm-4.51-3.07h3.55l-1.78-5.73Z"/><path class="cls-1" d="M71.3,69.82h-4L61.49,59.54V69.82h-4V53.3h4l5.84,10.28V53.3h4Z"/><path class="cls-1" d="M83.4,66.73H78l-1,3.09H72.74L78.8,53.3h3.74l6.1,16.52H84.37Zm-4.5-3.07h3.55l-1.78-5.73Zm2.29-14.78h4l-3.15,3.56H79Z"/><path class="cls-1" d="M93.83,66.75h6.93v3.07H89.84V53.3h4Z"/><path class="cls-1" d="M106.68,69.82h-4V53.3h4Z"/><path class="cls-1" d="M118,65.43a1.62,1.62,0,0,0-.62-1.36,7.25,7.25,0,0,0-2.17-1,21.93,21.93,0,0,1-2.54-1q-3.21-1.57-3.21-4.34a3.91,3.91,0,0,1,.8-2.42,5.17,5.17,0,0,1,2.26-1.63,8.81,8.81,0,0,1,3.29-.58,7.73,7.73,0,0,1,3.19.63,5,5,0,0,1,2.2,1.81,4.73,4.73,0,0,1,.78,2.68h-4a2,2,0,0,0-.62-1.56,2.41,2.41,0,0,0-1.67-.56,2.73,2.73,0,0,0-1.68.47,1.43,1.43,0,0,0-.62,1.2,1.47,1.47,0,0,0,.68,1.15A8.73,8.73,0,0,0,116.45,60a14.78,14.78,0,0,1,2.82,1.18,4.73,4.73,0,0,1,2.67,4.25,4,4,0,0,1-1.63,3.41A7.29,7.29,0,0,1,115.83,70a8.93,8.93,0,0,1-3.64-.72,5.55,5.55,0,0,1-2.45-2,5.23,5.23,0,0,1-.82-2.89h4a2.53,2.53,0,0,0,.69,2,3.25,3.25,0,0,0,2.23.63,2.51,2.51,0,0,0,1.56-.43A1.39,1.39,0,0,0,118,65.43Z"/><path class="cls-1" d="M128.23,69.82h-4V53.3h4Z"/><path class="cls-1" d="M139.51,65.43a1.62,1.62,0,0,0-.62-1.36,7.25,7.25,0,0,0-2.17-1,21.93,21.93,0,0,1-2.54-1Q131,60.48,131,57.71a3.91,3.91,0,0,1,.8-2.42A5.17,5.17,0,0,1,134,53.66a8.81,8.81,0,0,1,3.29-.58,7.73,7.73,0,0,1,3.19.63,5,5,0,0,1,2.2,1.81,4.73,4.73,0,0,1,.78,2.68h-4a2,2,0,0,0-.62-1.56,2.41,2.41,0,0,0-1.67-.56,2.73,2.73,0,0,0-1.68.47,1.43,1.43,0,0,0-.62,1.2,1.47,1.47,0,0,0,.68,1.15A8.73,8.73,0,0,0,138,60a14.78,14.78,0,0,1,2.82,1.18,4.73,4.73,0,0,1,2.67,4.25,4,4,0,0,1-1.63,3.41A7.29,7.29,0,0,1,137.38,70a8.93,8.93,0,0,1-3.64-.72,5.55,5.55,0,0,1-2.45-2,5.23,5.23,0,0,1-.82-2.89h4a2.53,2.53,0,0,0,.69,2,3.25,3.25,0,0,0,2.23.63,2.51,2.51,0,0,0,1.56-.43A1.39,1.39,0,0,0,139.51,65.43Z"/><path class="cls-1" d="M44.22,84.05l1.29-4.37H48.1l-3.16,9-.14.33a2.4,2.4,0,0,1-2.38,1.51,4,4,0,0,1-1-.14V88.71h.32a1.63,1.63,0,0,0,.78-.15.92.92,0,0,0,.39-.53l.2-.52-2.7-7.83H43Z"/><path class="cls-1" d="M59.58,83.62a4.69,4.69,0,0,1-.81,2.88,2.61,2.61,0,0,1-2.2,1.08,2.22,2.22,0,0,1-1.75-.78v3.62H52.4V79.68h2.26l.07.72a2.21,2.21,0,0,1,1.83-.86,2.64,2.64,0,0,1,2.23,1,4.76,4.76,0,0,1,.79,2.91Zm-2.41-.16c0-1.37-.4-2.06-1.21-2.06a1.12,1.12,0,0,0-1.14.62v3a1.17,1.17,0,0,0,1.16.65c.77,0,1.16-.67,1.19-2Z"/><path class="cls-1" d="M65.34,81.87l-.79-.06a1.44,1.44,0,0,0-1.47.72v4.91H60.67V79.68h2.26l.08,1a1.87,1.87,0,0,1,1.7-1.14,2.24,2.24,0,0,1,.67.08Z"/><path class="cls-1" d="M69.83,87.58a4,4,0,0,1-2.89-1.06,3.68,3.68,0,0,1-1.1-2.78v-.2a4.7,4.7,0,0,1,.44-2.1A3.3,3.3,0,0,1,67.56,80a3.94,3.94,0,0,1,2-.49,3.34,3.34,0,0,1,2.58,1,4,4,0,0,1,.95,2.83v.94H68.3a1.72,1.72,0,0,0,.56,1,1.69,1.69,0,0,0,1.14.38,2.16,2.16,0,0,0,1.79-.81l1.1,1.31a3.09,3.09,0,0,1-1.28,1A4.24,4.24,0,0,1,69.83,87.58Zm-.27-6.18c-.71,0-1.13.47-1.26,1.4h2.43v-.18a1.17,1.17,0,0,0-.29-.9A1.19,1.19,0,0,0,69.56,81.4Z"/><path class="cls-1" d="M73.77,83.5a4.71,4.71,0,0,1,.79-2.9,2.61,2.61,0,0,1,2.23-1.06,2.22,2.22,0,0,1,1.74.81V76.42H81v11H78.79l-.13-.84a2.25,2.25,0,0,1-1.89,1,2.6,2.6,0,0,1-2.19-1.06A4.91,4.91,0,0,1,73.77,83.5Zm2.41.15c0,1.38.4,2.07,1.21,2.07A1.18,1.18,0,0,0,78.53,85v-3a1.15,1.15,0,0,0-1.13-.69c-.74,0-1.15.6-1.21,1.81Z"/><path class="cls-1" d="M82.31,77.68a1.08,1.08,0,0,1,.38-.85,1.38,1.38,0,0,1,1-.33,1.41,1.41,0,0,1,1,.33,1.13,1.13,0,0,1,0,1.69,1.41,1.41,0,0,1-1,.33,1.38,1.38,0,0,1-1-.33A1.07,1.07,0,0,1,82.31,77.68Zm2.57,9.76H82.46V79.68h2.42Z"/><path class="cls-1" d="M89.65,85.72a1.1,1.1,0,0,0,.79-.28,1,1,0,0,0,.27-.77H93a2.67,2.67,0,0,1-.92,2.09,3.37,3.37,0,0,1-2.35.82A3.44,3.44,0,0,1,87,86.52a4.19,4.19,0,0,1-1-2.94v-.1a4.72,4.72,0,0,1,.44-2.08A3.11,3.11,0,0,1,87.75,80a3.73,3.73,0,0,1,1.93-.48,3.38,3.38,0,0,1,2.41.83A3,3,0,0,1,93,82.65H90.71a1.38,1.38,0,0,0-.29-.93,1,1,0,0,0-.79-.32c-.63,0-1,.4-1.1,1.2a9.08,9.08,0,0,0,0,1,3.27,3.27,0,0,0,.28,1.62A1,1,0,0,0,89.65,85.72Z"/><path class="cls-1" d="M97.28,85.72a1.1,1.1,0,0,0,.79-.28,1,1,0,0,0,.27-.77h2.27a2.67,2.67,0,0,1-.92,2.09,3.37,3.37,0,0,1-2.35.82,3.44,3.44,0,0,1-2.67-1.06,4.19,4.19,0,0,1-1-2.94v-.1a4.72,4.72,0,0,1,.44-2.08A3.11,3.11,0,0,1,95.38,80a3.73,3.73,0,0,1,1.93-.48,3.38,3.38,0,0,1,2.41.83,3,3,0,0,1,.89,2.28H98.34a1.38,1.38,0,0,0-.29-.93,1,1,0,0,0-.79-.32c-.63,0-1,.4-1.1,1.2a9.08,9.08,0,0,0,0,1,3.27,3.27,0,0,0,.28,1.62A1,1,0,0,0,97.28,85.72Z"/><path class="cls-1" d="M101.61,77.68a1.07,1.07,0,0,1,.37-.85,1.59,1.59,0,0,1,1.94,0,1.15,1.15,0,0,1,0,1.69,1.59,1.59,0,0,1-1.94,0A1.07,1.07,0,0,1,101.61,77.68Zm2.57,9.76h-2.43V79.68h2.43Z"/><path class="cls-1" d="M105.36,83.49a4.57,4.57,0,0,1,.45-2.07,3.21,3.21,0,0,1,1.3-1.4,3.92,3.92,0,0,1,2-.48,3.56,3.56,0,0,1,2.75,1.07,4.14,4.14,0,0,1,1,2.94v.09a4,4,0,0,1-1,2.88,4.06,4.06,0,0,1-5.39.07,3.87,3.87,0,0,1-1.08-2.7Zm2.41.15a2.9,2.9,0,0,0,.34,1.57,1.13,1.13,0,0,0,1,.51c.86,0,1.3-.67,1.32-2v-.24c0-1.4-.45-2.09-1.34-2.09s-1.24.6-1.31,1.8Zm1.65-7.22H112l-2,2.26h-2Z"/><path class="cls-1" d="M116.13,79.68l.08.91a2.62,2.62,0,0,1,2.21-1,2.22,2.22,0,0,1,1.81.72,3.41,3.41,0,0,1,.62,2.18v5h-2.42v-4.9a1.28,1.28,0,0,0-.24-.86,1.06,1.06,0,0,0-.86-.28,1.16,1.16,0,0,0-1,.56v5.48h-2.42V79.68Z"/><path class="cls-1" d="M125.54,83.5a4.71,4.71,0,0,1,.8-2.9,2.61,2.61,0,0,1,2.22-1.06,2.24,2.24,0,0,1,1.75.81V76.42h2.42v11h-2.17l-.12-.84a2.27,2.27,0,0,1-1.89,1,2.61,2.61,0,0,1-2.2-1.06A4.91,4.91,0,0,1,125.54,83.5Zm2.42.15q0,2.07,1.2,2.07a1.19,1.19,0,0,0,1.15-.68v-3a1.16,1.16,0,0,0-1.13-.69c-.75,0-1.15.6-1.21,1.81Z"/><path class="cls-1" d="M137.86,87.58A4,4,0,0,1,135,86.52a3.71,3.71,0,0,1-1.1-2.78v-.2a4.7,4.7,0,0,1,.44-2.1A3.26,3.26,0,0,1,135.6,80a3.88,3.88,0,0,1,2-.49,3.34,3.34,0,0,1,2.58,1,4,4,0,0,1,.95,2.83v.94h-4.8a1.72,1.72,0,0,0,.56,1,1.69,1.69,0,0,0,1.14.38,2.16,2.16,0,0,0,1.79-.81l1.1,1.31a3.09,3.09,0,0,1-1.28,1A4.24,4.24,0,0,1,137.86,87.58Zm-.27-6.18c-.71,0-1.13.47-1.26,1.4h2.43v-.18a1.17,1.17,0,0,0-.29-.9A1.19,1.19,0,0,0,137.59,81.4Z"/><path class="cls-1" d="M42.61,124V95.17h9.27a13.66,13.66,0,0,1,6.86,1.73,12.16,12.16,0,0,1,4.76,4.88,14.82,14.82,0,0,1,1.73,7.07v1.32a14.87,14.87,0,0,1-1.67,7.09,12.27,12.27,0,0,1-4.71,4.9A13.29,13.29,0,0,1,52.08,124Zm6.94-23.42v18.08H52a5.4,5.4,0,0,0,4.59-2.12c1.07-1.42,1.6-3.52,1.6-6.32v-1.24q0-4.17-1.6-6.29a5.49,5.49,0,0,0-4.67-2.11Z"/><path class="cls-1" d="M84.72,118.57H75.21L73.55,124H66.14L76.69,95.17h6.52L93.85,124H86.4Zm-7.85-5.35h6.19l-3.11-10Z"/><path class="cls-1" d="M116.17,100.53h-8.64V124h-6.94V100.53H92.11V95.17h24.06Z"/><path class="cls-1" d="M133.07,118.57h-9.51L121.9,124h-7.41L125,95.17h6.52L142.2,124h-7.45Zm-7.85-5.35h6.18l-3.1-10Z"/><path class="cls-1" d="M90.51,18v-.77A17.55,17.55,0,0,0,72.17,0c-8.81.33-16,6.85-16.85,15.11a0,0,0,0,1,0,0A18.29,18.29,0,0,0,53.15,15c-20.6,0-37.36,16-37.36,35.57a32.17,32.17,0,0,0,1.47,9.33s0,0,0,0a38.21,38.21,0,0,0,0,63.88.08.08,0,0,1,0,0,32.29,32.29,0,0,0-1.47,9.34c0,17.78,13.75,32.62,32.22,35.05,0,0,0,0,0,0,2.4,9.07,11,15.52,20.89,15.52,11.91,0,21.58-9.22,21.58-20.54v-3.76a15.94,15.94,0,0,0-1.06-5.74,1.87,1.87,0,0,0-1.75-1.17h0A1.78,1.78,0,0,0,86,155a12.55,12.55,0,0,1,.85,4.55v3.3a17.72,17.72,0,0,1-17.55,17.46c-8.73.15-16.27-5.76-17.85-13.93l-.25-1.27a0,0,0,0,0,0,0l-1.36-.13c-17.25-1.67-30.26-15.3-30.26-31.69a30.18,30.18,0,0,1,1.7-9.55l.41-1.23s0,0,0,0l-1.13-.72a34.82,34.82,0,0,1,0-59.53l1.13-.72s0,0,0-.05l-.41-1.24a30.07,30.07,0,0,1-1.7-9.54c0-17.66,15.09-32,33.65-32a21.61,21.61,0,0,1,2.6.23l1.18.15,2,.21a0,0,0,0,0,0,0V17.17a2.53,2.53,0,0,0,0-.46h0C59,9.21,65.6,3.19,73.56,3.55A13.82,13.82,0,0,1,86.8,17.2V18a1.81,1.81,0,0,0,1.85,1.77h0A1.81,1.81,0,0,0,90.51,18Z"/><path class="cls-1" d="M167.45,60s0,0,0,0a32.51,32.51,0,0,0,1.47-9.33C168.91,31,152.14,15,131.54,15a18.46,18.46,0,0,0-2.14.14,0,0,0,0,1,0,0c-.85-8.26-8-14.78-16.85-15.11A17.56,17.56,0,0,0,94.17,17.27V18A1.81,1.81,0,0,0,96,19.8h0A1.81,1.81,0,0,0,97.88,18v-.82A13.84,13.84,0,0,1,111.1,3.55c8-.38,14.59,5.66,14.63,13.15a3.89,3.89,0,0,0,0,.47V19.1a0,0,0,0,0,0,0l2-.21,1.18-.15a21.61,21.61,0,0,1,2.6-.23c18.55,0,33.65,14.38,33.65,32a30.07,30.07,0,0,1-1.7,9.54l-.42,1.24s0,0,0,.05l1.13.72A35.33,35.33,0,0,1,181,91.9c0,11.9-7.77,22.1-18.72,26.27a1.8,1.8,0,0,0-1.21,1.66h0a1.85,1.85,0,0,0,2.51,1.66c12.36-4.68,21.13-16.18,21.13-29.59A38.73,38.73,0,0,0,167.45,60Zm-6.4,75.58h0a1.83,1.83,0,0,0,2.3,1.72l1.46-.38s.05,0,.05,0c-1.82,14.65-14.25,26.46-29.93,28l-1.36.13a0,0,0,0,0,0,0l-.26,1.27a17.62,17.62,0,0,1-17.52,13.93c-9.86,0-17.88-7.63-17.88-17v-8.9A1.82,1.82,0,0,0,96,152.6h0a1.82,1.82,0,0,0-1.86,1.77v8.9c0,11.32,9.69,20.54,21.59,20.54,9.92,0,18.48-6.45,20.88-15.52l0,0c17.78-2.37,31.48-16.68,32.11-33.83l.1-2.54a0,0,0,0,0-.06,0l-2.51.85c-1.29.43-2.59.8-3.89,1.12A1.78,1.78,0,0,0,161.05,135.54Z"/><polygon class="cls-1" points="36.36 38.84 34.63 44.36 29.11 46.09 34.63 47.82 36.36 53.33 38.09 47.82 43.61 46.09 38.09 44.36 36.36 38.84"/><polygon class="cls-1" points="149.78 131.95 148.05 137.46 142.54 139.19 148.05 140.92 149.78 146.44 151.51 140.92 157.03 139.19 151.51 137.46 149.78 131.95"/><rect class="cls-1" x="42.66" y="130.04" width="100.15" height="2.11"/><polygon class="cls-1" points="148.96 105.3 161.07 105.26 154.98 94.74 148.96 105.3"/><polygon class="cls-1" points="148.9 85.44 161.01 85.4 154.92 74.87 148.9 85.44"/><polygon class="cls-1" points="23.6 105.3 35.7 105.26 29.62 94.74 23.6 105.3"/><polygon class="cls-1" points="23.54 85.44 35.64 85.4 29.56 74.87 23.54 85.44"/></svg>