<svg xmlns="http://www.w3.org/2000/svg" id="HANDSKETCHED_LAURELS" data-name="HANDSKETCHED LAURELS" viewBox="0 0 191.12 191.12"><defs><style>.cls-1{fill:#AFAFAF;}.cls-2{fill:none;stroke:#AFAFAF;stroke-miterlimit:10;stroke-width:2px;}</style></defs><path class="cls-1" d="M59.35,73.3c1-1,1.9-1.93,2.69-2.81a21.64,21.64,0,0,0,2-2.58,10.83,10.83,0,0,0,1.27-2.55,8.82,8.82,0,0,0-.58-6.87,6.62,6.62,0,0,0-3-2.66,12,12,0,0,0-5-.92,9.83,9.83,0,0,0-5,1.23,9,9,0,0,0-3.36,3.26,8.72,8.72,0,0,0-1.2,4.51h6.21a5.6,5.6,0,0,1,.4-2.15,3.53,3.53,0,0,1,1.11-1.51,2.67,2.67,0,0,1,1.68-.55,3,3,0,0,1,1.61.4,2.6,2.6,0,0,1,1,1.19,5,5,0,0,1,.34,1.94,4.41,4.41,0,0,1-.32,1.52,9.94,9.94,0,0,1-1,1.89A25.17,25.17,0,0,1,56.37,69l-8.61,9v4H66.44V77.29H55.89Z"/><path class="cls-1" d="M86,66.8a6.89,6.89,0,0,0-2.6-1.74,9.62,9.62,0,0,0-3.52-.6,7.29,7.29,0,0,0-2.35.36,9.22,9.22,0,0,0-1.49.61l.6-5.31h10.6V55.3H71.58L70,69l4.93,1.16A3.66,3.66,0,0,1,76,69.2a4.18,4.18,0,0,1,2.11-.46,4.52,4.52,0,0,1,1.74.3,3,3,0,0,1,1.19.85,3.72,3.72,0,0,1,.67,1.35A7,7,0,0,1,81.93,73a10,10,0,0,1-.15,1.77,5,5,0,0,1-.49,1.48,2.67,2.67,0,0,1-1,1,2.87,2.87,0,0,1-1.53.37,3.18,3.18,0,0,1-1.59-.39,2.93,2.93,0,0,1-1.09-1.12,3.71,3.71,0,0,1-.46-1.69H69.42a6.86,6.86,0,0,0,.77,3.32,7.59,7.59,0,0,0,2.13,2.52,10.25,10.25,0,0,0,3,1.59,11.11,11.11,0,0,0,3.48.55A10.49,10.49,0,0,0,83,81.7a8.12,8.12,0,0,0,2.89-2,8.42,8.42,0,0,0,1.71-2.89,9.93,9.93,0,0,0,.56-3.34,12.41,12.41,0,0,0-.54-3.82A7.49,7.49,0,0,0,86,66.8Z"/><polygon class="cls-1" points="114.24 55.3 106.28 55.3 100.5 63.7 98.26 67.11 98.26 55.3 91.8 55.3 91.8 82.08 98.26 82.08 98.26 75.01 100.9 72.12 106.61 82.08 114.24 82.08 105.2 67.13 114.24 55.3"/><polygon class="cls-1" points="48.81 85.42 46.75 85.42 46.75 98.68 48.81 98.68 49.95 98.68 55.87 98.68 55.87 96.22 49.95 96.22 49.95 93.06 54.96 93.06 54.96 90.68 49.95 90.68 49.95 87.89 55.9 87.89 55.9 85.42 49.95 85.42 48.81 85.42"/><path class="cls-1" d="M60.27,90.78a1.4,1.4,0,0,1,.58-.12,1.5,1.5,0,0,1,.73.15.86.86,0,0,1,.4.4,1.56,1.56,0,0,1,.12.64h3.07a2.83,2.83,0,0,0-.52-1.67,3.46,3.46,0,0,0-1.49-1.13,5.94,5.94,0,0,0-2.3-.41,5.71,5.71,0,0,0-1.72.25,4,4,0,0,0-1.28.69,3,3,0,0,0-.79,1,2.69,2.69,0,0,0-.27,1.19,2.34,2.34,0,0,0,.27,1.14,2.69,2.69,0,0,0,.74.87,4.92,4.92,0,0,0,1.11.62,8.88,8.88,0,0,0,1.35.41,8.52,8.52,0,0,1,1.18.32,1.52,1.52,0,0,1,.58.35.64.64,0,0,1,.17.44.87.87,0,0,1-.14.48,1,1,0,0,1-.43.32,1.74,1.74,0,0,1-.69.12,2.21,2.21,0,0,1-.81-.14,1.17,1.17,0,0,1-.55-.43,1.38,1.38,0,0,1-.22-.74H56.5a2.85,2.85,0,0,0,.5,1.56,3.7,3.7,0,0,0,1.47,1.27,5.08,5.08,0,0,0,2.38.51,6.58,6.58,0,0,0,1.79-.23A4,4,0,0,0,64,98a3,3,0,0,0,.87-1,2.72,2.72,0,0,0-.24-2.87,3.48,3.48,0,0,0-1.41-1,9.57,9.57,0,0,0-1.86-.52,6,6,0,0,1-.74-.19,2,2,0,0,1-.51-.24.84.84,0,0,1-.3-.29.69.69,0,0,1-.09-.36.81.81,0,0,1,.15-.49A1,1,0,0,1,60.27,90.78Z"/><path class="cls-1" d="M71.17,96.46a1.65,1.65,0,0,1-.6-.09.54.54,0,0,1-.31-.3,1.63,1.63,0,0,1-.09-.61V91h1.62V88.83H70.17V86.38H67.1v2.45H65.85V91H67.1v4.88a3.69,3.69,0,0,0,.36,1.74,2.27,2.27,0,0,0,1.06,1,4.1,4.1,0,0,0,1.68.31,5.25,5.25,0,0,0,.91-.07,5.17,5.17,0,0,0,.82-.2V96.4l-.33,0Z"/><path class="cls-1" d="M78.76,95.68a1.63,1.63,0,0,1-.42.52,1.8,1.8,0,0,1-1.08.29,1.44,1.44,0,0,1-.53-.08.94.94,0,0,1-.39-.23,1.22,1.22,0,0,1-.24-.4,1.84,1.84,0,0,1-.08-.56V88.83H73V95.2a5.13,5.13,0,0,0,.24,1.67A3.07,3.07,0,0,0,73.87,98a2.6,2.6,0,0,0,1,.64,4.09,4.09,0,0,0,1.34.21,3.42,3.42,0,0,0,1.54-.34,3.26,3.26,0,0,0,1.08-.91L79,98.68h2.88V88.83H78.76Z"/><path class="cls-1" d="M89.19,89.68a3.23,3.23,0,0,0-.74-.65A2.74,2.74,0,0,0,87,88.64a3.61,3.61,0,0,0-1.65.37,3.34,3.34,0,0,0-1.21,1,4.83,4.83,0,0,0-.72,1.59,7.73,7.73,0,0,0-.25,2.05v.19a7.25,7.25,0,0,0,.25,2,4.83,4.83,0,0,0,.72,1.59,3.33,3.33,0,0,0,1.19,1,3.64,3.64,0,0,0,1.65.37,2.75,2.75,0,0,0,1.48-.39,3.17,3.17,0,0,0,.92-.87l.15,1.08h2.77v-14H89.19Zm-.46,6.53a1.62,1.62,0,0,1-1,.28,1.34,1.34,0,0,1-.74-.2,1.45,1.45,0,0,1-.47-.56,2.88,2.88,0,0,1-.25-.83,6.67,6.67,0,0,1-.07-1v-.19a5.86,5.86,0,0,1,.08-1.06,2.83,2.83,0,0,1,.26-.85,1.39,1.39,0,0,1,.48-.56,1.3,1.3,0,0,1,.73-.2,1.67,1.67,0,0,1,.76.16,1.4,1.4,0,0,1,.53.47,1.46,1.46,0,0,1,.13.25v3.72A1.63,1.63,0,0,1,88.73,96.21Z"/><path class="cls-1" d="M95.7,84.79a1.76,1.76,0,0,0-1.22.42,1.44,1.44,0,0,0,0,2.15,2,2,0,0,0,2.45,0,1.44,1.44,0,0,0,0-2.15A1.77,1.77,0,0,0,95.7,84.79Z"/><rect class="cls-1" x="94.18" y="88.83" width="3.08" height="9.85"/><path class="cls-1" d="M107.35,96.19v-4a3.3,3.3,0,0,0-.54-2A3.26,3.26,0,0,0,105.35,89a5.21,5.21,0,0,0-2.1-.4,5.85,5.85,0,0,0-1.78.25,4.22,4.22,0,0,0-1.36.67,3.19,3.19,0,0,0-.88,1,2.73,2.73,0,0,0-.3,1.27H102a1.27,1.27,0,0,1,.13-.6.83.83,0,0,1,.38-.36,1.32,1.32,0,0,1,.59-.12,1.24,1.24,0,0,1,.68.17,1,1,0,0,1,.37.47,1.94,1.94,0,0,1,.12.72v.52h-.94a8.34,8.34,0,0,0-2.06.22,4.07,4.07,0,0,0-1.44.63,2.57,2.57,0,0,0-.84,1,3.17,3.17,0,0,0-.28,1.37,2.68,2.68,0,0,0,.45,1.54,3.11,3.11,0,0,0,1.22,1,3.86,3.86,0,0,0,1.67.37,3.18,3.18,0,0,0,1.19-.2,2.7,2.7,0,0,0,.84-.51,3.92,3.92,0,0,0,.34-.37,4,4,0,0,0,.28.9h3.08v-.16a3.08,3.08,0,0,1-.31-.87A6.79,6.79,0,0,1,107.35,96.19Zm-3.71.29a1.8,1.8,0,0,1-.87.19,1.07,1.07,0,0,1-.51-.12.82.82,0,0,1-.36-.33.86.86,0,0,1-.13-.48,1.9,1.9,0,0,1,.07-.54,1.4,1.4,0,0,1,.26-.46,1.13,1.13,0,0,1,.47-.32,2,2,0,0,1,.73-.12h1v1.56a.91.91,0,0,1-.07.14A1.53,1.53,0,0,1,103.64,96.48Z"/><path class="cls-1" d="M117,89.49a2.41,2.41,0,0,0-1-.65,3.85,3.85,0,0,0-1.25-.2,3.56,3.56,0,0,0-1.55.33,3.22,3.22,0,0,0-1.2.94.56.56,0,0,0,0,.08l-.11-1.16H109v9.85h3.06v-7h0a1.34,1.34,0,0,1,.52-.51,1.66,1.66,0,0,1,.8-.18,2.13,2.13,0,0,1,.76.12.86.86,0,0,1,.47.43,2,2,0,0,1,.17.91v6.21h3.08v-6.2a6.26,6.26,0,0,0-.22-1.81A3,3,0,0,0,117,89.49Z"/><path class="cls-1" d="M124.15,96.46a1.65,1.65,0,0,1-.6-.09.54.54,0,0,1-.31-.3,1.43,1.43,0,0,1-.1-.61V91h1.62V88.83h-1.62V86.38h-3.06v2.45h-1.25V91h1.25v4.88a3.69,3.69,0,0,0,.36,1.74,2.22,2.22,0,0,0,1.06,1,4.1,4.1,0,0,0,1.68.31,5.25,5.25,0,0,0,.91-.07,5.17,5.17,0,0,0,.82-.2V96.4l-.33,0Z"/><path class="cls-1" d="M133.71,90a3.91,3.91,0,0,0-1.41-1,5,5,0,0,0-1.87-.34,5.18,5.18,0,0,0-2.08.39,4.06,4.06,0,0,0-1.48,1.08,4.56,4.56,0,0,0-.89,1.62,6.4,6.4,0,0,0-.31,2v.35a4.92,4.92,0,0,0,.35,1.83,4.29,4.29,0,0,0,1,1.53,4.57,4.57,0,0,0,1.6,1,5.77,5.77,0,0,0,2.15.38,5.39,5.39,0,0,0,1.71-.25,4.86,4.86,0,0,0,1.31-.65,3.74,3.74,0,0,0,.85-.83l-1.39-1.66a2.34,2.34,0,0,1-1.05.78,3.32,3.32,0,0,1-1.23.24,2.45,2.45,0,0,1-.93-.17,2,2,0,0,1-.69-.49,2.11,2.11,0,0,1-.44-.76,2,2,0,0,1-.08-.35h6.08V93.47a6,6,0,0,0-.31-2A4,4,0,0,0,133.71,90ZM131.9,92.8h-3.08a.41.41,0,0,1,0-.11,2.79,2.79,0,0,1,.25-.86,1.29,1.29,0,0,1,.5-.6,1.39,1.39,0,0,1,.82-.22,1.71,1.71,0,0,1,.82.18,1.19,1.19,0,0,1,.51.53,1.68,1.68,0,0,1,.17.84Z"/><path class="cls-1" d="M142.32,93.2a9.77,9.77,0,0,0-1.86-.52,6.77,6.77,0,0,1-.75-.19,2.43,2.43,0,0,1-.51-.24.8.8,0,0,1-.29-.29.61.61,0,0,1-.1-.36.76.76,0,0,1,.16-.49,1,1,0,0,1,.41-.33,1.37,1.37,0,0,1,.58-.12,1.52,1.52,0,0,1,.73.15.84.84,0,0,1,.39.4,1.41,1.41,0,0,1,.13.64h3.07a2.77,2.77,0,0,0-.53-1.67,3.4,3.4,0,0,0-1.49-1.13,5.89,5.89,0,0,0-2.29-.41,5.66,5.66,0,0,0-1.72.25,3.91,3.91,0,0,0-1.28.69,3,3,0,0,0-.79,1,2.69,2.69,0,0,0-.27,1.19,2.34,2.34,0,0,0,.27,1.14,2.57,2.57,0,0,0,.74.87,4.64,4.64,0,0,0,1.1.62,9.37,9.37,0,0,0,1.36.41,8.32,8.32,0,0,1,1.17.32,1.5,1.5,0,0,1,.59.35.64.64,0,0,1,.17.44.81.81,0,0,1-.15.48,1.07,1.07,0,0,1-.42.32,1.79,1.79,0,0,1-.7.12,2.2,2.2,0,0,1-.8-.14,1.17,1.17,0,0,1-.55-.43,1.3,1.3,0,0,1-.22-.74h-2.86a2.83,2.83,0,0,0,.49,1.56,3.7,3.7,0,0,0,1.47,1.27,5.12,5.12,0,0,0,2.39.51,6.46,6.46,0,0,0,1.78-.23A4.18,4.18,0,0,0,143.1,98a3,3,0,0,0,.87-1,2.46,2.46,0,0,0,.3-1.2,2.4,2.4,0,0,0-.55-1.67A3.52,3.52,0,0,0,142.32,93.2Z"/><path class="cls-1" d="M78.67,111.74h3.75l.65,2.12h3l-4.19-11.34H79.25l-4.17,11.34H78Zm1.87-6,1.22,3.94H79.33Z"/><path class="cls-1" d="M93.33,106.45a2.78,2.78,0,0,0-1-.87,3.18,3.18,0,0,0-1.41-.3,2.44,2.44,0,0,0-1.3.33,2.58,2.58,0,0,0-.69.63l-.09-.81H86.37V117.1H89v-3.94a3,3,0,0,0,.6.52,2.4,2.4,0,0,0,1.3.34,3,3,0,0,0,1.42-.33,2.83,2.83,0,0,0,1-.9,4.19,4.19,0,0,0,.62-1.37,6.68,6.68,0,0,0,.21-1.71v-.16A6.83,6.83,0,0,0,94,107.8,4.19,4.19,0,0,0,93.33,106.45Zm-1.79,3.26a6.23,6.23,0,0,1-.06.89,2.6,2.6,0,0,1-.21.73,1.22,1.22,0,0,1-.4.49,1.1,1.1,0,0,1-.62.17,1.41,1.41,0,0,1-.89-.25,1.23,1.23,0,0,1-.37-.49V108c0-.06.05-.12.08-.17a1.16,1.16,0,0,1,.46-.39,1.78,1.78,0,0,1,.7-.13,1.1,1.1,0,0,1,.62.17,1.21,1.21,0,0,1,.4.46,2.77,2.77,0,0,1,.22.72,5,5,0,0,1,.07.9Z"/><path class="cls-1" d="M98,108.53a1.34,1.34,0,0,1,.25-.37,1.42,1.42,0,0,1,.54-.31,2.66,2.66,0,0,1,.79-.1l.45,0,.42,0,0-2.44a2.36,2.36,0,0,0-.33-.07l-.39,0a1.82,1.82,0,0,0-1,.28,2.34,2.34,0,0,0-.75.78,1.24,1.24,0,0,0-.1.2l-.09-1.11H95.35v8.43H98Z"/><path class="cls-1" d="M107.89,113.25a3.3,3.3,0,0,0,.73-.71l-1.19-1.42a2.18,2.18,0,0,1-.9.67,3,3,0,0,1-1.06.2,2,2,0,0,1-.79-.15,1.53,1.53,0,0,1-.59-.41,1.81,1.81,0,0,1-.37-.65,1.57,1.57,0,0,1-.08-.31h5.2v-1.06a5.14,5.14,0,0,0-.26-1.72,3.55,3.55,0,0,0-.75-1.3,3.21,3.21,0,0,0-1.21-.82,4,4,0,0,0-1.6-.29,4.49,4.49,0,0,0-1.78.33,3.46,3.46,0,0,0-1.26.92,4.06,4.06,0,0,0-.77,1.38,5.59,5.59,0,0,0-.26,1.72v.3a4.09,4.09,0,0,0,.3,1.56,3.66,3.66,0,0,0,.85,1.31,3.78,3.78,0,0,0,1.36.89,4.87,4.87,0,0,0,1.84.33,4.43,4.43,0,0,0,1.46-.22A4.1,4.1,0,0,0,107.89,113.25Zm-4-5.25a1.34,1.34,0,0,1,.43-.51,1.29,1.29,0,0,1,.71-.19,1.51,1.51,0,0,1,.7.16,1,1,0,0,1,.44.45,1.47,1.47,0,0,1,.14.72v.2h-2.64a.28.28,0,0,0,0-.09A2.67,2.67,0,0,1,103.86,108Z"/><path class="cls-1" d="M117.46,113.86v-5.3a5.65,5.65,0,0,0-.19-1.55,2.57,2.57,0,0,0-.55-1,2.05,2.05,0,0,0-.84-.55,3.29,3.29,0,0,0-1.07-.17,3,3,0,0,0-1.33.28,2.73,2.73,0,0,0-1,.8.25.25,0,0,0,0,.07l-.09-1h-2.47v8.43h2.63v-6h0a1.16,1.16,0,0,1,.45-.43,1.46,1.46,0,0,1,.69-.16,2,2,0,0,1,.64.1.82.82,0,0,1,.41.37,1.78,1.78,0,0,1,.14.78v5.31Z"/><path class="cls-1" d="M126.4,113.86v-12h-2.64v4.28a2.88,2.88,0,0,0-.64-.57,2.36,2.36,0,0,0-1.25-.33,3.06,3.06,0,0,0-1.42.31,2.9,2.9,0,0,0-1,.88,4.1,4.1,0,0,0-.62,1.37,6.77,6.77,0,0,0-.21,1.75v.16a6.54,6.54,0,0,0,.21,1.7,4,4,0,0,0,.62,1.35,2.84,2.84,0,0,0,1,.9,3,3,0,0,0,1.41.32,2.43,2.43,0,0,0,1.27-.33,3.08,3.08,0,0,0,.78-.75l.13.92Zm-3-2.11a1.39,1.39,0,0,1-.84.24,1.14,1.14,0,0,1-.63-.17,1.13,1.13,0,0,1-.4-.48,2.69,2.69,0,0,1-.22-.71,6,6,0,0,1-.06-.88v-.16a5.17,5.17,0,0,1,.07-.91,2.5,2.5,0,0,1,.23-.73,1.28,1.28,0,0,1,.41-.48,1.08,1.08,0,0,1,.62-.17,1.51,1.51,0,0,1,.65.14,1.15,1.15,0,0,1,.45.4,1.43,1.43,0,0,1,.12.21v3.19A1.29,1.29,0,0,1,123.36,111.75Z"/><path class="cls-1" d="M134.09,111.12a2.21,2.21,0,0,1-.89.67,3,3,0,0,1-1.06.2,2,2,0,0,1-.79-.15,1.53,1.53,0,0,1-.59-.41,1.83,1.83,0,0,1-.38-.65,2.82,2.82,0,0,1-.07-.31h5.2v-1.06a5.4,5.4,0,0,0-.26-1.72,3.72,3.72,0,0,0-.76-1.3,3.25,3.25,0,0,0-1.2-.82,4.07,4.07,0,0,0-1.6-.29,4.45,4.45,0,0,0-1.78.33,3.5,3.5,0,0,0-1.27.92,4,4,0,0,0-.76,1.38,5.59,5.59,0,0,0-.26,1.72v.3a4.28,4.28,0,0,0,.29,1.56,4,4,0,0,0,.85,1.31,3.83,3.83,0,0,0,1.37.89A4.83,4.83,0,0,0,132,114a4.48,4.48,0,0,0,1.46-.22,4.25,4.25,0,0,0,1.13-.55,3.24,3.24,0,0,0,.72-.71ZM130.53,108a1.17,1.17,0,0,1,1.13-.7,1.48,1.48,0,0,1,.7.16,1,1,0,0,1,.44.45,1.59,1.59,0,0,1,.15.72v.2h-2.64a.28.28,0,0,1,0-.09A2.67,2.67,0,0,1,130.53,108Z"/><path class="cls-1" d="M139.15,107.9h0a1.16,1.16,0,0,1,.45-.43,1.39,1.39,0,0,1,.68-.16,2,2,0,0,1,.65.1.8.8,0,0,1,.4.37,1.65,1.65,0,0,1,.14.78v5.31h2.64v-5.3a5.29,5.29,0,0,0-.19-1.55,2.56,2.56,0,0,0-.54-1,2.12,2.12,0,0,0-.84-.55,3.38,3.38,0,0,0-1.07-.17,3,3,0,0,0-1.33.28,2.85,2.85,0,0,0-1,.8.25.25,0,0,1,0,.07l-.09-1h-2.46v8.43h2.62Z"/><path class="cls-1" d="M80.5,128.46a2.84,2.84,0,0,1-.15,1,1.41,1.41,0,0,1-.45.62,1.16,1.16,0,0,1-.72.22,1.57,1.57,0,0,1-.72-.15.88.88,0,0,1-.44-.5,2.78,2.78,0,0,1-.15-1H74.78a4.14,4.14,0,0,0,.57,2.28,3.35,3.35,0,0,0,1.56,1.32,5.61,5.61,0,0,0,2.27.43,4.79,4.79,0,0,0,2.23-.51A3.94,3.94,0,0,0,83,130.68a4.08,4.08,0,0,0,.58-2.22v-8.75H80.5Z"/><path class="cls-1" d="M90.91,129.59a1.39,1.39,0,0,1-.4.5,1.76,1.76,0,0,1-1,.28,1.56,1.56,0,0,1-.51-.08.87.87,0,0,1-.38-.23,1,1,0,0,1-.22-.38,1.46,1.46,0,0,1-.08-.54V123h-3v6.13a4.79,4.79,0,0,0,.24,1.61,2.85,2.85,0,0,0,.65,1.1,2.52,2.52,0,0,0,1,.62,4.06,4.06,0,0,0,1.29.19,3.32,3.32,0,0,0,1.48-.32,3.14,3.14,0,0,0,1-.88l.09,1h2.76V123h-3Z"/><path class="cls-1" d="M101.36,123.83a2.74,2.74,0,0,0-.72-.64,3.06,3.06,0,0,0-1.6-.38,3.7,3.7,0,0,0-1.62.35,3.56,3.56,0,0,0-1.22,1,4.59,4.59,0,0,0-.77,1.53,6.75,6.75,0,0,0-.27,2v.18a6.44,6.44,0,0,0,.27,1.91,4.59,4.59,0,0,0,.77,1.53,3.45,3.45,0,0,0,1.22,1,3.5,3.5,0,0,0,1.61.36,2.77,2.77,0,0,0,1.47-.37,2.91,2.91,0,0,0,.68-.58v.39a2.14,2.14,0,0,1-.23,1,1.5,1.5,0,0,1-.66.66,2.29,2.29,0,0,1-1.07.23,2.72,2.72,0,0,1-1.28-.29,3.14,3.14,0,0,1-.9-.68l-1.24,1.73a3.54,3.54,0,0,0,1,.78,5.44,5.44,0,0,0,2.55.64,6.17,6.17,0,0,0,2.53-.48,3.75,3.75,0,0,0,1.69-1.39,4,4,0,0,0,.6-2.23V123h-2.68Zm-.55,6.26a1.7,1.7,0,0,1-1,.28,1.35,1.35,0,0,1-.73-.2,1.5,1.5,0,0,1-.52-.54,2.39,2.39,0,0,1-.31-.8,4.37,4.37,0,0,1-.1-1v-.18a4.64,4.64,0,0,1,.1-1,3,3,0,0,1,.32-.82,1.61,1.61,0,0,1,.53-.54,1.44,1.44,0,0,1,.73-.19,2,2,0,0,1,.81.15,1.42,1.42,0,0,1,.54.46l0,0v4A1.34,1.34,0,0,1,100.81,130.09Z"/><path class="cls-1" d="M113.73,130.08V126.2a3.18,3.18,0,0,0-.52-1.88,3.13,3.13,0,0,0-1.4-1.13,5.19,5.19,0,0,0-2-.38,5.72,5.72,0,0,0-1.72.24,3.92,3.92,0,0,0-1.31.65,2.88,2.88,0,0,0-.84,1,2.6,2.6,0,0,0-.3,1.23h3a1.22,1.22,0,0,1,.12-.58.74.74,0,0,1,.36-.34,1.26,1.26,0,0,1,.57-.12,1.22,1.22,0,0,1,.65.16.87.87,0,0,1,.36.46,1.78,1.78,0,0,1,.12.69v.5h-.91a8.23,8.23,0,0,0-2,.21,3.87,3.87,0,0,0-1.39.61,2.62,2.62,0,0,0-.81,1,3.11,3.11,0,0,0-.27,1.32,2.58,2.58,0,0,0,.44,1.48,2.85,2.85,0,0,0,1.17,1,3.62,3.62,0,0,0,1.61.36,3.27,3.27,0,0,0,1.15-.18,2.77,2.77,0,0,0,.8-.49,3.8,3.8,0,0,0,.33-.37,3.72,3.72,0,0,0,.27.87h3v-.15a3.19,3.19,0,0,1-.3-.84A7,7,0,0,1,113.73,130.08Zm-3.57.27a1.68,1.68,0,0,1-.84.19,1.14,1.14,0,0,1-.49-.11,1,1,0,0,1-.35-.32.94.94,0,0,1-.12-.47,1.81,1.81,0,0,1,.07-.52,1.14,1.14,0,0,1,.25-.44,1.07,1.07,0,0,1,.45-.31,1.79,1.79,0,0,1,.7-.12h.93v1.51s0,.09-.07.13A1.42,1.42,0,0,1,110.16,130.35Z"/><path class="cls-1" d="M123,123.63a2.31,2.31,0,0,0-1-.62,3.51,3.51,0,0,0-1.2-.2,3.66,3.66,0,0,0-1.5.31,3.25,3.25,0,0,0-1.15.91.56.56,0,0,0,0,.08l-.1-1.12h-2.77v9.48h3v-6.71h0a1.35,1.35,0,0,1,.5-.48,1.55,1.55,0,0,1,.78-.18,1.94,1.94,0,0,1,.72.12.84.84,0,0,1,.46.41,2,2,0,0,1,.16.87v6h3v-6a6.14,6.14,0,0,0-.22-1.74A2.9,2.9,0,0,0,123,123.63Z"/><path class="cls-1" d="M130.94,123.83a3.05,3.05,0,0,0-.71-.64,2.66,2.66,0,0,0-1.41-.38,3.52,3.52,0,0,0-1.6.35,3.28,3.28,0,0,0-1.16,1,4.68,4.68,0,0,0-.7,1.53,8,8,0,0,0-.23,2v.18a7.63,7.63,0,0,0,.23,1.91,4.68,4.68,0,0,0,.7,1.53,3.15,3.15,0,0,0,1.15,1,3.39,3.39,0,0,0,1.59.36,2.64,2.64,0,0,0,1.42-.37,3.19,3.19,0,0,0,.88-.84l.15,1h2.66V119h-3Zm-.45,6.26a1.5,1.5,0,0,1-.94.28,1.2,1.2,0,0,1-.7-.2,1.29,1.29,0,0,1-.46-.54,2.9,2.9,0,0,1-.24-.8,6.07,6.07,0,0,1-.07-1v-.18a6.4,6.4,0,0,1,.08-1,3,3,0,0,1,.25-.82,1.44,1.44,0,0,1,.46-.54,1.28,1.28,0,0,1,.7-.19,1.67,1.67,0,0,1,.73.15,1.43,1.43,0,0,1,.52.46,1.67,1.67,0,0,1,.12.23v3.59A1.41,1.41,0,0,1,130.49,130.09Z"/><path class="cls-1" d="M144.07,125.72a4.29,4.29,0,0,0-.88-1.53,3.91,3.91,0,0,0-1.43-1,5.07,5.07,0,0,0-2-.37,5,5,0,0,0-2,.37,4.08,4.08,0,0,0-1.43,1,4.43,4.43,0,0,0-.87,1.53,5.94,5.94,0,0,0-.3,1.92v.19a5.93,5.93,0,0,0,.3,1.91,4.43,4.43,0,0,0,.87,1.53,3.8,3.8,0,0,0,1.44,1,5.05,5.05,0,0,0,2,.36,5,5,0,0,0,2-.36,3.69,3.69,0,0,0,1.43-1,4.29,4.29,0,0,0,.88-1.53,5.93,5.93,0,0,0,.3-1.91v-.19A5.94,5.94,0,0,0,144.07,125.72Zm-2.66,2.11a6.24,6.24,0,0,1-.07,1,3,3,0,0,1-.27.81,1.35,1.35,0,0,1-.49.54,1.46,1.46,0,0,1-.78.2,1.49,1.49,0,0,1-.79-.2,1.38,1.38,0,0,1-.5-.54,2.66,2.66,0,0,1-.26-.81,6.2,6.2,0,0,1-.08-1v-.19a6.17,6.17,0,0,1,.08-1,2.85,2.85,0,0,1,.26-.81,1.51,1.51,0,0,1,.5-.56,1.42,1.42,0,0,1,.77-.2,1.47,1.47,0,0,1,.79.2,1.43,1.43,0,0,1,.5.56,3.21,3.21,0,0,1,.27.81,6.19,6.19,0,0,1,.07,1Z"/><path class="cls-1" d="M78.06,126.62V124.3a2.72,2.72,0,0,0-2.72-2.72H49.47a2.72,2.72,0,0,0-2.72,2.72v5.45a2.72,2.72,0,0,0,2.72,2.72H74c-.13-.16-.25-.34-.37-.52a6.22,6.22,0,0,1-.87-3.34v-2Zm-23.82-8.44h-2a1.35,1.35,0,0,0-1.36,1.35v.69H55.6v-.69A1.35,1.35,0,0,0,54.24,118.18Zm9.53-1.31V112a4.77,4.77,0,1,0-1.36,0v4.87a4.75,4.75,0,0,0-3.89,3.35h9.13A4.76,4.76,0,0,0,63.77,116.87Z"/><path class="cls-1" d="M129.62,55.82a.92.92,0,0,0-.46.11L115.63,62.7h0a1,1,0,0,0-.52.85,1,1,0,0,0,.52.86h0l13.52,6.76a.94.94,0,0,0,.47.12,1,1,0,0,0,.45-.11l13.52-6.77h0a1,1,0,0,0,.52-.86,1,1,0,0,0-.52-.85h0l-13.52-6.77A1,1,0,0,0,129.62,55.82Zm13.54,11-1.94,1v8.63a2,2,0,0,0-1,1.67c0,1.07,1.94,3.87,1.94,3.87s1.93-2.8,1.93-3.87a2,2,0,0,0-1-1.67Zm-22.25,2.41v4c0,2.68,3.9,4.84,8.71,4.84s8.7-2.16,8.7-4.84v-4l-7.38,3.7-.25.1a2.86,2.86,0,0,1-2.15,0,1.74,1.74,0,0,1-.25-.11Z"/><polygon class="cls-1" points="55.92 19.12 55.33 32.06 66.83 26.1 55.92 19.12"/><polygon class="cls-1" points="24.94 46.3 30.43 58.03 37.84 47.4 24.94 46.3"/><polygon class="cls-1" points="10.13 84.76 20.45 92.59 22.08 79.74 10.13 84.76"/><polygon class="cls-1" points="14.9 125.69 27.68 127.83 23.14 115.7 14.9 125.69"/><polygon class="cls-1" points="38.14 159.73 50.45 155.68 40.8 147.05 38.14 159.73"/><polygon class="cls-1" points="74.54 179.06 83.56 169.76 71 166.6 74.54 179.06"/><polygon class="cls-1" points="115.75 179.26 119.42 166.84 106.82 169.87 115.75 179.26"/><polygon class="cls-1" points="152.34 160.29 149.81 147.58 140.07 156.13 152.34 160.29"/><polygon class="cls-1" points="175.92 126.49 167.77 116.41 163.12 128.5 175.92 126.49"/><polygon class="cls-1" points="181.09 85.6 169.19 80.46 170.69 93.33 181.09 85.6"/><polygon class="cls-1" points="166.66 46.99 153.74 47.97 161.05 58.67 166.66 46.99"/><polygon class="cls-1" points="135.95 19.51 124.97 26.38 136.41 32.46 135.95 19.51"/><polygon class="cls-1" points="95.98 9.45 89.45 20.64 102.4 20.7 95.98 9.45"/><circle class="cls-2" cx="94.75" cy="95.77" r="91.24"/><circle class="cls-2" cx="94.75" cy="95.77" r="67.17"/></svg>