<svg xmlns="http://www.w3.org/2000/svg" xmlns:xlink="http://www.w3.org/1999/xlink" version="1.1" id="Capa_1" x="0px" y="0px" viewBox="0 0 700 700" style="enable-background:new 0 0 700 700;" xml:space="preserve">
<style type="text/css">
	.st0{fill:#AFAFAF;}
</style>
<g>
	<g>
		<g>
			<g id="laurels_00000049183632826582321810000014507265196781523341_">
				<g>
					<path class="st0" d="M583.3,493.6c3.1-6.5,6.8-14,10.3-21.7c3.7-8.1,7.9-15.9,10.7-24.7c4.3-13.3,8.3-26.9,11-41.2       c2-10.4,2.3-21.8,2.5-33.1c0.2-11.5-0.3-23.2-1.2-35c-0.6-7.2-2-14.7-4.1-22.1c-4.4-15.3-8.7-30.7-14.7-45.8       c-9.6-24-26.3-43.5-44.2-61.9c-12.9-13.3-26.5-25.2-41.2-34.9c-12.7-8.4-25.1-18.1-38-25.3c-11-6.1-22.5-9.2-33.8-13.9       c-14.8-6.1-28.7-6.7-42.6-7.5c-2.5-0.1-5.4-2.3-8.1-3.4c-9.1-3.5-17.6-4.5-25.3-2.1c-8.1,2.5-16.2,5.1-25.6,8.1       c18.4,12.7,34.9,18.6,46.9,8.2c13.1-11.4,30.3-7.3,47.8-1.7c14.8,4.7,29.9,11,44.7,18.5c11.5,5.9,22.8,14.2,33.9,22.2       c8.8,6.3,17.3,13.4,25.6,20.7c21.3,19,39.6,41,52.1,67.3c4.8,10,8.2,20.6,11.4,30.9c7.8,25.2,11.9,50.1,11,73.6       c-0.6,16.6-4.3,31.9-6.3,47.9c-2.4,19.3-9.5,35.4-16.3,51.7c-4.1,9.9-9,19.4-14.9,27.8C574.9,496.2,573,512,583.3,493.6z"/>
					<path class="st0" d="M568.4,505.7L568.4,505.7z"/>
					<path class="st0" d="M571.5,384.3c1,13.6,2,25.9,2.9,38.1c0.2,2.5,0.4,4.9,0.8,7.5c1.7,10.3,8.6,18.2,15.1,26.3       C602.5,450.7,599.5,411.7,571.5,384.3z"/>
					<path class="st0" d="M650.6,422.5c-5.4,1.5-9.3,3.1-13.6,3.7c-13.7,2-24.1,8.5-28.6,22.8c5,6.3,16.9,9.3,23.3,6       c7.2-3.7,11.3-10.7,14.7-18.3c0.9-2.1,2-4.1,2.7-6.3C649.9,428.1,650.1,425.6,650.6,422.5z"/>
					<path class="st0" d="M647.1,339.9c-16.7,0.3-33.6,25.9-23.5,47.4c11.1,2,18-2.7,19.6-13.9c0.9-6.5,1.4-13.3,2.1-19.9       C645.9,349.1,646.5,344.7,647.1,339.9z"/>
					<path class="st0" d="M622.8,312.5c4.5-2.9,7.3-6.5,7.3-13.3c0-13.4-3.7-26.9-9.6-40.6c-0.4-1-1.1-2.1-1.7-3.1       c-0.4-0.6-0.9-1.1-1.4-1.8C607.7,274.3,607.2,293.1,622.8,312.5z"/>
					<path class="st0" d="M570.1,322.5c3.2,6.8,6.7,13.1,9.2,19.5c5.7,14.7,15.3,27.9,29.4,36.1c3.2-13.4-4.2-25.8-13.5-37.7       C588,331.3,580,323.7,570.1,322.5z"/>
					<path class="st0" d="M575.1,225.2c4.7-7.5,3.7-22.6-2.4-32.2c-3.7-5.7-7.5-11.4-11.7-16.7c-4-5.2-8.5-9.9-12.9-15       C543.9,176.6,559.9,214.4,575.1,225.2z"/>
					<path class="st0" d="M469.8,114.8c1.1,5.3,2.2,10.3,3.2,15.2c1.9,9.1,6.6,16.8,14.2,22.4c7.6,5.6,15.5,10.6,23.7,16.2       c-0.3-5.7-2.1-11.5-5.9-16.4c-5.8-7.6-12.1-14.9-18.5-21.8C481.2,124.9,475.5,120.1,469.8,114.8z"/>
					<path class="st0" d="M457.4,169.7c1.3,0.9,2.4,2,3.6,2.5c10.7,5.2,21.4,11.2,32.3,12.5c5.6,0.6,10.1-1.3,14.3-6.9       C490.7,164.4,477.4,158.7,457.4,169.7z"/>
					<path class="st0" d="M603.8,310.9c-8.5-26-30.9-44.4-46.8-43.6c4.1,5.8,8.5,11.6,12.4,17.7c6.4,9.9,14.7,16.8,23.5,22.5       C596.2,309.7,600,309.8,603.8,310.9z"/>
					<path class="st0" d="M518,215.3c10.1,6.7,19.4,13.7,28.9,19.1c7.9,4.5,12.3,3.1,18.1-2.4c-4.2-9.4-11.1-14.9-18.9-16.4       c-8.5-1.6-16.8-1.4-25.1-1.8C520.1,213.8,519.4,214.6,518,215.3z"/>
					<path class="st0" d="M448.3,146.6c-6.5-4.2-11.9-5.1-16.9-3.5c-10.5,3.4-16.1,13.2-23.8,20.4c8.4,0,17.1,0.8,25.1-0.2       c3.9-0.5,7-3.8,9.8-6.7C444.9,154,446.2,150.3,448.3,146.6z"/>
					<path class="st0" d="M397.8,99.8c8.3,7.8,15.5,14.4,22.6,21.2c7.4,7.2,14.5,9.7,21.6,6.3c-2.3-10.9-10.5-18.3-18.6-23.5       C415,98.4,406.1,97.1,397.8,99.8z"/>
				</g>
			</g>
		</g>
	</g>
	<g>
		<g id="laurels_00000179618510030652232260000002657353742698834325_">
			<g>
				<path class="st0" d="M151.6,547.8l-1.4,5.3c-13.7-14-24.3-30.6-34.2-47.6c-9.3-16.1-16.9-32.4-22.2-49.2      c-4.5-14.5-10.5-29.1-13.9-43.5c-2.8-12.3-2.7-24.2-4-36.3c-1.8-15.9,1.4-29.4,4.5-43.1c0.5-2.4-0.7-5.8-1-8.7      c-0.8-9.7,0.5-18.2,4.9-24.9c4.7-7.1,9.4-14.2,14.8-22.4c7.2,21.2,8.3,38.7-5,47.4c-14.5,9.5-15.3,27.1-14.8,45.5      c0.4,15.6,2.4,31.8,5.5,48c2.5,12.7,7.4,25.8,12,38.7c3.6,10.1,8.1,20.3,12.9,30.3C120.5,509.5,134,530.1,151.6,547.8z"/>
				<path class="st0" d="M398.1,601.5L398.1,601.5z"/>
				<path class="st0" d="M126.6,530.8c-8.5,2.5-22.8-2.7-30.3-11.1c-4.5-5.1-8.9-10.4-12.9-15.8c-3.9-5.3-7.2-10.9-10.9-16.6      C88.4,487.5,120.4,513.2,126.6,530.8z"/>
				<path class="st0" d="M49.4,399.3c4.8,2.6,9.3,4.9,13.7,7.2c8.2,4.3,14.4,10.9,17.7,19.8s6,17.8,9.1,27.2      c-5.4-1.9-10.5-5.2-14.2-10.2c-5.7-7.7-11-15.7-15.9-23.8C55.9,413,52.9,406.2,49.4,399.3z"/>
				<path class="st0" d="M105.5,402.5c0.5,1.5,1.2,2.9,1.4,4.2c2.1,11.8,4.9,23.7,3.1,34.5c-0.9,5.6-4,9.4-10.6,11.8      C91.3,433,89.5,418.7,105.5,402.5z"/>
				<path class="st0" d="M132.8,473.2c3.7,11.5,7.8,22.4,10.4,33.1c2.1,8.8-0.4,12.7-7.3,16.7c-7.8-6.6-11.2-14.8-10.5-22.7      c0.8-8.6,3.3-16.5,5.2-24.6C130.7,474.8,131.7,474.3,132.8,473.2z"/>
				<path class="st0" d="M85.8,387.4c-2.2-7.4-1.6-12.9,1.3-17.2c6.2-9.1,17.1-11.9,26.1-17.3c-2.3,8.1-3.9,16.6-7.1,24.1      c-1.6,3.6-5.6,5.7-9.1,7.5C93.9,386.1,90,386.4,85.8,387.4z"/>
				<path class="st0" d="M54.8,325.9C60,336,64.3,344.8,69,353.5c4.9,9.1,5.4,16.6,0.1,22.6c-9.8-5.2-14.7-15.1-17.5-24.3      C48.7,342.1,49.9,333.1,54.8,325.9z"/>
			</g>
		</g>
	</g>
	<g>
		<path class="st0" d="M181.3,303.4c0-0.7,0.6-1.4,1.3-1.4h28.2c0.7,0,1.3,0.6,1.3,1.4c0,0.7-0.6,1.3-1.3,1.3h-28.2    C181.9,304.8,181.3,304.2,181.3,303.4z"/>
		<path class="st0" d="M181.3,296c0-0.8,0.6-1.3,1.3-1.3h28.2c0.7,0,1.3,0.6,1.3,1.3c0,0.7-0.6,1.3-1.3,1.3h-28.2    C181.9,297.4,181.3,296.8,181.3,296z"/>
		<path class="st0" d="M181.3,288.6c0-0.8,0.6-1.3,1.3-1.3h28.2c0.7,0,1.3,0.6,1.3,1.3c0,0.7-0.6,1.3-1.3,1.3h-28.2    C181.9,290,181.3,289.4,181.3,288.6z"/>
		<rect x="185.7" y="326.7" class="st0" width="31" height="65.4"/>
		<rect x="225" y="326.7" class="st0" width="31" height="65.4"/>
		<rect x="264.3" y="326.7" class="st0" width="31" height="50.2"/>
		<path class="st0" d="M161.1,472.7V267.3c0-6.6,5.3-11.9,11.9-11.9h134.9c6.5,0,11.9,5.3,11.9,11.9v205.4c0,6.4-5,11.6-11.3,11.9    V280.8c0-6.9-5.6-12.5-12.5-12.5H185c-6.9,0-12.5,5.6-12.5,12.5v203.8C166.2,484.3,161.1,479.1,161.1,472.7z"/>
		<g>
			<g>
				<g>
					<path class="st0" d="M212.1,303.4c0,0.7-0.6,1.3-1.3,1.3h-28.2c-0.7,0-1.3-0.6-1.3-1.3c0-0.7,0.6-1.4,1.3-1.4h28.2       C211.5,302.1,212.1,302.7,212.1,303.4z"/>
				</g>
				<g>
					<path class="st0" d="M212.1,296c0,0.7-0.6,1.3-1.3,1.3h-28.2c-0.7,0-1.3-0.6-1.3-1.3c0-0.8,0.6-1.3,1.3-1.3h28.2       C211.5,294.7,212.1,295.3,212.1,296z"/>
				</g>
				<g>
					<path class="st0" d="M212.1,288.6c0,0.7-0.6,1.3-1.3,1.3h-28.2c-0.7,0-1.3-0.6-1.3-1.3c0-0.8,0.6-1.3,1.3-1.3h28.2       C211.5,287.3,212.1,287.9,212.1,288.6z"/>
				</g>
				<g>
					<rect x="185.7" y="326.7" class="st0" width="31" height="65.4"/>
				</g>
				<g>
					<rect x="225" y="326.7" class="st0" width="31" height="65.4"/>
				</g>
				<g>
					<rect x="264.3" y="326.7" class="st0" width="31" height="50.2"/>
				</g>
				<g>
					<path class="st0" d="M299.9,285.6h-74.8c-0.7,0-1.3,0.6-1.3,1.3v5.9c0,0.7,0.6,1.4,1.3,1.4h74.8c0.7,0,1.4-0.6,1.4-1.4v-5.9       C301.2,286.1,300.6,285.6,299.9,285.6z M298.5,291.5h-72.1v-3.3h72.1V291.5z"/>
				</g>
				<g>
					<path class="st0" d="M319.8,267.3v205.4c0,6.4-5,11.6-11.3,11.9V280.8c0-6.9-5.6-12.5-12.5-12.5H185c-6.9,0-12.5,5.6-12.5,12.5       v203.8c-6.4-0.2-11.4-5.5-11.4-11.9V267.3c0-6.6,5.3-11.9,11.9-11.9h134.9C314.5,255.4,319.8,260.7,319.8,267.3z"/>
				</g>
			</g>
			<g>
				<g>
					<path class="st0" d="M212.1,303.4c0,0.7-0.6,1.3-1.3,1.3h-28.2c-0.7,0-1.3-0.6-1.3-1.3c0-0.7,0.6-1.4,1.3-1.4h28.2       C211.5,302.1,212.1,302.7,212.1,303.4z"/>
				</g>
				<g>
					<path class="st0" d="M212.1,296c0,0.7-0.6,1.3-1.3,1.3h-28.2c-0.7,0-1.3-0.6-1.3-1.3c0-0.8,0.6-1.3,1.3-1.3h28.2       C211.5,294.7,212.1,295.3,212.1,296z"/>
				</g>
				<g>
					<path class="st0" d="M212.1,288.6c0,0.7-0.6,1.3-1.3,1.3h-28.2c-0.7,0-1.3-0.6-1.3-1.3c0-0.8,0.6-1.3,1.3-1.3h28.2       C211.5,287.3,212.1,287.9,212.1,288.6z"/>
				</g>
				<g>
					<rect x="185.7" y="326.7" class="st0" width="31" height="65.4"/>
				</g>
				<g>
					<rect x="225" y="326.7" class="st0" width="31" height="65.4"/>
				</g>
				<g>
					<rect x="264.3" y="326.7" class="st0" width="31" height="50.2"/>
				</g>
				<g>
					<path class="st0" d="M299.9,285.6h-74.8c-0.7,0-1.3,0.6-1.3,1.3v5.9c0,0.7,0.6,1.4,1.3,1.4h74.8c0.7,0,1.4-0.6,1.4-1.4v-5.9       C301.2,286.1,300.6,285.6,299.9,285.6z M298.5,291.5h-72.1v-3.3h72.1V291.5z"/>
				</g>
			</g>
			<path class="st0" d="M293.5,478.8c-3.7-1.4-7.3-1.2-10.8,0.6c-0.2-0.7-0.4-1.3-0.7-1.9c-3.4-8.2-12.1-10.8-19.5-7.6     c-1.1-4-3.3-7.1-7-9.1c-3.8-2.1-7.7-2.1-11.8-0.6c0.1-0.9,0.2-1.6,0.3-2.3c1.3-9.3,2.8-18.6,4-27.9c0.7-5.5-1.6-9.8-6-12.9     s-9.3-3.3-14-0.8c-4.9,2.5-7.2,6.9-7.9,12.1c-2.3,16.4-4.5,32.8-6.8,49.2c-0.4,2.9-0.8,5.8-1.2,8.8c-0.1,1-0.3,1.9-0.5,3.1     c-0.4-0.5-0.7-0.7-0.9-1c-2.8-3.6-5.5-7.3-8.4-10.9c-0.1-0.2-0.3-0.4-0.4-0.6c-5.4-6.7-16-6.4-20.8,0.4l-0.1,0.1     c-2.5,3.6-2.9,8-1.3,12.2c0.5,1.4,1.3,2.7,2.3,4.1c7.7,10,15.5,19.9,23.2,29.9c5.9,7.7,9.1,16.4,8.2,26.3c-0.2,2.7-0.7,5.5-1,8.2     c-0.1,0.4-0.1,0.8-0.1,1.3c-0.5,5,1.7,8.7,6.2,10.1c1.1,0.3,2.2,0.5,3.4,0.7c0.8,0.2,1.8,0.3,2.8,0.4l35.4,5.3     c3.6,0.7,7.2,1.2,10.9,1.6c4.6,0.5,8.6-3.2,9.7-7.8c0.7-3.1,1.6-6.2,2.8-9.1c0.3-0.9,0.8-1.7,1.3-2.5c0.6-0.9,1.3-1.7,2.1-2.4     c4.4-3.8,6.7-8.5,7.6-14.1c1.4-9.6,3-19.1,4.5-28.6c0.3-2,0.6-4.1,1-6.1c0.7-4.6,1.5-9.3,2-13.9     C302.7,487,298.8,480.8,293.5,478.8z"/>
			<g>
				<g>
					<g>
						<path class="st0" d="M212.1,288.6c0,0.7-0.6,1.3-1.3,1.3h-28.2c-0.7,0-1.3-0.6-1.3-1.3c0-0.8,0.6-1.3,1.3-1.3h28.2        C211.5,287.3,212.1,287.9,212.1,288.6z"/>
					</g>
				</g>
				<g>
					<g>
						<path class="st0" d="M212.1,296c0,0.7-0.6,1.3-1.3,1.3h-28.2c-0.7,0-1.3-0.6-1.3-1.3c0-0.8,0.6-1.3,1.3-1.3h28.2        C211.5,294.7,212.1,295.3,212.1,296z"/>
					</g>
				</g>
				<g>
					<g>
						<path class="st0" d="M212.1,303.4c0,0.7-0.6,1.3-1.3,1.3h-28.2c-0.7,0-1.3-0.6-1.3-1.3c0-0.7,0.6-1.4,1.3-1.4h28.2        C211.5,302.1,212.1,302.7,212.1,303.4z"/>
					</g>
				</g>
			</g>
			<g>
				<g>
					<g>
						<rect x="185.7" y="326.7" class="st0" width="31" height="65.4"/>
					</g>
				</g>
				<g>
					<g>
						<rect x="225" y="326.7" class="st0" width="31" height="65.4"/>
					</g>
				</g>
				<g>
					<g>
						<rect x="264.3" y="326.7" class="st0" width="31" height="50.2"/>
					</g>
				</g>
			</g>
		</g>
	</g>
	<g>
		<g>
			<g>
				<path class="st0" d="M377.2,260.3v63.5c0,20.4,10.5,26.5,22,26.5c13.2,0,21.5-7.2,21.5-26.5v-63.5h23.1v62.3      c0,36.4-21.3,45.7-44.8,45.7c-24,0-44.8-9.7-44.8-45.3v-62.8L377.2,260.3L377.2,260.3z"/>
			</g>
			<g>
				<path class="st0" d="M491.1,260.3v106.5h-23V260.3H491.1z"/>
			</g>
		</g>
		<g>
			<g>
				<path class="st0" d="M377.2,402.4v63.5c0,20.4,10.5,26.5,22,26.5c13.2,0,21.5-7.2,21.5-26.5v-63.5h23.1v62.3      c0,36.4-21.3,45.7-44.8,45.7c-24,0-44.8-9.7-44.8-45.3v-62.8L377.2,402.4L377.2,402.4z"/>
			</g>
			<g>
				<path class="st0" d="M524.3,508.9l-22.8-37.5h-0.2L478,508.9h-24.8l35.4-53.7l-34.4-52.9h26.7l21.5,35.3h0.2l22.3-35.3h24.4      L515,453.2l35.9,55.8h-26.6V508.9z"/>
			</g>
		</g>
		<g>
			<g>
				<rect x="342.8" y="381" class="st0" width="208.1" height="3"/>
			</g>
		</g>
	</g>
</g>
<g>
	<path class="st0" d="M377.2,549.8h-17.2v16h19.3v4.8h-25.1v-44.4h24.1v4.8h-18.3v14h17.2V549.8z"/>
	<path class="st0" d="M389.2,538.7l4.5,6.9c1.3,1.8,2.2,3.4,3.3,5.1h0.1c1.1-1.8,2.1-3.5,3.2-5.2l4.4-6.8h6.3l-10.9,15.4l11.1,16.5   h-6.5l-4.7-7.2c-1.3-1.8-2.3-3.6-3.4-5.5h-0.1c-1.1,1.9-2.1,3.6-3.4,5.5l-4.6,7.2h-6.4l11.3-16.3l-10.8-15.6H389.2z"/>
	<path class="st0" d="M417,549.1c0-4.1-0.1-7.4-0.3-10.4h5.1l0.3,5.5h0.1c2.3-3.9,6.1-6.1,11.3-6.1c7.8,0,13.6,6.5,13.6,16.2   c0,11.5-7.1,17.1-14.6,17.1c-4.2,0-7.9-1.8-9.8-5h-0.1v17.3H417V549.1z M422.7,557.6c0,0.9,0.1,1.6,0.3,2.4c1.1,4,4.6,6.8,8.7,6.8   c6.1,0,9.7-5,9.7-12.3c0-6.3-3.4-11.8-9.5-11.8c-4,0-7.7,2.8-8.8,7.1c-0.2,0.7-0.4,1.6-0.4,2.3V557.6z"/>
	<path class="st0" d="M457.7,555.7c0.1,7.8,5.1,11.1,10.9,11.1c4.2,0,6.7-0.7,8.8-1.6l1.1,4.2c-2,0.9-5.6,2-10.7,2   c-9.8,0-15.7-6.5-15.7-16.2c0-9.6,5.7-17.1,15-17.1c10.5,0,13.2,9.1,13.2,15c0,1.2-0.1,2-0.2,2.7H457.7z M474.8,551.5   c0.1-3.6-1.5-9.4-8-9.4c-5.9,0-8.4,5.3-8.9,9.4H474.8z"/>
	<path class="st0" d="M487.6,548.6c0-3.8-0.1-7-0.3-10h5.1l0.3,6.3h0.2c1.5-4.3,5-7,8.9-7c0.6,0,1.1,0.1,1.6,0.1v5.5   c-0.6-0.1-1.2-0.1-2-0.1c-4.1,0-7,3-7.8,7.4c-0.1,0.8-0.2,1.8-0.2,2.7v17h-5.8V548.6z"/>
	<path class="st0" d="M517.7,531v7.7h8.3v4.4h-8.3v17.2c0,4,1.1,6.2,4.4,6.2c1.6,0,2.5-0.1,3.4-0.4l0.3,4.4   c-1.1,0.4-2.9,0.8-5.1,0.8c-2.7,0-4.9-0.9-6.3-2.4c-1.6-1.8-2.2-4.6-2.2-8.4v-17.4h-4.9v-4.4h4.9v-5.9L517.7,531z"/>
	<path class="st0" d="M531.7,564.7c1.8,1.1,4.8,2.2,7.7,2.2c4.2,0,6.1-2,6.1-4.7c0-2.8-1.6-4.2-5.9-5.8c-5.8-2.1-8.5-5.2-8.5-9   c0-5.1,4.2-9.4,11-9.4c3.2,0,6.1,0.9,7.8,2l-1.4,4.2c-1.3-0.8-3.6-1.9-6.5-1.9c-3.4,0-5.3,2-5.3,4.4c0,2.6,1.8,3.8,6,5.5   c5.5,2,8.4,4.8,8.4,9.6c0,5.7-4.4,9.6-11.9,9.6c-3.5,0-6.7-0.9-9-2.2L531.7,564.7z"/>
</g>
<text transform="matrix(1 0 0 1 -512.9722 711.3314)" class="st0" style="font-family:'MyriadPro-Regular'; font-size:65.9463px;">Experts</text>
</svg>