<svg xmlns="http://www.w3.org/2000/svg" xmlns:xlink="http://www.w3.org/1999/xlink" version="1.1" id="Capa_1" x="0px" y="0px" viewBox="0 0 700 430.2" style="enable-background:new 0 0 700 430.2;" xml:space="preserve">
<style type="text/css">
	.st0{fill:#AFAFAF;}
</style>
<text transform="matrix(0.8593 0 0 1 1185.3203 317.4556)" style="fill:#FFFFFF; font-family:'FearRobot'; font-size:30.2626px;">Atención al cliente</text>
<g>
	<g>
		<g>
			<path class="st0" d="M123.3,249.8c0,0-22.1-69.7,17.7-107c0,0,20.1-82,18.9-79.9C158.7,64.9,37.2,96.5,123.3,249.8z"/>
			<path class="st0" d="M75.4,111.8c-35.6,12.6-80.7,51,23.3,169.5c11.9,13.5,3.7,10.4,61.1,38.4c0,0-117.3-143.2-82.9-194.3     c3.3-5,15.1-18.4,15.1-18.4S79.5,110.4,75.4,111.8z"/>
			<path class="st0" d="M189.6,381c-29.1-25.6-76.9-69.7-109.8-98.7c0,0-48.8-41.4-48.3-65.2c0-1.3-13.9,75.1,7,110.7     s76.6,26.6,106.6,37.7c15.6,5.7,32.5,12.2,45.8,18.5C190.5,383.1,190,382,189.6,381z"/>
		</g>
		<g>
			<path class="st0" d="M576.7,249.8c0,0,22.1-69.7-17.7-107c0,0-20.1-82-18.8-79.9C541.5,64.9,662.8,96.5,576.7,249.8z"/>
			<path class="st0" d="M624.6,111.8c35.6,12.6,80.7,51-23.3,169.5c-11.9,13.5-3.7,10.4-61.1,38.4c0,0,117.3-143.2,82.9-194.3     c-3.3-5-15.1-18.4-15.1-18.4S620.5,110.4,624.6,111.8z"/>
			<path class="st0" d="M510.4,381c29.1-25.6,76.9-69.7,109.8-98.7c0,0,48.8-41.4,48.3-65.2c0-1.3,13.9,75.1-7,110.7     s-76.6,26.6-106.6,37.7c-15.6,5.7-32.5,12.2-45.8,18.5C509.5,383.1,510,382,510.4,381z"/>
		</g>
	</g>
	<g>
		<path class="st0" d="M429.4,78c-0.6-0.2-1.3-0.9-1.4-1.6c-2.6-11.1-10.5-17.8-21.8-18.5c-0.6,0-1.4-0.3-1.6-0.7    c-2.5-4.5-6.8-6.9-11.3-8.7c-7.6-3.3-15.7-4.8-23.9-5.7c-4-0.5-7.8-0.8-11.8-1.1h-15.3c-0.7,0.1-1.4,0.2-2.1,0.3    c-5,0.6-10.1,0.9-15,1.6c-6.7,0.9-13.1,2.5-19.3,5.3c-4.2,1.9-8.2,4.2-10.5,8.5c-0.3,0.4-1.1,0.7-1.8,0.7    c-10.7,0.6-19.2,7.6-21.4,18.2c-0.3,1.2-0.8,1.8-2,2.2c-7.1,2.1-11.6,8.2-11.7,15.5c-0.1,8.7-0.1,17.5,0,26.1    c0.1,7.2,4.6,13.4,11.5,15.4c1.4,0.4,1.9,1,2.2,2.4c2.2,9.9,10.1,17.1,20.1,17.8c7.5,0.5,15,0.2,22.6,0.3h2.4v0.1h65.5v-0.1h2.2    c6.5,0,13,0,19.5,0c1.9,0,3.8-0.1,5.5-0.5c9.6-2.2,15.5-8.2,18-17.7c0.2-0.8,0.8-1.7,1.4-1.9c8.1-2.7,12.2-8.4,12.2-16.9V94.4    C441.3,86.4,437,80.5,429.4,78z M271.5,128.8c-3.7-1.1-6.3-4.7-6.3-8.7c-0.1-8.8-0.1-17.7,0-26.5c0-4,2.5-7.4,6.3-8.8V128.8z     M305.2,56.4c5.5-3.3,11.8-4.9,18-6c18.9-3.4,37.9-3.4,56.7,0.8c4.5,1,8.9,2.8,13.4,4.4c1,0.4,2.1,1.1,3,1.8    c-0.1,0.2-0.1,0.3-0.2,0.4h-92.9C304.2,57.2,304.7,56.8,305.2,56.4z M404.5,149.3c-36.4,0-72.8,0-109.2,0    c-10.3,0-17.2-7-17.2-17.3c0-16.7,0-33.5,0-50.3c0-10.3,7-17.2,17.1-17.2c18.2,0,36.5,0,54.6,0c18.3,0,36.6,0,54.9,0    c8.2,0,14.6,4.8,16.5,12.4c0.4,1.5,0.5,3.2,0.5,4.7c0,16.7,0,33.5,0,50.3C421.9,142.2,414.9,149.3,404.5,149.3z M434.8,120.5    c-0.1,4-2.8,7.2-6.3,8.3V84.8c3.2,0.6,6.3,4.2,6.3,8.3C434.9,102.2,434.9,111.4,434.8,120.5z"/>
		<path class="st0" d="M350,70.9c18.1,0,36.2,0,54.3,0c7.1,0,11,3.9,11,11c0,16.6,0,33.1,0,49.7c0,7.1-4,11.1-11.1,11.1    c-36.1,0-72.2,0-108.3,0c-7.1,0-11.1-4-11.1-11.1c0-16.6,0.1-33-0.1-49.5c-0.1-6.8,4.5-11.3,11.3-11.2C314,71.1,332,70.9,350,70.9    z M350,77.5c-18.1,0-36.2,0-54.3,0c-3.6,0-4.5,0.9-4.5,4.5c0,16.6,0,33.1,0,49.7c0,3.4,1,4.4,4.4,4.4c36.2,0,72.3,0,108.5,0    c3.6,0,4.5-1,4.5-4.6c0-16.5,0-33,0-49.5c0-3.7-0.9-4.6-4.6-4.6C386.1,77.5,368.1,77.5,350,77.5z"/>
		<path class="st0" d="M334,105c-0.3,4.6-1.7,8.7-4.6,12.2c-6.2,7.6-17.2,7.7-23.7,0.3c-6.2-7.1-6.1-18.2,0.2-25.2    c8.1-8.9,22.1-5.9,26.5,5.8C333.2,100.4,333.4,102.8,334,105z M327.6,105c-0.8-2.2-1.3-4.6-2.5-6.7c-3.7-5.9-11.3-6-15.2-0.2    c-2.8,4.1-3,8.6-0.8,13.1c1.7,3.4,4.4,5.5,8.3,5.5c4,0,6.8-2.2,8.4-5.6C326.6,109.2,326.9,107.2,327.6,105z"/>
		<path class="st0" d="M366.4,103.5c0-3.4,1.7-7.9,5.3-11.6c6.5-6.6,16.7-6.2,22.8,0.8c6,7,6,17.6,0.1,24.5    c-6.4,7.6-17.4,7.6-23.8,0C367.9,114.1,366.4,109.8,366.4,103.5z M372.9,105.1c-0.2,0.1-0.4,0.1-0.5,0.2c0.8,2.3,1.3,4.8,2.6,6.8    c3.7,5.9,11.3,5.8,15.2,0.2c3.2-4.6,2.8-11.1-0.8-15.2c-3.7-4.1-9.5-4.3-13.4-0.4C373.9,99,372.9,101.8,372.9,105.1z"/>
		<path class="st0" d="M350,126.4c-2,0-4,0-5.9,0c-2.4,0-3.9-1.3-3.8-3.3c0-1.9,1.4-3.2,3.8-3.2c4,0,8.1,0,12.2,0    c2.2,0,3.6,1.2,3.6,3.1c0.1,2-1.3,3.4-3.6,3.4C354.1,126.5,352.1,126.4,350,126.4z"/>
	</g>
	<g>
		<g>
			<g>
				<path class="st0" d="M166.5,224.9v5.2c0,0.1-0.1,0.2-0.2,0.2h-6.6c-0.1,0-0.2-0.1-0.2-0.2c0,0,0-15.9,0-24.9      c0-1.7,0.6-3.3,1.6-4.5c1-1.2,2.4-1.9,3.9-1.9c6.5,0,17.3,0,23.8,0c1.4,0,2.8,0.7,3.9,1.9c1,1.2,1.6,2.8,1.6,4.5      c0,4,0,9.4,0,13.4c0,1.7-0.6,3.3-1.6,4.5c-1,1.2-2.4,1.8-3.9,1.8h-0.6l6.5,5.2h-8.9l-5.9-5.2H166.5L166.5,224.9z M187.4,217.6      v-11.6h-20.8v11.6H187.4L187.4,217.6z"/>
				<path class="st0" d="M202.5,203.7c1-1.1,2.4-1.8,3.8-1.8c6.5,0,17.3,0,23.8,0c1.4,0,2.7,0.7,3.8,1.8c1,1.1,1.5,2.7,1.5,4.3      c0,4.8,0,11.4,0,16.1c0,1.6-0.6,3.2-1.5,4.3c-1,1.1-2.4,1.8-3.8,1.8c-6.5,0-17.3,0-23.8,0c-1.4,0-2.7-0.7-3.8-1.8      c-1-1.1-1.5-2.7-1.5-4.3c0-4.8,0-11.4,0-16.1C201,206.4,201.6,204.8,202.5,203.7z M228.8,223.4v-14.6h-21.2v14.6H228.8z"/>
				<path class="st0" d="M249,201.9c0,0,14.4,0,22.5,0c1.4,0,2.7,0.7,3.8,1.8c0.9,1.1,1.5,2.7,1.5,4.3c0,4.8,0,11.4,0,16.1      c0,1.6-0.6,3.2-1.5,4.3c-0.9,1.1-2.4,1.8-3.8,1.8c-6.5,0-17.3,0-23.8,0c-1.4,0-2.7-0.7-3.8-1.8c-1-1.1-1.5-2.7-1.5-4.3      c0-9,0-24.9,0-24.9h6.6L249,201.9L249,201.9z M249,223.4h21.2v-14.6H249V223.4z"/>
				<path class="st0" d="M285.1,203.7c0.9-1.1,2.4-1.8,3.8-1.8c6.5,0,17.3,0,23.8,0c1.4,0,2.7,0.7,3.8,1.8c0.9,1.1,1.5,2.7,1.5,4.3      c0,4.8,0,11.4,0,16.1c0,1.6-0.6,3.2-1.5,4.3c-0.9,1.1-2.4,1.8-3.8,1.8c-6.5,0-17.3,0-23.8,0c-1.4,0-2.7-0.7-3.8-1.8      c-0.9-1.1-1.5-2.7-1.5-4.3c0-4.8,0-11.4,0-16.1C283.6,206.4,284.2,204.8,285.1,203.7z M311.3,223.4v-14.6h-21.2v14.6H311.3z"/>
				<path class="st0" d="M330.2,199c0-0.1,0.1-0.2,0.2-0.2h6.6c0.1,0,0.2,0.1,0.2,0.2v2.5h8.3c0.1,0,0.2,0.1,0.2,0.2v6.9      c0,0.1-0.1,0.2-0.2,0.2h-8.3V223h15.7c0.1,0,0.2,0.1,0.2,0.2v6.9c0,0.1-0.1,0.2-0.2,0.2c0,0-10.5,0-17.2,0      c-1.4,0-2.8-0.7-3.9-1.9c-1-1.2-1.6-2.8-1.6-4.5v-15H323c-0.1,0-0.2-0.1-0.2-0.2v-6.9c0-0.1,0.1-0.2,0.2-0.2h7.2V199L330.2,199z      "/>
				<path class="st0" d="M361.7,189.6c2.6,0,4.8,2.5,4.8,5.5s-2.2,5.5-4.8,5.5c-2.6,0-4.8-2.4-4.8-5.5S359,189.6,361.7,189.6z       M358.4,230.2h6.6v-28.4h-6.6V230.2z"/>
				<path class="st0" d="M406.6,208.8h-27.7v14.6h27.7v6.9c0,0-19.5,0-29.1,0c-1.4,0-2.7-0.7-3.8-1.8c-1-1.1-1.5-2.7-1.5-4.3      c0-4.8,0-11.4,0-16.1c0-1.6,0.6-3.2,1.5-4.3c0.9-1.1,2.4-1.8,3.8-1.8c9.6,0,29.1,0,29.1,0V208.8z"/>
				<path class="st0" d="M412.6,224.1c0-2,0-4.1,0-6.1c0-3.4,2.4-6.1,5.3-6.1c8.1,0,22.5,0,22.5,0s0-0.9,0-1.8      c0-0.8-0.5-1.3-1.1-1.3h-26.6v-6.9c0,0,19.5,0,29.1,0c1.4,0,2.7,0.7,3.8,1.8c0.9,1.1,1.5,2.7,1.5,4.3c0,4.8,0,11.4,0,16.1      c0,1.6-0.6,3.2-1.5,4.3c-0.9,1.1-2.4,1.8-3.8,1.8c-6.5,0-17.3,0-23.8,0c-1.4,0-2.7-0.7-3.8-1.8      C413.1,227.3,412.6,225.7,412.6,224.1z M419.2,223.4h21.2v-4.6h-21.2V223.4z"/>
			</g>
			<g>
				<path class="st0" d="M299.3,199.4c2.1-2,4-4.2,5.5-6.7c0.7-1,0.3-2.4-0.7-3.1c-0.4-0.3-0.9-0.6-1.5-0.6s-1.3,0.2-1.7,0.8      c-1.5,1.8-2.9,3.6-4.4,5.5c-0.2,0.3-0.5,0.6-0.7,0.8c-0.5,0.6-0.8,1-0.8,1.7c0,0.6,0.3,1.3,0.8,1.7c0.5,0.4,1,0.8,1.7,0.8      C298.2,200,298.9,199.9,299.3,199.4c1.5-1.8,2.9-3.6,4.4-5.5c0.2-0.3,0.5-0.6,0.7-0.8c-1.3-0.9-2.5-2-3.9-2.9      c-0.6,0.9-1.1,1.8-1.8,2.6c0.1-0.2,0.3-0.4,0.4-0.5c-0.9,1.3-2.1,2.4-3.3,3.6c-0.9,0.8-0.9,2.5,0,3.5      C296.9,200.2,298.3,200.3,299.3,199.4z"/>
			</g>
		</g>
		<path class="st0" d="M452.1,191.5v44.3h92v-44.3H452.1L452.1,191.5z M492.1,206.1h-25.4v5.4h20.9v6.9h-21v5.1H492v6.9    c0,0-17.7,0-26.8,0c-1.4,0-2.7-0.7-3.8-1.8c-0.9-1.1-1.5-2.7-1.5-4.3v-18.8c0-1.6,0.6-3.2,1.5-4.3c0.9-1.1,2.4-1.8,3.8-1.8    c9.1,0,26.8,0,26.8,0L492.1,206.1L492.1,206.1L492.1,206.1z M534.8,230c0,0.1-0.1,0.2-0.2,0.2H528c0,0,0,0-0.1,0l-21.8-21v20.9    c0,0.1-0.1,0.2-0.2,0.2h-6.6c-0.1,0-0.2-0.1-0.2-0.2v-31c0-0.1,0.1-0.2,0.2-0.2h6.6h0.1l21.9,21V199c0-0.1,0-0.2,0.2-0.2h6.6    c0.1,0,0.2,0.1,0.2,0.2L534.8,230L534.8,230z"/>
	</g>
	<g>
		<path class="st0" d="M262.1,349.9l3.7,12.1c0.2,0.7,0.8,1.1,1.5,1l12.7-0.3c1.5,0,2.2,1.9,0.9,2.8l-10.4,7.2    c-0.6,0.4-0.8,1.1-0.6,1.8l4.1,11.9c0.5,1.4-1.1,2.6-2.4,1.7l-10.1-7.6c-0.6-0.4-1.3-0.4-1.9,0l-10.1,7.6    c-1.2,0.9-2.8-0.3-2.4-1.7l4.1-11.9c0.2-0.7,0-1.4-0.6-1.8l-10.4-7.2c-1.2-0.8-0.6-2.8,0.9-2.8l12.7,0.3c0.7,0,1.3-0.5,1.5-1    l3.7-12.1C259.6,348.5,261.6,348.5,262.1,349.9z"/>
		<path class="st0" d="M305.9,349.9l3.7,12.1c0.2,0.7,0.8,1.1,1.5,1l12.7-0.3c1.5,0,2.2,1.9,0.9,2.8l-10.4,7.2    c-0.6,0.4-0.8,1.1-0.6,1.8l4.1,11.9c0.5,1.4-1.1,2.6-2.4,1.7l-10.1-7.6c-0.6-0.4-1.3-0.4-1.9,0l-10.1,7.6    c-1.2,0.9-2.8-0.3-2.4-1.7l4.1-11.9c0.2-0.7,0-1.4-0.6-1.8l-10.4-7.2c-1.2-0.8-0.6-2.8,0.9-2.8l12.7,0.3c0.7,0,1.3-0.5,1.5-1    l3.7-12.1C303.4,348.5,305.4,348.5,305.9,349.9z"/>
		<path class="st0" d="M350.2,349.9l3.7,12.1c0.2,0.7,0.8,1.1,1.5,1l12.7-0.3c1.5,0,2.2,1.9,0.9,2.8l-10.4,7.2    c-0.6,0.4-0.8,1.1-0.6,1.8l4.1,11.9c0.5,1.4-1.1,2.6-2.4,1.7l-10.1-7.6c-0.6-0.4-1.3-0.4-1.9,0l-10.1,7.6    c-1.2,0.9-2.8-0.3-2.4-1.7l4.1-11.9c0.2-0.7,0-1.4-0.6-1.8l-10.4-7.2c-1.2-0.8-0.6-2.8,0.9-2.8l12.7,0.3c0.7,0,1.3-0.5,1.5-1    l3.7-12.1C347.7,348.5,349.8,348.5,350.2,349.9z"/>
		<path class="st0" d="M395,349.9l3.7,12.1c0.2,0.7,0.8,1.1,1.5,1l12.7-0.3c1.5,0,2.2,1.9,0.9,2.8l-10.4,7.2    c-0.6,0.4-0.8,1.1-0.6,1.8l4.1,11.9c0.5,1.4-1.1,2.6-2.4,1.7l-10.1-7.6c-0.6-0.4-1.3-0.4-1.9,0l-10.1,7.6    c-1.2,0.9-2.8-0.3-2.4-1.7l4.1-11.9c0.2-0.7,0-1.4-0.6-1.8l-10.4-7.2c-1.2-0.8-0.6-2.8,0.9-2.8l12.7,0.3c0.7,0,1.3-0.5,1.5-1    l3.7-12.1C392.6,348.5,394.6,348.5,395,349.9z"/>
		<path class="st0" d="M440.9,349.9l3.7,12.1c0.2,0.7,0.8,1.1,1.5,1l12.7-0.3c1.5,0,2.2,1.9,0.9,2.8l-10.4,7.2    c-0.6,0.4-0.8,1.1-0.6,1.8l4.1,11.9c0.5,1.4-1.1,2.6-2.4,1.7l-10.1-7.6c-0.6-0.4-1.3-0.4-1.9,0l-10.1,7.6    c-1.2,0.9-2.8-0.3-2.4-1.7l4.1-11.9c0.2-0.7,0-1.4-0.6-1.8l-10.4-7.2c-1.2-0.8-0.6-2.8,0.9-2.8l12.6,0.4c0.7,0,1.3-0.5,1.5-1    l3.7-12.1C438.4,348.5,440.4,348.5,440.9,349.9z"/>
	</g>
	<g>
		<path class="st0" d="M219.3,284.1c0,0,0-6.9,0-9.8c0-0.3-0.2-0.7-0.3-1c-0.2-0.2-0.5-0.3-0.8-0.3c-4.1,0-17.4,0-21.3,0    c-0.3,0-0.7,0.2-0.8,0.3c-0.2,0.3-0.3,0.7-0.3,1v9.8h-7.4c0,0,0-17.9,0-27.9c0-1.8,0.7-3.6,1.8-4.9c1.1-1.3,2.6-2,4.3-2    c7.2,0,19.5,0,26.7,0c1.6,0,3.1,0.7,4.3,2c1.1,1.3,1.8,3.1,1.8,4.9v27.9H219.3z M219.3,265.2V257h-23.8v8.2H219.3z"/>
		<path class="st0" d="M240.5,249.1c0-0.2,0.2-0.2,0.2-0.2h7.4c0.2,0,0.2,0.2,0.2,0.2v2.8h9.3c0.2,0,0.2,0,0.2,0.2v7.7    c0,0.2-0.2,0.2-0.2,0.2h-9.3v15.9h17.7c0.2,0,0.2,0.2,0.2,0.2v7.7c0,0.2-0.2,0.2-0.2,0.2s-11.8,0-19.4,0c-1.6,0-3.1-0.8-4.3-2.1    c-1.1-1.3-1.8-3.1-1.8-5.1v-17.1h-8.2c-0.2,0-0.2-0.2-0.2-0.2v-7.7c0-0.2,0.2-0.2,0.2-0.2h8.2V249.1z"/>
		<path class="st0" d="M309.5,259.1c0,2.1,0,4.6,0,6.9c0,3.8-2.6,6.9-5.9,6.9c-9,0-25.3,0-25.3,0s0,1.1,0,2.1c0,0.8,0.5,1.5,1.1,1.5    h29.8v7.7c0,0-21.8,0-32.6,0c-1.6,0-3.1-0.7-4.3-2c-1.1-1.3-1.8-3.1-1.8-4.9c0-5.4,0-12.8,0-18c0-1.8,0.7-3.6,1.8-4.9    c1.1-1.3,2.6-2,4.3-2c7.2,0,19.5,0,26.7,0c1.6,0,3.1,0.7,4.3,2C309,255.7,309.5,257.3,309.5,259.1z M278.5,260.1v5.2h23.6v-5.2    H278.5z"/>
		<path class="st0" d="M356.2,284.1h-7.4V260h-23.8v24.1h-7.4v-31.8c0,0,21.8,0,32.6,0c1.6,0,3.1,0.7,4.3,2c1.1,1.3,1.8,3,1.8,4.9    C356.2,268.5,356.2,284.1,356.2,284.1z"/>
		<path class="st0" d="M402.6,260.1h-31.2v16.4h31.2v7.7c0,0-21.8,0-32.6,0c-1.6,0-3.1-0.7-4.3-2c-1.1-1.3-1.8-3.1-1.8-4.9    c0-5.4,0-12.8,0-18c0-1.8,0.7-3.6,1.8-4.9c1.1-1.3,2.6-2,4.3-2c10.8,0,32.6,0,32.6,0V260.1z"/>
		<path class="st0" d="M414.1,238.5c3,0,5.4,2.8,5.4,6.2c0,3.4-2.5,6.2-5.4,6.2s-5.4-2.8-5.4-6.2    C408.7,241.3,411.2,238.5,414.1,238.5z M410.3,284.1h7.4v-31.8h-7.4V284.1z"/>
		<path class="st0" d="M427.9,254.4c1.1-1.3,2.6-2,4.3-2c7.2,0,19.5,0,26.7,0c1.6,0,3.1,0.7,4.3,2c1.1,1.3,1.8,3,1.8,4.9    c0,5.4,0,12.8,0,18c0,1.8-0.7,3.6-1.8,4.9c-1.1,1.3-2.6,2-4.3,2c-7.2,0-19.5,0-26.7,0c-1.6,0-3.1-0.7-4.3-2    c-1.1-1.3-1.8-3.1-1.8-4.9c0-5.4,0-12.8,0-18C426.3,257.3,426.7,255.7,427.9,254.4z M457.3,276.4V260h-23.8v16.4H457.3z     M450.5,240.6l-4.9,9h-3.8l4.9-9H450.5z"/>
		<path class="st0" d="M511.5,284.1h-7.4V260h-23.8v24.1H473v-31.8c0,0,21.8,0,32.6,0c1.6,0,3.1,0.7,4.3,2c1.1,1.3,1.8,3,1.8,4.9    C511.5,268.5,511.5,284.1,511.5,284.1z"/>
		<path class="st0" d="M188.3,330.2c0-2.1,0-4.6,0-6.9c0-3.8,2.6-6.9,5.9-6.9c9,0,25.3,0,25.3,0s0-1.1,0-2.1c0-0.8-0.5-1.5-1.3-1.5    h-29.8v-7.7c0,0,21.8,0,32.6,0c1.6,0,3.1,0.7,4.3,2c1.1,1.3,1.8,3,1.8,4.9c0,5.4,0,12.8,0,18c0,1.8-0.7,3.6-1.8,4.9    c-1.1,1.3-2.6,2-4.3,2c-7.2,0-19.5,0-26.7,0c-1.6,0-3.1-0.7-4.3-2C189,333.6,188.3,332,188.3,330.2z M195.7,329.2h23.8v-5.2h-23.8    V329.2z"/>
		<path class="st0" d="M235.4,302.6h7.4v34.4h-7.4V302.6z"/>
		<path class="st0" d="M300.1,312.9H269v16.4h31.2v7.7c0,0-21.8,0-32.6,0c-1.6,0-3.1-0.7-4.3-2c-1.1-1.3-1.8-3.1-1.8-4.9    c0-5.4,0-12.8,0-18c0-1.8,0.7-3.6,1.8-4.9c1.1-1.3,2.6-2,4.3-2c10.8,0,32.6,0,32.6,0V312.9z"/>
		<path class="st0" d="M308,302.6h7.4v34.4H308V302.6z"/>
		<path class="st0" d="M328.4,291.3c3,0,5.4,2.8,5.4,6.2c0,3.4-2.5,6.2-5.4,6.2s-5.4-2.8-5.4-6.2    C322.9,294.1,325.4,291.3,328.4,291.3z M324.6,336.9h7.4v-31.8h-7.4V336.9z"/>
		<path class="st0" d="M378.9,312c0,2.1,0,4.6,0,6.9c0,3.8-2.6,6.9-5.9,6.9c-9,0-25.3,0-25.3,0s0,1.1,0,2.1c0,0.8,0.5,1.5,1.1,1.5    h29.8v7.7c0,0-21.8,0-32.6,0c-1.6,0-3.1-0.7-4.3-2c-1.1-1.3-1.8-3.1-1.8-4.9c0-5.4,0-12.8,0-18c0-1.8,0.7-3.6,1.8-4.9    c1.1-1.3,2.6-2,4.3-2c7.2,0,19.5,0,26.7,0c1.6,0,3.1,0.7,4.3,2C378.2,308.5,378.9,310.2,378.9,312z M347.7,312.9v5.2h23.8v-5.2    H347.7z"/>
		<path class="st0" d="M425.4,336.9h-7.4v-24.1h-23.8v24.1h-7.4v-31.8c0,0,21.8,0,32.6,0c1.6,0,3.1,0.7,4.3,2c1.1,1.3,1.8,3,1.8,4.9    C425.4,321.3,425.4,336.9,425.4,336.9z"/>
		<path class="st0" d="M439.7,302c0-0.2,0.2-0.2,0.2-0.2h7.4c0.2,0,0.2,0.2,0.2,0.2v2.8h9.3c0.2,0,0.2,0,0.2,0.2v7.7    c0,0.2-0.2,0.2-0.2,0.2h-9.3v15.9h17.7c0.2,0,0.2,0.2,0.2,0.2v7.7c0,0.2-0.2,0.2-0.2,0.2s-11.8,0-19.4,0c-1.6,0-3.1-0.8-4.3-2.1    c-1.1-1.3-1.8-3.1-1.8-5.1v-17.1h-8.2c-0.2,0-0.2-0.2-0.2-0.2v-7.7c0-0.2,0.2-0.2,0.2-0.2h8.2V302z"/>
		<path class="st0" d="M508.9,312c0,2.1,0,4.6,0,6.9c0,3.8-2.6,6.9-5.9,6.9c-9,0-25.3,0-25.3,0s0,1.1,0,2.1c0,0.8,0.5,1.5,1.1,1.5    h29.8v7.7c0,0-21.8,0-32.6,0c-1.6,0-3.1-0.7-4.3-2c-1.1-1.3-1.8-3.1-1.8-4.9c0-5.4,0-12.8,0-18c0-1.8,0.7-3.6,1.8-4.9    c1.1-1.3,2.6-2,4.3-2c7.2,0,19.5,0,26.7,0c1.6,0,3.1,0.7,4.3,2C508.3,308.5,508.9,310.2,508.9,312z M477.7,312.9v5.2h23.8v-5.2    H477.7z"/>
	</g>
</g>
</svg>