<svg xmlns="http://www.w3.org/2000/svg" xmlns:xlink="http://www.w3.org/1999/xlink" version="1.1" id="Capa_1" x="0px" y="0px" viewBox="0 0 700 430.2" style="enable-background:new 0 0 700 430.2;" xml:space="preserve">
<style type="text/css">
	.st0{fill-rule:evenodd;clip-rule:evenodd;fill:#AFAFAF;}
	.st1{fill:#AFAFAF;}
</style>
<g>
	<g>
		<g>
			<g>
				<g>
					<g>
						<g>
							<path class="st0" d="M91.6,135.1c12.8-9.6,26.2-24.1,48.9-33.9C123.9,101.3,97.8,113.6,91.6,135.1L91.6,135.1z"/>
						</g>
						<g>
							<g>
								<g>
									<path class="st0" d="M106.4,138.2c-2.7,1.4-4.7,2.3-6.9,3c-4.2,1.2-7.7,1.5-11.2,2.9c-2.9,1.1-5.2,2.8-7.2,4.8           c-1.9,1.8-3.2,3.5-4.3,5.3c-2.1,3.6-4,9.2-3.9,13.4c1.7-2,3.2-3.6,4.8-4.9c2.5-2.1,4.9-3.6,7.6-4.9c2-1,3.7-1.8,5.3-2.8           C97.5,150.7,101.6,144.6,106.4,138.2L106.4,138.2z"/>
								</g>
								<g>
									<path class="st0" d="M72.7,167.7c0-6.1,4.9-16.5,7.7-20.5c2-2.8,3.5-6,4.8-9.3c2.4-5.8,4.5-12.5,5.1-17.5           c-3.1,2.2-6.1,4.3-9.6,7.4c-7.2,6.9-11.3,14.2-10.3,24.3C70.8,155.9,71,164.3,72.7,167.7L72.7,167.7z"/>
								</g>
							</g>
							<g>
								<g>
									<path class="st0" d="M85.5,168.8c-2.4,1.9-4.2,3.2-6.2,4.2c-3.9,2-7.2,3-10.5,5.1c-2.6,1.7-4.6,3.8-6.2,6.1           c-1.5,2.2-2.5,4.1-3.2,6c-1.4,3.9-2.1,9.8-1.3,13.9c1.3-2.3,2.4-4.1,3.8-5.8c2-2.6,4.1-4.5,6.5-6.3           c1.7-1.3,3.2-2.5,4.6-3.8C79.2,182.8,82.1,176,85.5,168.8L85.5,168.8z"/>
								</g>
								<g>
									<path class="st0" d="M58.2,204.3c-1.2-6,1.6-17.2,3.6-21.6c1.4-3.1,2.2-6.5,2.9-10c1.2-6.2,2-13.1,1.6-18.2           c-2.6,2.7-5.2,5.4-7.9,9.1c-5.8,8.1-8.3,16.1-5.4,25.8C54.1,193.1,55.8,201.3,58.2,204.3L58.2,204.3z"/>
								</g>
							</g>
							<g>
								<g>
									<path class="st0" d="M72.9,199.4c-1.9,2.8-3.4,4.7-5.3,6.5c-3.5,3.3-6.7,5.5-9.5,8.7c-2.2,2.6-3.7,5.4-4.6,8.5           c-0.9,2.8-1.4,5.1-1.5,7.4c-0.2,4.6,0.9,11.1,3.1,15.2c0.6-2.9,1.3-5.2,2.2-7.4c1.4-3.4,3-6.1,4.9-8.8           c1.4-2,2.6-3.7,3.7-5.5C70.7,216.3,71.6,208.1,72.9,199.4L72.9,199.4z"/>
								</g>
								<g>
									<path class="st0" d="M55.1,245.9c-3.2-6-3.8-18.8-3.1-24.1c0.5-3.8,0.3-7.7-0.1-11.6c-0.6-7-2.1-14.6-4-19.8           c-1.9,3.7-3.8,7.4-5.6,12.2c-3.6,10.5-3.7,19.8,2.4,29.2C47.2,235.3,51.6,243.4,55.1,245.9L55.1,245.9z"/>
								</g>
							</g>
							<g>
								<g>
									<path class="st0" d="M67.1,235.4c-1.3,3.2-2.4,5.4-3.9,7.6c-2.8,4.1-5.6,6.9-7.7,10.7c-1.7,3.1-2.5,6.2-2.8,9.5           c-0.3,2.9-0.3,5.4,0.1,7.7c0.8,4.7,3.2,10.9,6.3,14.6c0-3,0.2-5.4,0.6-7.8c0.6-3.7,1.7-6.8,3.1-9.8c1-2.2,1.9-4.3,2.6-6.3           C68.5,252.8,67.6,244.5,67.1,235.4L67.1,235.4z"/>
								</g>
								<g>
									<path class="st0" d="M59.2,285.7c-4.5-5.3-7.8-18-8.2-23.5c-0.3-3.9-1.3-7.7-2.5-11.6c-2.1-6.8-5.2-14.1-8.3-19           c-1.1,4.1-2.2,8.2-3,13.4c-1.3,11.2,0.5,20.6,8.7,28.7C49,276.8,55.1,284,59.2,285.7L59.2,285.7z"/>
								</g>
							</g>
							<g>
								<g>
									<path class="st0" d="M67.7,269.8c-0.3,3.7-0.7,6.4-1.6,9.1c-1.6,5.1-3.5,8.9-4.5,13.5c-0.8,3.7-0.6,7.2,0.1,10.7           c0.7,3.1,1.5,5.6,2.6,7.9c2.3,4.6,6.8,10.2,11.2,13c-1-3.1-1.5-5.7-1.9-8.3c-0.5-4-0.4-7.5,0-11.1c0.3-2.6,0.5-5,0.6-7.3           C74.7,287.3,71.2,279,67.7,269.8L67.7,269.8z"/>
								</g>
								<g>
									<path class="st0" d="M75.8,324.2c-6.3-4-13.8-16-16-21.6c-1.6-3.9-3.9-7.5-6.3-11.1c-4.4-6.4-9.9-12.9-14.6-16.9           c0.2,4.6,0.4,9.2,1.2,14.8c2.3,12,7.1,21.1,18.2,26.8C62.4,318.3,71.1,323.7,75.8,324.2L75.8,324.2z"/>
								</g>
							</g>
							<g>
								<g>
									<path class="st0" d="M79.6,304.1c0.9,4.1,1.4,7.1,1.5,10.2c0.1,6-0.7,10.7-0.1,16c0.5,4.2,1.9,7.9,3.8,11.3           c1.8,3.1,3.5,5.5,5.5,7.6c4,4.1,10.8,8.6,16.4,10c-2.1-3-3.6-5.5-4.9-8.2c-1.9-4.1-3-7.8-3.8-11.9c-0.6-2.9-1.1-5.5-1.8-8           C93,320.4,86.4,312.7,79.6,304.1L79.6,304.1z"/>
								</g>
								<g>
									<path class="st0" d="M106.8,359.3c-8.1-2.1-20.2-12.3-24.5-17.5c-3-3.7-6.7-6.7-10.6-9.7c-6.9-5.3-14.9-10.4-21.4-13           c1.8,4.8,3.5,9.6,6.4,15.3c6.5,12,14.9,20,28.6,22.3C90.5,357.7,101.6,360.4,106.8,359.3L106.8,359.3z"/>
								</g>
							</g>
							<g>
								<g>
									<path class="st0" d="M104.4,336.3c2.5,3.8,4.1,6.5,5.3,9.7c2.3,5.9,3.3,10.9,5.8,16c2.1,4.1,4.9,7.3,8.2,10           c3,2.5,5.7,4.3,8.6,5.6c5.8,2.7,14.6,4.7,21,4.2c-3.3-2.2-5.8-4.2-8.2-6.4c-3.5-3.4-6.1-6.8-8.4-10.5           c-1.7-2.7-3.3-5.1-4.9-7.3C124.6,347.8,114.8,342.5,104.4,336.3L104.4,336.3z"/>
								</g>
								<g>
									<path class="st0" d="M153.6,381.9c-9.4,0.7-25.9-5.2-32.3-8.8c-4.5-2.6-9.6-4.3-14.8-5.9c-9.2-2.8-19.6-5-27.4-5.4           c3.7,4.2,7.3,8.4,12.4,13c11.4,9.7,23.1,14.7,38.4,12.2C135.8,386,148.6,384.8,153.6,381.9L153.6,381.9z"/>
								</g>
							</g>
						</g>
					</g>
					<g>
						<g>
							<path class="st0" d="M608.4,135.1c-12.8-9.6-26.2-24.1-48.9-33.9C576.1,101.3,602.2,113.6,608.4,135.1L608.4,135.1z"/>
						</g>
						<g>
							<g>
								<g>
									<path class="st0" d="M593.6,138.2c2.7,1.4,4.7,2.3,6.9,3c4.2,1.2,7.6,1.5,11.2,2.9c2.9,1.1,5.2,2.8,7.2,4.8           c1.9,1.8,3.2,3.5,4.3,5.3c2.1,3.6,4,9.2,3.9,13.4c-1.7-2-3.2-3.6-4.8-4.9c-2.5-2.1-4.9-3.6-7.6-4.9c-2-1-3.7-1.8-5.3-2.8           C602.5,150.7,598.4,144.6,593.6,138.2L593.6,138.2z"/>
								</g>
								<g>
									<path class="st0" d="M627.3,167.7c0-6.1-4.9-16.5-7.7-20.5c-2-2.8-3.5-6-4.8-9.3c-2.4-5.8-4.5-12.5-5.1-17.5           c3.1,2.2,6.1,4.3,9.6,7.4c7.2,6.9,11.3,14.2,10.3,24.3C629.2,155.9,629.1,164.3,627.3,167.7L627.3,167.7z"/>
								</g>
							</g>
							<g>
								<g>
									<path class="st0" d="M614.5,168.8c2.4,1.9,4.1,3.2,6.2,4.2c3.9,2,7.2,3,10.5,5.1c2.6,1.7,4.6,3.8,6.2,6.1           c1.5,2.2,2.5,4.1,3.2,6c1.4,3.9,2.1,9.8,1.3,13.9c-1.3-2.3-2.4-4.1-3.8-5.8c-2-2.6-4.1-4.5-6.5-6.3           c-1.7-1.3-3.2-2.5-4.6-3.8C620.8,182.8,617.9,176,614.5,168.8L614.5,168.8z"/>
								</g>
								<g>
									<path class="st0" d="M641.8,204.3c1.2-6-1.6-17.2-3.6-21.6c-1.4-3.1-2.2-6.5-2.9-10c-1.2-6.2-2-13.1-1.6-18.2           c2.6,2.7,5.2,5.4,7.9,9.1c5.8,8.1,8.3,16.1,5.4,25.8C646,193.1,644.2,201.3,641.8,204.3L641.8,204.3z"/>
								</g>
							</g>
							<g>
								<g>
									<path class="st0" d="M627.1,199.4c1.9,2.8,3.4,4.7,5.3,6.5c3.5,3.3,6.7,5.5,9.5,8.7c2.2,2.6,3.7,5.4,4.6,8.5           c0.9,2.8,1.4,5.1,1.5,7.4c0.2,4.6-0.9,11.1-3.1,15.2c-0.6-2.9-1.3-5.2-2.2-7.4c-1.4-3.4-3-6.1-4.9-8.8           c-1.4-2-2.6-3.7-3.7-5.5C629.3,216.3,628.4,208.1,627.1,199.4L627.1,199.4z"/>
								</g>
								<g>
									<path class="st0" d="M644.9,245.9c3.2-6,3.8-18.8,3.1-24.1c-0.5-3.8-0.3-7.7,0.1-11.6c0.6-7,2.1-14.6,4-19.8           c1.9,3.7,3.8,7.4,5.6,12.2c3.5,10.5,3.7,19.8-2.4,29.2C652.8,235.3,648.4,243.4,644.9,245.9L644.9,245.9z"/>
								</g>
							</g>
							<g>
								<g>
									<path class="st0" d="M632.9,235.4c1.3,3.2,2.4,5.4,3.9,7.6c2.8,4.1,5.6,6.9,7.7,10.7c1.7,3.1,2.5,6.2,2.8,9.5           c0.3,2.9,0.3,5.4-0.1,7.7c-0.8,4.7-3.2,10.9-6.3,14.6c0-3-0.2-5.4-0.6-7.8c-0.6-3.7-1.7-6.8-3.1-9.8           c-1-2.2-1.9-4.3-2.6-6.3C631.5,252.8,632.4,244.5,632.9,235.4L632.9,235.4z"/>
								</g>
								<g>
									<path class="st0" d="M640.8,285.7c4.5-5.3,7.8-18,8.2-23.5c0.3-3.9,1.3-7.7,2.5-11.6c2.1-6.8,5.2-14.1,8.3-19           c1.1,4.1,2.2,8.2,3,13.4c1.3,11.2-0.5,20.6-8.7,28.7C651.1,276.8,644.9,284,640.8,285.7L640.8,285.7z"/>
								</g>
							</g>
							<g>
								<g>
									<path class="st0" d="M632.3,269.8c0.3,3.7,0.7,6.4,1.6,9.1c1.6,5.1,3.5,8.9,4.5,13.5c0.8,3.7,0.6,7.2-0.1,10.7           c-0.7,3.1-1.5,5.6-2.6,7.9c-2.3,4.6-6.8,10.2-11.2,13c1-3.1,1.5-5.7,1.9-8.3c0.5-4,0.4-7.5,0-11.1c-0.3-2.6-0.5-5-0.6-7.3           C625.3,287.3,628.8,279,632.3,269.8L632.3,269.8z"/>
								</g>
								<g>
									<path class="st0" d="M624.3,324.2c6.3-4,13.8-16,16-21.6c1.6-3.9,3.9-7.5,6.3-11.1c4.4-6.4,9.9-12.9,14.6-16.9           c-0.2,4.6-0.4,9.2-1.2,14.8c-2.3,12-7.2,21.1-18.2,26.8C637.6,318.3,629,323.7,624.3,324.2L624.3,324.2z"/>
								</g>
							</g>
							<g>
								<g>
									<path class="st0" d="M620.4,304.1c-0.9,4.1-1.4,7.1-1.5,10.2c-0.1,6,0.7,10.7,0.1,16c-0.5,4.2-1.9,7.9-3.8,11.3           c-1.8,3.1-3.5,5.5-5.5,7.6c-4,4.1-10.8,8.6-16.4,10c2.1-3,3.6-5.5,4.9-8.2c1.9-4.1,3-7.8,3.8-11.9c0.6-2.9,1.1-5.5,1.8-8           C607,320.4,613.6,312.7,620.4,304.1L620.4,304.1z"/>
								</g>
								<g>
									<path class="st0" d="M593.2,359.3c8.1-2.1,20.2-12.3,24.5-17.5c3-3.7,6.7-6.7,10.6-9.7c6.9-5.3,14.9-10.4,21.4-13           c-1.8,4.8-3.5,9.6-6.4,15.3c-6.5,12-14.9,20-28.6,22.3C609.5,357.7,598.4,360.4,593.2,359.3L593.2,359.3z"/>
								</g>
							</g>
							<g>
								<g>
									<path class="st0" d="M595.6,336.3c-2.5,3.8-4.1,6.5-5.3,9.7c-2.3,5.9-3.2,10.9-5.8,16c-2.1,4.1-4.9,7.3-8.2,10           c-3,2.5-5.7,4.3-8.6,5.6c-5.8,2.7-14.6,4.7-21,4.2c3.3-2.2,5.8-4.2,8.2-6.4c3.5-3.4,6.1-6.8,8.4-10.5           c1.7-2.7,3.3-5.1,4.9-7.3C575.4,347.8,585.2,342.5,595.6,336.3L595.6,336.3z"/>
								</g>
								<g>
									<path class="st0" d="M546.4,381.9c9.4,0.7,25.9-5.2,32.3-8.8c4.5-2.6,9.6-4.3,14.8-5.9c9.2-2.8,19.6-5,27.4-5.4           c-3.7,4.2-7.3,8.4-12.4,13c-11.4,9.7-23.1,14.7-38.4,12.2C564.2,386,551.4,384.8,546.4,381.9L546.4,381.9z"/>
								</g>
							</g>
						</g>
					</g>
				</g>
			</g>
			<g>
				<g>
					<g>
						<g>
							<path class="st1" d="M122.3,227.8V184h9.5v43.9L122.3,227.8L122.3,227.8z"/>
						</g>
						<g>
							<path class="st1" d="M141.2,227.8V184h10.3l11.5,17.2c0.9,1.4,2,3,3.2,4.9c1.2,1.9,2.2,3.4,3,4.6l1.2,1.9V184h9.5v43.9h-10         l-11-16.4c-1.2-1.8-2.5-3.7-3.9-5.8c-1.4-2.1-2.5-3.8-3.4-5l-1.1-1.8v29L141.2,227.8L141.2,227.8L141.2,227.8z"/>
						</g>
						<g>
							<path class="st1" d="M201,227.8v-35.7h-14.9V184h39.3v8.1h-14.9v35.7H201z"/>
						</g>
						<g>
							<path class="st1" d="M231.5,227.8V184h34.6v8.1h-25.1v8.9h23.8v8.1h-23.8v10.6h26v8.1L231.5,227.8L231.5,227.8z"/>
						</g>
						<g>
							<path class="st1" d="M273.7,227.8V184h9.5v35.7h25.3v8.1L273.7,227.8L273.7,227.8z"/>
						</g>
						<g>
							<path class="st1" d="M315.3,227.8V184h9.5v43.9L315.3,227.8L315.3,227.8z"/>
						</g>
						<g>
							<path class="st1" d="M332.2,205.9c0-6.3,2.2-11.7,6.6-16c4.4-4.4,9.9-6.6,16.6-6.6c5.6,0,10.5,1.7,14.8,4.9l-5.6,6.5         c-2.5-1.9-5.6-2.8-9.2-2.8c-3.8,0-7,1.4-9.6,4.1c-2.5,2.8-3.8,6-3.8,9.9c0,3.9,1.3,7.2,3.8,9.9c2.5,2.7,5.7,4.1,9.6,4.1         c3.9,0,7.1-1.4,9.7-4.3v-6.5h-7v-7.9h16.1v18c-1.9,2.9-4.6,5.1-7.9,6.8c-3.3,1.6-7,2.4-11,2.4c-6.7,0-12.2-2.2-16.6-6.5         C334.4,217.6,332.2,212.3,332.2,205.9z"/>
						</g>
						<g>
							<path class="st1" d="M383.1,227.8V184h34.6v8.1h-25.1v8.9h23.8v8.1h-23.8v10.6h26v8.1L383.1,227.8L383.1,227.8z"/>
						</g>
						<g>
							<path class="st1" d="M425.3,227.8V184h10.3l11.5,17.2c0.9,1.4,2,3,3.2,4.9c1.2,1.9,2.2,3.4,3,4.6l1.2,1.9V184h9.5v43.9h-10         l-11-16.4c-1.2-1.8-2.5-3.7-3.9-5.8c-1.4-2.1-2.5-3.8-3.4-5l-1.1-1.8v29L425.3,227.8L425.3,227.8z"/>
						</g>
						<g>
							<path class="st1" d="M471.6,205.9c0-6.3,2.2-11.7,6.6-16c4.4-4.4,9.9-6.6,16.6-6.6c5.6,0,10.4,1.6,14.5,4.7l-5.5,6.4         c-2.3-1.7-5.1-2.6-8.3-2.6c-4.2,0-7.5,1.4-10.1,4.1c-2.6,2.7-3.9,6-3.9,9.9s1.3,7.2,3.8,9.9c2.5,2.8,5.7,4.1,9.6,4.1         c3.9,0,7.2-1.2,9.8-3.5l5.8,6.5c-4.2,3.7-9.5,5.6-15.6,5.6c-6.7,0-12.2-2.2-16.6-6.6C473.8,217.6,471.6,212.3,471.6,205.9z"/>
						</g>
						<g>
							<path class="st1" d="M516.2,227.8V184h9.5v43.9L516.2,227.8L516.2,227.8z"/>
						</g>
						<g>
							<path class="st1" d="M530.7,227.8l19-43.9h9.5l18.5,43.9h-9.1l-2.9-7h-22.2l-3,7L530.7,227.8L530.7,227.8z M546.7,213.4h15.9         l-3.4-8.2l-4.7-11.2c-1.5,4.5-3,8.3-4.3,11.4L546.7,213.4z"/>
						</g>
					</g>
					<g>
						<g>
							<g>
								<path class="st1" d="M166.1,291.6l19-43.9h9.5l18.5,43.9H204l-2.9-7h-22.2l-3,7H166.1z M182.1,277.2H198l-3.4-8.2l-4.7-11.2          c-1.5,4.5-3,8.3-4.3,11.4L182.1,277.2z"/>
							</g>
							<g>
								<path class="st1" d="M218.8,291.6v-43.9h18.8c6.2,0,11.1,1.6,14.5,4.8c3.4,3.2,5.1,7.2,5.1,12.1c0,3-0.7,5.7-2.2,8.2          c-1.4,2.5-3.5,4.5-6.1,6l9.1,12.7h-11.6l-6.8-10.1c-1.5,0.1-3.6,0.1-6.4,0.1h-5.1v10H218.8z M228.2,273.5h9.7          c2.8,0,5.1-0.8,6.8-2.5c1.7-1.7,2.5-3.8,2.5-6.3s-0.8-4.6-2.5-6.3c-1.7-1.7-3.9-2.5-6.8-2.5h-9.7L228.2,273.5L228.2,273.5z"/>
							</g>
							<g>
								<path class="st1" d="M276,291.6v-35.7h-14.9v-8.1h39.3v8.1h-14.9v35.7H276z"/>
							</g>
							<g>
								<path class="st1" d="M306.4,291.6v-43.9h9.5v43.9H306.4z"/>
							</g>
							<g>
								<path class="st1" d="M325.4,291.6v-43.9h32.8v8.1h-23.3v8.9h19.9v8.1h-19.9v18.8L325.4,291.6L325.4,291.6z"/>
							</g>
							<g>
								<path class="st1" d="M363.6,291.6v-43.9h9.5v43.9H363.6z"/>
							</g>
							<g>
								<path class="st1" d="M380.5,269.7c0-6.3,2.2-11.7,6.6-16c4.4-4.4,9.9-6.6,16.6-6.6c5.6,0,10.4,1.6,14.5,4.7l-5.5,6.4          c-2.3-1.7-5.1-2.6-8.3-2.6c-4.2,0-7.5,1.4-10.1,4.1c-2.6,2.7-3.9,6-3.9,9.9s1.3,7.2,3.8,9.9c2.5,2.8,5.7,4.1,9.6,4.1          c3.9,0,7.2-1.2,9.8-3.5l5.8,6.5c-4.2,3.7-9.5,5.6-15.6,5.6c-6.7,0-12.2-2.2-16.6-6.6C382.7,281.4,380.5,276.1,380.5,269.7z"/>
							</g>
							<g>
								<path class="st1" d="M425.1,291.6v-43.9h9.5v43.9H425.1z"/>
							</g>
							<g>
								<path class="st1" d="M439.6,291.6l19-43.9h9.5l18.5,43.9h-9.1l-2.9-7h-22.2l-3,7H439.6z M455.6,277.2h15.9l-3.4-8.2          l-4.7-11.2c-1.5,4.5-3,8.3-4.3,11.4L455.6,277.2z"/>
							</g>
							<g>
								<path class="st1" d="M492.3,291.6v-43.9h9.5v35.7h25.3v8.1L492.3,291.6L492.3,291.6z"/>
							</g>
						</g>
					</g>
					<g>
						<g>
							<path class="st1" d="M133.9,333.8c0-5.7,2-10.6,6-14.5s9-5.9,15-5.9c5,0,9.4,1.4,13.1,4.3l-5,5.8c-2.1-1.6-4.6-2.3-7.5-2.3         c-3.8,0-6.8,1.2-9.2,3.7s-3.5,5.5-3.5,9s1.1,6.5,3.5,9c2.3,2.5,5.2,3.7,8.7,3.7c3.6,0,6.5-1.1,8.9-3.2l5.2,5.9         c-3.8,3.4-8.5,5.1-14.1,5.1c-6,0-11.1-2-15-5.9C135.9,344.4,133.9,339.5,133.9,333.8z"/>
						</g>
						<g>
							<path class="st1" d="M202.7,349.7c-3.3,3-7.3,4.5-12.1,4.5s-8.8-1.5-12.1-4.5c-3.3-3-4.9-6.9-4.9-11.7V314h8.4v23.7         c0,2.6,0.8,4.7,2.5,6.3c1.7,1.7,3.7,2.5,6.1,2.5c2.4,0,4.4-0.8,6.1-2.5c1.6-1.7,2.5-3.8,2.5-6.3V314h8.5V338         C207.6,342.8,206,346.7,202.7,349.7z"/>
						</g>
						<g>
							<path class="st1" d="M213.8,348.8l3.1-6.6c4.1,2.9,8.4,4.4,13.1,4.4c2.1,0,3.9-0.5,5.4-1.4c1.5-0.9,2.3-2,2.3-3.4         c0-1.3-0.6-2.3-1.9-3c-1.3-0.7-3.1-1.3-5.4-1.8c-1.7-0.4-3.2-0.8-4.4-1.1c-1.2-0.3-2.6-0.9-4-1.5c-1.4-0.7-2.6-1.4-3.5-2.2         c-0.9-0.8-1.7-1.9-2.3-3.1c-0.6-1.3-0.9-2.7-0.9-4.3c0-3.6,1.4-6.4,4.3-8.4c2.9-2,6.4-3,10.5-3c5.4,0,10.3,1.4,14.5,4.2         l-3.1,6.6c-3.5-2.2-7.3-3.2-11.4-3.2c-1.5,0-2.9,0.3-4.2,0.9c-1.3,0.6-2,1.6-2,2.9c0,1.2,0.6,2.1,1.8,2.7         c1.2,0.6,3,1.2,5.6,1.7c10.1,2.2,15.1,6.5,15.1,12.7c0,4-1.6,7.1-4.9,9.2s-7.1,3.2-11.5,3.2         C223.4,354.2,218.1,352.4,213.8,348.8z"/>
						</g>
						<g>
							<path class="st1" d="M262.4,353.6v-32.3h-13.5V314h35.5v7.3H271v32.3H262.4z"/>
						</g>
						<g>
							<path class="st1" d="M286.9,333.8c0-5.7,2-10.6,6-14.5c4-4,9-5.9,15-5.9s11.1,2,15,5.9c4,4,6,8.8,6,14.5c0,5.8-2,10.6-6,14.6         c-4,4-9,5.9-15,5.9s-11-2-15-5.9C288.9,344.4,286.9,339.5,286.9,333.8z M295.8,333.8c0,3.5,1.2,6.5,3.5,9         c2.3,2.5,5.2,3.7,8.7,3.7c3.4,0,6.3-1.2,8.6-3.7c2.3-2.5,3.4-5.5,3.4-9c0-3.5-1.1-6.4-3.4-8.9c-2.3-2.5-5.1-3.7-8.6-3.7         c-3.5,0-6.4,1.2-8.7,3.7C297,327.3,295.8,330.3,295.8,333.8z"/>
						</g>
						<g>
							<path class="st1" d="M335.6,353.6V314h7.4l6,8.5l7.4,10.5l7.3-10.5l6.1-8.4h7.4v39.7h-8.6v-25c-0.7,1.3-1.9,3.3-3.8,6.1         l-8.4,12.3l-8.5-12.4l-3.6-5.7v24.7L335.6,353.6L335.6,353.6L335.6,353.6z"/>
						</g>
						<g>
							<path class="st1" d="M385.8,353.6V314h8.6v39.7H385.8L385.8,353.6z"/>
						</g>
						<g>
							<path class="st1" d="M400.5,353.6v-6.4l17.5-21c0.8-1,1.6-1.9,2.2-2.7c0.7-0.8,1.2-1.4,1.6-1.7l0.6-0.5h-20.9V314h31.7v6.4         l-16.8,20l-5,5.9h22.3v7.3H400.5z"/>
						</g>
						<g>
							<path class="st1" d="M436.4,353.6l17.2-39.7h8.6l16.7,39.7h-8.2l-2.6-6.3h-20.1l-2.7,6.3H436.4L436.4,353.6z M450.8,340.6         h14.4l-3.1-7.4l-4.2-10.2c-1.4,4.1-2.7,7.5-3.9,10.3L450.8,340.6z"/>
						</g>
						<g>
							<path class="st1" d="M484,353.6V314h15.9c6.4,0,11.5,1.9,15.4,5.7c3.9,3.8,5.8,8.5,5.8,14.1c0,5.6-2,10.3-5.8,14.1         c-3.9,3.8-9,5.7-15.4,5.7L484,353.6L484,353.6z M492.6,346.3h7c3.8,0,6.8-1.2,9.1-3.5c2.3-2.3,3.5-5.3,3.5-9         c0-3.6-1.2-6.6-3.5-9c-2.3-2.3-5.3-3.5-9.1-3.5h-7L492.6,346.3L492.6,346.3z"/>
						</g>
						<g>
							<path class="st1" d="M521.4,353.6l17.2-39.7h8.6l16.7,39.7h-8.2l-2.6-6.3H533l-2.7,6.3H521.4L521.4,353.6z M535.9,340.6h14.4         l-3.1-7.4l-4.2-10.2c-1.4,4.1-2.7,7.5-3.9,10.3L535.9,340.6z"/>
						</g>
					</g>
				</g>
			</g>
		</g>
	</g>
	<g>
		<g>
			<path class="st1" d="M239.9,125.8l4.7,12.5l-7.3-11.1c-4.2-6.4-12.3-9.1-19.5-6.3l-12.5,4.7l11.1-7.3c6.4-4.2,9.1-12.4,6.3-19.5     L218,86.2l7.3,11.1c4.2,6.4,12.4,9.1,19.5,6.3l12.5-4.7l-11.1,7.3C239.8,110.5,237.2,118.6,239.9,125.8z"/>
			<path class="st1" d="M264.8,67.7l-4,5.3l2.8-6.1c1.6-3.5,0.5-7.6-2.5-10l-5.3-4l6.1,2.8c3.5,1.6,7.6,0.5,10-2.5l4-5.3l-2.8,6.1     c-1.6,3.5-0.5,7.6,2.5,10l5.3,4l-6.1-2.8C271.3,63.5,267.1,64.6,264.8,67.7z"/>
			<path class="st1" d="M439.8,84.8l-4.6,11.9l1.9-12.6c1.1-7.3-3-14.3-9.9-17l-11.9-4.6l12.6,1.9c7.3,1.1,14.3-3,17-9.9l4.6-11.9     l-1.9,12.6c-1.1,7.3,3,14.3,9.9,17l11.9,4.6l-12.6-1.9C449.6,73.8,442.5,77.9,439.8,84.8z"/>
			<path class="st1" d="M461.7,133.3l-2.1,5.5l0.9-5.8c0.5-3.4-1.4-6.6-4.6-7.9l-5.5-2.1l5.8,0.9c3.4,0.5,6.6-1.4,7.9-4.6l2.1-5.5     l-0.9,5.8c-0.5,3.4,1.4,6.6,4.6,7.9l5.5,2.1l-5.8-0.9C466.2,128.2,462.9,130.1,461.7,133.3z"/>
		</g>
		<g>
			<path class="st1" d="M348.2,155.4c-14,0.1-26.8-2.9-39.1-8.5c-18.9-8.7-34.2-21.8-46.7-38.2c-1.8-2.3-1.7-2.3,0-4.7     c11-14.4,24.3-26.3,40.3-35c8.3-4.5,17-7.8,26.3-9.8c11.2-2.4,22.4-2.6,33.7-0.7c11.7,2,22.5,6.2,32.7,12.1     c11.9,6.9,22.3,15.6,31.4,25.9c2.5,2.8,4.7,5.8,7,8.7c0.7,0.8,0.7,1.4,0,2.3c-7.3,9.8-15.7,18.5-25.4,25.9     c-9.7,7.4-20.2,13.3-31.8,17.3C367.3,153.7,357.7,155.4,348.2,155.4z M347.6,138c17.7,0,31.8-14.1,31.8-31.9     c0-17.4-14.2-31.6-31.7-31.6c-17.7,0-31.8,14.1-31.8,31.7C315.9,123.9,330,138.1,347.6,138z M321.8,73c-0.2,0-0.5,0-0.7,0.1     c-7.5,2.5-14.6,5.9-21.2,10.1c-9.6,6.1-18,13.5-25.3,22.2c-0.5,0.6-0.6,1.1,0,1.7c3.7,3.7,7.1,7.7,11,11.3     c10.1,9.2,21.5,16.2,34.4,20.7c0.6,0.2,1.3,0.4,1.9,0.6c0.1-0.1,0.2-0.2,0.2-0.2c-10.5-8.6-16.2-19.6-16.2-33.1     C305.8,92.8,311.5,81.8,321.8,73z M373.3,139.7c0.3,0,0.6,0,0.9-0.1c2-0.7,4-1.4,6-2.2c8.4-3.5,16.2-8.1,23.4-13.7     c6.3-4.9,11.9-10.3,17.1-16.4c0.6-0.7,0.6-1.1,0-1.8c-4.3-5.1-8.9-9.7-14-14c-9-7.5-18.9-13.4-30-17.5c-1.1-0.4-2.1-0.7-3.2-1.1     c-0.1,0.1-0.1,0.2-0.2,0.3c10.5,8.6,16.2,19.6,16.1,33.1C389.4,119.9,383.7,130.9,373.3,139.7z"/>
		</g>
	</g>
</g>
</svg>