<svg xmlns="http://www.w3.org/2000/svg" xmlns:xlink="http://www.w3.org/1999/xlink" version="1.1" id="Capa_1" x="0px" y="0px" viewBox="0 0 700 700" style="enable-background:new 0 0 700 700;" xml:space="preserve">
<style type="text/css">
	.st0{fill:#AFAFAF;}
	.st1{fill-rule:evenodd;clip-rule:evenodd;fill:#AFAFAF;}
</style>
<g>
	<g>
		<g>
			<g>
				<path class="st0" d="M103,342.8c4.6-0.8,10.7-1.5,18.4-1.5c9.4,0,16.4,2.3,20.8,6.5c4.1,3.7,6.5,9.4,6.5,16.2      c0,7.1-2,12.5-5.7,16.6c-5.1,5.6-13.4,8.5-22.7,8.5c-2.9,0-5.5-0.1-7.7-0.7v31.1H103V342.8z M112.5,380.2      c2.1,0.6,4.8,0.8,7.9,0.8c11.5,0,18.6-5.9,18.6-16.6c0-10.2-7-15.2-17.5-15.2c-4.2,0-7.3,0.4-9.1,0.8      C112.5,350,112.5,380.2,112.5,380.2z"/>
				<path class="st0" d="M156.9,342.9c4.9-1,11.7-1.6,18.4-1.6c10.2,0,16.8,2,21.5,6.3c3.7,3.4,5.8,8.8,5.8,14.7      c0,10.2-6.2,17-13.9,19.8v0.4c5.7,2.1,9.2,7.6,10.9,15.6c2.4,10.8,4.2,18.3,5.7,21.3h-9.9c-1.2-2.2-2.9-8.9-5-18.5      c-2.2-10.7-6.2-14.7-14.9-15.1h-9.1v33.6h-9.5V342.9z M166.4,378.2h9.8c10.2,0,16.7-5.9,16.7-14.7c0-10-7-14.4-17.1-14.5      c-4.6,0-7.9,0.5-9.4,1L166.4,378.2L166.4,378.2z"/>
				<path class="st0" d="M275.1,379.8c0,26.7-15.6,40.8-34.4,40.8c-19.6,0-33.3-15.8-33.3-39.3c0-24.6,14.6-40.7,34.4-40.7      C262,340.6,275.1,356.8,275.1,379.8z M217.6,381.1c0,16.6,8.6,31.4,23.7,31.4c15.2,0,23.8-14.6,23.8-32.2      c0-15.5-7.7-31.5-23.7-31.5C225.5,348.7,217.6,364.1,217.6,381.1z"/>
				<path class="st0" d="M296.4,419.4v-32.9l-23.5-44.7h10.9l10.5,21.4c2.9,5.9,5.1,10.6,7.3,16h0.2c2.1-5.1,4.6-10.1,7.4-16      l10.7-21.4h11l-24.8,44.6v33H296.4z"/>
				<path class="st0" d="M372.4,383.1h-28.8v28h32.2v8.4h-41.7v-77.6h40.1v8.4h-30.4v24.5h28.8L372.4,383.1L372.4,383.1z"/>
				<path class="st0" d="M435.4,416.9c-3.5,1.8-10.6,3.7-19.6,3.7c-20.9,0-36.6-13.8-36.6-39.2c0-24.2,15.7-40.7,38.7-40.7      c9.3,0,15.1,2.1,17.6,3.4l-2.3,8.2c-3.6-1.8-8.8-3.2-15-3.2c-17.4,0-28.9,11.6-28.9,32c0,19,10.5,31.2,28.5,31.2      c5.8,0,11.7-1.2,15.6-3.2L435.4,416.9z"/>
				<path class="st0" d="M459.9,350.4h-22.5v-8.5h54.9v8.5h-22.6v69.1h-9.7L459.9,350.4L459.9,350.4z"/>
				<path class="st0" d="M556.3,379.8c0,26.7-15.6,40.8-34.4,40.8c-19.6,0-33.3-15.8-33.3-39.3c0-24.6,14.6-40.7,34.4-40.7      C543.2,340.6,556.3,356.8,556.3,379.8z M498.7,381.1c0,16.6,8.6,31.4,23.7,31.4c15.2,0,23.8-14.6,23.8-32.2      c0-15.5-7.7-31.5-23.7-31.5C506.7,348.7,498.7,364.1,498.7,381.1z"/>
				<path class="st0" d="M562.9,407.2c4.3,2.8,10.6,5.1,17.2,5.1c9.8,0,15.6-5.4,15.6-13.3c0-7.3-3.9-11.4-13.9-15.5      c-12.1-4.5-19.6-11.1-19.6-21.9c0-12.1,9.5-21.1,23.9-21.1c7.6,0,13.1,1.8,16.4,3.8l-2.7,8.2c-2.4-1.3-7.3-3.7-14.1-3.7      c-10.1,0-13.9,6.3-13.9,11.6c0,7.3,4.5,10.8,14.8,15c12.5,5.1,18.9,11.4,18.9,22.8c0,11.9-8.5,22.3-26,22.3      c-7.2,0-15-2.2-18.9-5L562.9,407.2z"/>
			</g>
		</g>
		<g>
			<g>
				<path class="st0" d="M166.9,447.7h9.5v69.2h31.7v8.4h-41.2V447.7z"/>
				<path class="st0" d="M219.8,447.7v45.9c0,17.4,7.3,24.7,17.3,24.7c11,0,18-7.6,18-24.7v-45.9h9.7v45.2c0,23.9-12,33.6-28.1,33.6      c-15.2,0-26.6-9.1-26.6-33.1v-45.7L219.8,447.7L219.8,447.7z M253.9,430l-14.1,13.5H232l10.1-13.5L253.9,430L253.9,430z"/>
				<path class="st0" d="M276.8,448.7c5.8-1,12.8-1.6,20.3-1.6c13.7,0,23.6,3.3,30.1,9.6c6.6,6.3,10.5,15.3,10.5,27.9      c0,12.7-3.7,23-10.7,30.2c-7,7.3-18.4,11.2-32.8,11.2c-6.8,0-12.5-0.4-17.4-1L276.8,448.7L276.8,448.7z M286.4,517.3      c2.4,0.5,5.9,0.6,9.6,0.6c20.4,0,31.6-11.9,31.6-32.9c0.1-18.3-9.8-30-30.1-30c-5,0-8.7,0.5-11.3,1L286.4,517.3L286.4,517.3z"/>
				<path class="st0" d="M355.1,447.7v77.6h-9.5v-77.6H355.1z"/>
				<path class="st0" d="M419,522.7c-3.5,1.8-10.6,3.7-19.6,3.7c-20.9,0-36.6-13.8-36.6-39.2c0-24.2,15.7-40.7,38.7-40.7      c9.3,0,15.1,2.1,17.6,3.4l-2.3,8.2c-3.6-1.8-8.8-3.2-15-3.2c-17.4,0-28.9,11.6-28.9,32c0,19,10.5,31.2,28.5,31.2      c5.8,0,11.7-1.2,15.6-3.2L419,522.7z"/>
				<path class="st0" d="M487.4,485.7c0,26.7-15.6,40.8-34.4,40.8c-19.6,0-33.3-15.8-33.3-39.3c0-24.6,14.6-40.7,34.4-40.7      C474.3,446.4,487.4,462.7,487.4,485.7z M429.9,486.9c0,16.6,8.6,31.4,23.7,31.4c15.2,0,23.8-14.6,23.8-32.2      c0-15.5-7.7-31.5-23.7-31.5C437.8,454.5,429.9,469.9,429.9,486.9z"/>
				<path class="st0" d="M493.9,513c4.3,2.8,10.6,5.1,17.2,5.1c9.8,0,15.6-5.4,15.6-13.3c0-7.3-3.9-11.4-13.9-15.5      c-12.1-4.5-19.6-11.1-19.6-21.9c0-12.1,9.5-21.1,23.9-21.1c7.6,0,13.1,1.8,16.4,3.8l-2.7,8.2c-2.4-1.3-7.3-3.7-14.1-3.7      c-10.1,0-13.9,6.3-13.9,11.6c0,7.3,4.5,10.8,14.8,15c12.5,5.1,18.9,11.4,18.9,22.8c0,11.9-8.5,22.3-26,22.3      c-7.2,0-15-2.2-18.9-5L493.9,513z"/>
			</g>
		</g>
		<g>
			<g>
				<path class="st0" d="M230.1,322c-2.7,0.9-7.9,2.2-14.1,2.2c-7,0-12.7-1.5-17.2-5.3c-3.9-3.3-6.4-8.8-6.4-15      c0.1-12,9.4-20.8,24.8-20.8c5.3,0,9.4,1,11.4,1.8l-1.4,4.3c-2.5-1-5.5-1.7-10.1-1.7c-11.2,0-18.4,6.1-18.4,16.2      c0,10.2,7,16.3,17.7,16.3c3.9,0,6.5-0.5,7.9-1v-12h-9.4v-4.2H230L230.1,322L230.1,322z"/>
				<path class="st0" d="M262.9,304.8H245v14.5h19.8v4.4h-25.8v-40.4h24.8v4.4H245v12.8h17.8V304.8z"/>
				<path class="st0" d="M271.9,317.4c2.7,1.4,6.5,2.7,10.6,2.7c6,0,9.6-2.9,9.6-6.9c0-3.7-2.5-5.9-8.7-8      c-7.4-2.3-12.1-5.7-12.1-11.4c0-6.3,5.9-11,14.8-11c4.7,0,8.1,1,10.1,2l-1.5,4.2c-1.5-0.8-4.6-1.9-8.7-1.9c-6.3,0-8.7,3.3-8.7,6      c0,3.7,2.8,5.6,9.2,7.8c7.7,2.7,11.7,5.9,11.7,11.8c0,6.2-5.2,11.6-16,11.6c-4.4,0-9.3-1.1-11.7-2.6L271.9,317.4z"/>
				<path class="st0" d="M315,287.9h-13.9v-4.4h34v4.4h-14v35.9h-6V287.9z"/>
				<path class="st0" d="M377.5,303.2c0,13.8-9.6,21.3-21.3,21.3c-12.1,0-20.6-8.3-20.6-20.4c0-12.8,9.1-21.2,21.3-21.2      C369.4,282.8,377.5,291.2,377.5,303.2z M341.9,303.8c0,8.6,5.3,16.3,14.6,16.3c9.4,0,14.7-7.6,14.7-16.8c0-8-4.8-16.4-14.6-16.4      C346.8,287,341.9,295,341.9,303.8z"/>
				<path class="st0" d="M385.2,284c3-0.6,7.3-0.9,11.4-0.9c6.3,0,10.4,1,13.3,3.2c2.3,1.8,3.6,4.6,3.6,7.6c0,5.3-3.8,8.9-8.7,10.3      v0.2c3.5,1,5.6,3.9,6.8,8.1c1.5,5.6,2.6,9.5,3.5,11.1H409c-0.8-1.1-1.8-4.6-3.1-9.6c-1.3-5.5-3.8-7.6-9.2-7.8h-5.5v17.5h-5.9      L385.2,284L385.2,284z M391.1,302.4h6.1c6.3,0,10.3-3.1,10.3-7.6c0-5.2-4.3-7.4-10.6-7.5c-2.9,0-4.9,0.3-5.8,0.5L391.1,302.4      L391.1,302.4z"/>
				<path class="st0" d="M436.3,284c3.6-0.5,7.9-0.9,12.6-0.9c8.5,0,14.6,1.7,18.6,5.1c4.1,3.2,6.5,7.9,6.5,14.5      c0,6.6-2.3,11.9-6.6,15.6s-11.4,5.8-20.3,5.8c-4.2,0-7.7-0.2-10.8-0.5L436.3,284L436.3,284z M442.3,319.6c1.5,0.3,3.7,0.3,6,0.3      c12.7,0,19.6-6.2,19.6-17.1c0.1-9.5-6-15.6-18.6-15.6c-3.1,0-5.3,0.3-7,0.6V319.6z"/>
				<path class="st0" d="M505.4,304.8h-17.8v14.5h19.8v4.4h-25.8v-40.4h24.8v4.4h-18.9v12.8h17.8V304.8z"/>
			</g>
		</g>
	</g>
	<g>
		<path class="st0" d="M228.7,173.6c1.1-2.6,2-5.3,3.6-7.6c3.1-4.3,7.4-6.6,12.7-6.7c6.9-0.1,13.7-0.1,20.6-0.1c0.9,0,1.7,0,2.9,0    c0-5.4,0-10.7-0.1-15.9c0-0.4-0.8-0.9-1.2-1.1c-5.4-2.6-7.8-8.3-5.8-14c1.8-5.2,7.2-7.9,12.9-6.6c4.4,1,7.3,4.6,7.8,9.6    c0.5,4.5-1.9,9-5.9,10.6c-1.7,0.7-1.9,1.6-1.9,3.1c0.1,4.7,0,9.3,0,14.3c1,0,1.9,0,2.7,0c6.5,0,13,0,19.4,0    c10.6,0.1,17.7,7.2,17.7,17.7c0.1,12.2,0,24.4,0,36.7c0,3.3-0.7,4.1-4,4.1c-25.8,0-51.6,0-77.4-0.1c-1.3,0-2.7-1-4-1.5    C228.7,201.9,228.7,187.8,228.7,173.6z M234.4,211.9c24.8,0,49.2,0,73.8,0c0.1-0.4,0.2-0.6,0.2-0.8c0-11.9,0.1-23.9-0.1-35.7    c-0.1-5.8-5.1-10.4-11.1-10.4c-17.2-0.1-34.3-0.1-51.6,0c-6.5,0-11.2,5-11.3,11.5c0,3.7,0,7.4,0,11.2    C234.4,195.6,234.4,203.6,234.4,211.9z M271.3,137.1c3.1,0.1,5.2-1.9,5.2-4.9c0.1-3-2-5.2-4.9-5.2c-3.1-0.1-5.2,1.9-5.2,4.9    C266.3,134.9,268.3,137,271.3,137.1z"/>
		<path class="st0" d="M386.4,164.2c-1.6-4.5-1-8.4,2.2-11.9c0.4-0.5,0.6-1.4,0.5-2.1c-0.8-4.9,1.2-9.1,5.5-11.5    c0.8-0.5,1.5-1.3,1.8-2.2c1.6-4.6,5.2-7.3,10.1-7.5c0.8,0,1.6-0.2,2.1-0.6c6.2-5.2,11-5.4,17.4-0.3c3.4-3.1,7.3-4.8,11.8-3.1    c2.3,0.8,4,3,6.3,3.9c2.2,1,4.8,0.9,7,1.8c3,1.3,3.4,5,5.3,7.2c1.9,2.1,4.9,3.3,5.9,6.4c0.5,1.2,1,2.7,0.8,3.9    c-0.6,2.6,0.4,4.4,1.8,6.4c2,2.8,2,5.5,1,9.1c1.8,2.8,3.8,5,4.9,7.5c1.4,3.5,0.3,7-2.1,9.9c-0.6,0.7-1,1.8-1,2.7    c0.3,3.3-0.7,6.2-2.9,8.7c-0.6,0.7-1,1.5-1.1,2.4c-0.6,5.7-4.3,9.5-10,10.2c-0.7,0.1-1.6,0.7-1.9,1.2c-5.7,10.2-17,11.5-25,3.1    c-0.2-0.2-0.4-0.3-0.6-0.5c-2.7,2.9-5.7,5-9.5,5.7c-6.6,1.3-13-1.7-16-7.7c-0.7-1.2-1.3-1.8-2.8-1.9c-4.9-0.4-8.8-4.5-9.4-9.4    c-0.2-1.1-0.7-2.4-1.3-3.2c-2-2.6-3-5.3-2.7-8.6c0.1-0.7-0.1-1.6-0.5-2.1c-4.8-6.2-4.1-11.9,2.2-16.7    C386.2,164.6,386.3,164.3,386.4,164.2z M394.2,195.1c1,3.2,3,4.5,6,4c3.3-0.6,3.9-0.2,4.7,3.1c1,4.5,4.8,7.1,9.3,6.7    c5.4-0.5,9.2-3.9,9.3-8.6c0.1-6.8,0.1-13.5,0-20.3c-0.1-14.8-0.3-29.5-0.5-44.3c0-3.1-1.5-4.8-4.2-5.4c-2.5-0.7-5,0.2-6.3,2.6    c-1,1.9-2.4,2.4-4.5,2c-3.7-0.8-5.6,0.5-6.1,4.3c-0.4,2.5-1.3,3.7-3.7,4.5c-3.4,1-4.3,3.2-3.1,6.7c0.1,0.4,0.3,0.8,0.4,1.1    c0.8,1.8,0.4,3.1-1.4,4.1c-1,0.6-2,1.6-2.5,2.7c-1.4,3.1,0.4,5.6,3.7,5c2.3-0.5,4.5-1.6,6.8-2.1c1-0.2,2.6,0.3,3,1    c0.5,0.9,0.3,2.4-0.2,3.3c-0.4,0.8-1.5,1.4-2.5,1.6c-3.4,0.8-6.9,1.5-10.4,1.9c-3.1,0.4-4.7,1.3-5.4,3.7c-0.7,2.3,0.3,4,2.7,6    c0.8,0.7,1.1,2,1.3,3.1c0.1,0.7-0.4,1.5-0.6,2.3c-0.8,3.1,1.2,5.6,4.4,5.2c2.6-0.5,5-1.3,7.4-2.2c1.5-0.5,2.7-0.3,3.4,1.1    s0.5,2.7-0.7,3.6c-0.9,0.7-1.8,1.3-2.9,1.6C399.3,193.9,396.8,194.5,394.2,195.1z M457.6,194.9c-1.3-0.2-2.8-0.1-3.9-0.6    c-2.3-0.9-4.5-1.7-6.5-3c-1.2-0.8-1.3-2.5-0.3-3.8c1-1.2,2.2-1,3.6-0.6c2.5,0.9,5.1,1.5,7.6,2.1c1.9,0.4,3.1-0.9,3.4-2.5    c0.3-1.2,0.1-2.7-0.2-3.9c-0.5-2-0.5-3.4,1.6-4.6c2.1-1.1,2.9-3.1,2.3-5.4s-2.3-3.6-4.9-3.8c-1.4-0.1-2.9,0-4.3-0.2    c-3.1-0.4-6.2-0.7-8.6-2.9c-1.3-1.1-1.8-2.7-0.7-4.2c1-1.5,2.5-1,4-0.5c2,0.9,4.1,1.4,6.3,1.7c2.6,0.4,4.1-1.2,3.4-3.8    c-0.4-1.3-1.3-3-2.6-3.7c-2.1-1.2-2.3-2.7-1.5-4.8c1.7-4.5,1-6-3.6-7.6c-1.7-0.7-2.7-1.5-2.7-3.6c0-3.2-2.6-5.6-5.5-4.9    c-2.8,0.7-4.2-0.3-5.6-2.4c-1.4-2.2-3.7-2.8-6-2.1c-2.5,0.8-4,2.5-4,5.2c-0.1,6.2-0.1,12.5,0,18.7c0.1,15.6,0.2,31.1,0.5,46.7    c0.1,4.5,3.2,7.5,8,8.1c4.3,0.5,8.3-2.1,9.5-6.1c1.1-4,1.1-4,5.4-3.6C455.2,199.3,457.1,198,457.6,194.9z"/>
		<path class="st0" d="M328.3,215.4c0-6.2,0.2-12.5,0-18.7c-0.6-13,9-23.9,24.9-22c11.1,1.2,18.3,9.4,18.4,21    c0.1,11.6,0.2,23.4-0.1,35c-0.1,5.9,2.3,10.2,6.6,13.7c10,8.3,28.1,6.8,36.6-3.1c2.7-3.1,4.3-6.8,4.5-11c0-0.7,0.1-1.2,0.1-1.9    c0.1-1.8,1-3.1,2.9-3.1c2.1,0,2.8,1.4,2.8,3.3c0,5.6-1.4,10.8-5.1,15.2c-7.6,9.3-17.8,12.3-29.4,11.3c-8.5-0.8-15.6-4.3-20.7-11.4    c-2.5-3.4-3.9-7.2-3.9-11.6c0.2-12-0.1-23.9,0-36c0-6.5-2.1-11.6-8.3-14.4c-6.5-2.9-12.8-2.3-18.6,2c-3.9,3-5.1,7.3-5.1,11.9    c0,13-0.3,25.9,0,38.8c0.2,8.1-3.5,13.9-9.5,18.5c-12.3,9.3-32.7,7.3-43.1-4.1c-4.4-4.8-6.5-10.6-6.3-17.1c0-1.8,0.9-3.1,2.9-3.1    c1.8,0,2.9,1.1,2.8,2.9c-0.8,12.4,11.4,21.7,25,21.5c7.5-0.1,14.1-2.3,19.1-8.2c2.5-3,3.8-6.2,3.7-10.2    C328.2,228.4,328.3,221.9,328.3,215.4z"/>
		<path class="st0" d="M264.9,188.4c0,7.3-4.9,12.4-12,12.5c-7.1,0.1-12.2-5.1-12.3-12.2c-0.1-7.3,5-12.5,12.1-12.5    C259.8,176.1,264.8,181.2,264.9,188.4z M246.2,188.4c0,3.9,2.8,6.8,6.7,6.7c3.7-0.1,6.5-2.9,6.5-6.7c0-3.9-2.8-6.7-6.7-6.7    C248.8,181.9,246.2,184.6,246.2,188.4z"/>
		<path class="st0" d="M278,188.4c0-7.3,5-12.3,12.1-12.3c7.3,0,12.3,5.2,12.2,12.5c-0.1,7.3-5.2,12.3-12.2,12.3    C283,200.8,278,195.7,278,188.4z M283.6,188.5c0,3.8,2.8,6.6,6.5,6.6c3.8,0,6.7-2.9,6.6-6.8c0-3.8-2.8-6.6-6.6-6.6    C286.3,181.9,283.6,184.5,283.6,188.5z"/>
		<path class="st0" d="M414.8,172.1c0.8-0.1,1.3-0.3,1.6-0.1c1,0.6,2.6,1.1,2.7,2c0.2,1-0.6,2.7-1.4,3.2c-1,0.7-2.8,0.8-4,0.5    c-1.4-0.3-2.3,0-3.3,0.9c-2.5,2.1-5.5,3.1-8.8,2.7c-1.7-0.2-3.1-1-3-3c0.2-1.9,1.4-2.6,3.2-2.7c6.3-0.3,9.3-5,6.8-10.7    c-0.7-1.5-0.8-3,0.9-3.9c1.7-1,3.4-0.4,4,1.1c1,2.3,1.2,5,1.7,7.4C415.3,170.4,415,171.1,414.8,172.1z"/>
		<path class="st0" d="M406.6,148.6c1.1-7.1,7-10.3,12.6-7.2c1,0.5,1.9,1.3,2.3,2.3c0.3,0.8,0.1,2.1-0.5,2.8    c-0.6,0.6-1.7,0.8-2.7,0.9c-0.6,0-1.1-0.8-1.7-0.8c-1.2,0-2.9-0.2-3.5,0.5c-0.7,0.7-0.7,2.6-0.2,3.5c0.7,1.4,1.5,2.7,0.5,4.1    c-1,1.3-2.3,1.3-3.8,0.9c-0.6-0.2-1.3,0.1-2.1,0.2c-2.2,0.3-4.1-0.5-5.3-2.3c-1-1.6-1.7-3.3-0.3-5.1    C403.2,146.7,404.9,147.4,406.6,148.6z"/>
		<path class="st0" d="M408.9,198.7c-3.1,0-4.6-1-4.6-2.8c0.1-2.4,1.6-2.9,3.7-3c3-0.1,4.5-2.8,3.2-5.5c-1-2.4-0.9-3.7,1-4.6    c1.7-0.9,3.1-0.1,4.2,2.2c1.2,2.4,0.7,4.9,0.7,7.3c0.1,2.3,2,4.5,2.5,6.8c0.3,1.3-0.6,3.1-1.3,4.4c-0.9,1.4-2.5,1.8-3.9,0.9    c-1.4-1-1.7-2.3-1-3.9c0.4-0.8,0.3-1.7,0.4-2.6c-0.8,0.1-1.6,0-2.4,0.2C410.4,198.3,409.3,198.6,408.9,198.7z"/>
		<path class="st0" d="M437.2,172.1c-0.9-3.5-0.5-6.7,1-9.6c0.9-1.6,2.2-2.4,3.9-1.5c1.7,0.9,2,2.2,1.2,4c-2.5,6,0.3,10.4,6.9,10.8    c1.7,0.1,2.9,0.9,3.1,2.6c0.2,1.9-1,2.7-2.7,3c-3.2,0.5-6.1-0.4-8.7-2.4c-1.3-1-2.4-1.6-4.2-1.1c-1,0.3-2.6,0.2-3.3-0.5    c-1-0.8-1.8-2.2-1.8-3.3c0-1.5,1.4-2.1,3-1.9C436.1,172.1,436.4,172.1,437.2,172.1z"/>
		<path class="st0" d="M445.3,147.5c1.9,0.3,3.5,0.1,4.5,0.8c1.5,1,1.2,3,0.4,4.3c-0.8,1.1-1.9,2.6-3.1,2.9    c-2.2,0.6-4.6,0.6-6.9,0.4c-2-0.2-2.9-2.6-1.5-4.4c1-1.5,1.6-3,0.2-4.4c-1.3-1.4-2.8-1-4.2,0.1c-1.4,1-2.9,0.7-3.9-0.8    c-1-1.3-0.7-2.7,0.6-3.8c4.2-4.1,11.4-2.2,13.6,3.6C445.1,146.8,445.3,147.5,445.3,147.5z"/>
		<path class="st0" d="M443.5,198.9c-1.2-0.3-2.4-0.8-3.6-1c-0.6-0.1-1.5-0.1-1.8,0.2c-0.3,0.4-0.1,1.2,0,1.9    c0.2,0.9,0.9,1.7,0.7,2.4c-0.3,1-1.2,2.2-2,2.2c-1.1,0-2.7-0.5-3.4-1.3c-1.9-2.2-1.7-6.6,0.4-9.1c1-1.1,0.8-2.3,0.9-3.6    c0.2-2.3,0.8-4.6,1.5-6.7c0.6-1.4,2.1-1.9,3.6-1c1.5,0.9,2,2.1,1.2,3.8c-1.7,3.9-0.7,5.9,3.6,6.3c1.8,0.2,3,1.1,3,3.1    C447.5,197.8,446.1,198.7,443.5,198.9z"/>
	</g>
	<g>
		<g>
			<path class="st1" d="M127.8,244.2c7,0.5,13.9,1,20.9,1.4c-5.2,3.1-10.6,6.3-15.8,9.4c-7-0.5-13.9-1-20.9-1.4     C117.2,250.5,122.5,247.3,127.8,244.2L127.8,244.2z M126.6,242.6c2.1-5.9,4.3-11.8,6.4-17.7c-5.2,3.1-10.6,6.3-15.8,9.4     c-2.1,5.9-4.3,11.7-6.4,17.7C116,248.9,121.4,245.8,126.6,242.6L126.6,242.6z M108.2,259c7-0.4,13.9-0.9,20.9-1.2     c-4.8,3.8-9.4,7.5-14.2,11.4c-7,0.4-13.9,0.9-20.9,1.2C98.8,266.5,103.6,262.8,108.2,259L108.2,259z M106.9,257.6     c1.1-6.1,2.3-12.2,3.5-18.3c-4.8,3.8-9.4,7.5-14.2,11.4c-1.1,6.1-2.4,12.2-3.5,18.3C97.3,265.2,102.1,261.3,106.9,257.6     L106.9,257.6z M90.9,275.7c6.9-1.3,13.6-2.6,20.5-3.9c-4.1,4.4-8.1,8.7-12.2,13.1c-6.9,1.3-13.6,2.6-20.5,3.9     C82.8,284.4,86.9,280.1,90.9,275.7L90.9,275.7z M89.3,274.6c0.2-6.2,0.4-12.4,0.5-18.6c-4.1,4.4-8.1,8.7-12.2,13.1     c-0.2,6.2-0.4,12.4-0.5,18.5C81.2,283.3,85.2,279,89.3,274.6L89.3,274.6z M76.1,294.4c6.6-2.2,13.1-4.3,19.7-6.5     c-3.3,4.8-6.7,9.6-9.9,14.4c-6.6,2.2-13.1,4.3-19.7,6.5C69.5,304,72.7,299.2,76.1,294.4L76.1,294.4z M74.4,293.4     c-0.9-6.1-1.7-12.3-2.5-18.4c-3.3,4.8-6.7,9.6-9.9,14.4c0.9,6.1,1.7,12.3,2.5,18.4C67.7,303,71,298.3,74.4,293.4L74.4,293.4z      M64.2,314.5c6.3-2.7,12.6-5.4,18.9-8.1c-2.8,5.1-5.5,10.2-8.3,15.3c-6.3,2.7-12.6,5.4-18.9,8.1     C58.7,324.7,61.5,319.5,64.2,314.5L64.2,314.5z M62.4,313.7c-1.5-6-3.1-12.1-4.5-18.1c-2.8,5.1-5.5,10.2-8.3,15.3     c1.5,6,3.1,12.1,4.5,18.1C56.9,323.8,59.7,318.8,62.4,313.7L62.4,313.7z M55.3,335.9c5.7-3.5,11.5-7,17.3-10.5     c-1.9,5.3-3.8,10.8-5.7,16.1c-5.7,3.5-11.5,7-17.3,10.5C51.6,346.6,53.5,341.2,55.3,335.9L55.3,335.9z M53.4,335.3     c-2.5-5.8-5-11.5-7.5-17.4c-1.9,5.3-3.8,10.8-5.7,16.1c2.5,5.8,5,11.5,7.5,17.4C49.5,346.1,51.5,340.7,53.4,335.3L53.4,335.3z      M49.5,358c5.3-4,10.7-8,16-12c-1.2,5.5-2.6,11.1-3.8,16.6c-5.3,4-10.7,8-16,12C47.1,369,48.3,363.4,49.5,358L49.5,358z      M47.5,357.6c-3.1-5.5-6.3-11.1-9.4-16.6c-1.2,5.5-2.6,11.1-3.8,16.6c3.1,5.5,6.3,11.1,9.4,16.6     C45.1,368.7,46.3,363.1,47.5,357.6L47.5,357.6z M47.2,380.6c4.6-4.7,9.2-9.4,13.7-14c-0.3,5.6-0.7,11.3-1,16.9     c-4.6,4.7-9.2,9.4-13.8,14C46.5,391.9,46.8,386.2,47.2,380.6L47.2,380.6z M45.1,380.5c-4.1-5.1-8.1-10.1-12.1-15.2     c-0.3,5.6-0.7,11.3-1,16.9c4,5.1,8.1,10.1,12.1,15.2C44.5,391.8,44.8,386.1,45.1,380.5L45.1,380.5z M47.8,403.3     c4-5.1,8.1-10.1,12.1-15.2c0.4,5.6,0.7,11.3,1,16.9c-4,5.1-8.1,10.1-12.1,15.2C48.5,414.6,48.2,408.9,47.8,403.3L47.8,403.3z      M45.8,403.4c-4.6-4.7-9.3-9.4-13.8-13.9c0.3,5.6,0.7,11.3,1,16.9c4.6,4.7,9.3,9.4,13.8,13.9C46.5,414.7,46.1,409,45.8,403.4     L45.8,403.4z M51.9,425.8c3.1-5.5,6.3-11.1,9.4-16.6c1.2,5.5,2.6,11.1,3.8,16.6c-3.1,5.5-6.3,11.1-9.4,16.6     C54.5,436.8,53.3,431.4,51.9,425.8L51.9,425.8z M49.9,426.1c-5.3-4-10.7-8-16-11.9c1.2,5.5,2.6,11.1,3.8,16.6     c5.3,4,10.7,8,16,11.9C52.5,437.2,51.2,431.6,49.9,426.1L49.9,426.1z M59.2,447.7c2.2-5.9,4.3-11.7,6.5-17.7     c2.2,5.3,4.4,10.6,6.6,15.9c-2.2,5.9-4.3,11.7-6.5,17.7C63.6,458.3,61.4,452.9,59.2,447.7L59.2,447.7z M57.3,448.3     c-5.9-3.2-11.9-6.5-17.8-9.7c2.2,5.2,4.4,10.6,6.6,15.9c5.9,3.2,11.9,6.5,17.8,9.7C61.7,458.8,59.5,453.6,57.3,448.3L57.3,448.3z      M69.6,468.4c1.5-6,3.1-12.1,4.5-18.1c2.8,5.1,5.5,10.1,8.3,15.3c-1.5,6-3.1,12.1-4.5,18.1C75.1,478.5,72.4,473.4,69.6,468.4     L69.6,468.4z M67.7,469.1c-6.3-2.7-12.6-5.4-18.9-8.1c2.8,5.1,5.5,10.2,8.3,15.3c6.3,2.7,12.6,5.4,18.9,8.1     C73.3,479.4,70.5,474.2,67.7,469.1L67.7,469.1z M82.8,487.8c0.5-6.2,1-12.3,1.5-18.5c3.5,4.7,7.2,9.4,10.7,14     c-0.5,6.2-1,12.3-1.5,18.5C90,497.2,86.5,492.5,82.8,487.8L82.8,487.8z M81.2,488.9c-6.7-1.9-13.4-3.7-19.9-5.6     c3.5,4.7,7.2,9.4,10.7,14c6.7,1.9,13.4,3.7,19.9,5.6C88.3,498.2,84.8,493.6,81.2,488.9L81.2,488.9z M98.8,505.6     c-0.2-6.2-0.3-12.4-0.5-18.6c4.1,4.4,8.1,8.7,12.2,13.1c0.2,6.2,0.4,12.4,0.5,18.6C106.9,514.3,102.9,510,98.8,505.6L98.8,505.6z      M97.3,506.7c-6.9-1.3-13.6-2.6-20.5-3.9c4.1,4.4,8.1,8.7,12.2,13.1c6.9,1.3,13.6,2.6,20.5,3.9     C105.4,515.4,101.3,511.1,97.3,506.7L97.3,506.7z M117.3,521.4c-1.1-6.1-2.3-12.2-3.5-18.3c4.8,3.8,9.4,7.5,14.2,11.4     c1.1,6.1,2.3,12.2,3.5,18.3C126.7,529.1,122,525.2,117.3,521.4L117.3,521.4z M115.9,522.8c-7-0.4-13.9-0.9-20.9-1.2     c4.8,3.8,9.4,7.5,14.2,11.4c7,0.4,13.9,0.9,20.9,1.2C125.3,530.4,120.6,526.6,115.9,522.8L115.9,522.8z M137.9,535.1     c-2.1-5.9-4.3-11.7-6.4-17.7c5.3,3.1,10.6,6.3,15.8,9.4c2.1,5.9,4.3,11.7,6.4,17.7C148.4,541.4,143.1,538.2,137.9,535.1     L137.9,535.1z M136.8,536.6c-7,0.5-13.9,1-20.9,1.4c5.2,3.1,10.6,6.3,15.8,9.4c7-0.5,13.9-1,20.9-1.4     C147.2,542.9,142,539.8,136.8,536.6L136.8,536.6z M160.1,546.3c-2.8-5.7-5.5-11.4-8.3-17.1c5.6,2.7,11.3,5.3,16.8,8     c2.8,5.7,5.5,11.4,8.3,17.1C171.4,551.7,165.8,549,160.1,546.3L160.1,546.3z M159.2,548c-6.9,1-13.7,2.1-20.7,3.1     c5.6,2.7,11.3,5.3,16.8,8c6.9-1,13.7-2.1,20.7-3.1C170.3,553.3,164.8,550.6,159.2,548L159.2,548z M184,554.8     c-3.7-5.2-7.3-10.5-11.1-15.7c6,1.9,12,3.8,17.9,5.8c3.7,5.2,7.3,10.5,11.1,15.7C195.9,558.7,190,556.7,184,554.8L184,554.8z      M183.2,556.5c-6.6,1.9-13.3,3.9-19.9,5.8c6,1.9,12,3.8,17.9,5.7c6.7-1.9,13.3-3.9,19.9-5.8C195.2,560.5,189.2,558.5,183.2,556.5     L183.2,556.5z M215.3,565.6c-3.7-5.2-7.3-10.5-11.1-15.7c6,1.9,12,3.8,17.9,5.8c3.7,5.2,7.3,10.5,11.1,15.7     C227.3,569.5,221.3,567.5,215.3,565.6L215.3,565.6z M214.6,567.3c-6.6,1.9-13.3,3.9-19.9,5.8c6,1.9,12,3.8,17.9,5.7     c6.7-1.9,13.3-3.9,19.9-5.8C226.5,571.1,220.6,569.2,214.6,567.3L214.6,567.3z M149.3,238.1l14-14.7l-21.1,4.5l-14,14.6     L149.3,238.1L149.3,238.1z M186.7,218.1l14-14.7l-21.1,4.5l-14,14.6L186.7,218.1L186.7,218.1z"/>
		</g>
		<g>
			<path class="st1" d="M572.2,244.2c5.3,3.1,10.6,6.3,15.8,9.4c-7,0.5-13.9,1-20.9,1.4c-5.2-3.1-10.6-6.3-15.8-9.4     C558.3,245.1,565.2,244.6,572.2,244.2L572.2,244.2z M573.4,242.6c5.2,3.1,10.6,6.3,15.8,9.4c-2.2-5.9-4.3-11.7-6.4-17.7     c-5.2-3.1-10.6-6.3-15.8-9.4C569.1,230.9,571.2,236.7,573.4,242.6L573.4,242.6z M591.8,259c4.8,3.8,9.4,7.5,14.2,11.4     c-7-0.4-13.9-0.9-20.9-1.2c-4.8-3.8-9.4-7.5-14.2-11.4C577.8,258.1,584.8,258.5,591.8,259L591.8,259z M593.1,257.6     c4.8,3.8,9.4,7.5,14.2,11.4c-1.1-6.1-2.4-12.2-3.5-18.3c-4.8-3.8-9.4-7.5-14.2-11.4C590.8,245.4,592,251.5,593.1,257.6     L593.1,257.6z M609.1,275.7c4.1,4.4,8.1,8.7,12.2,13.1c-6.9-1.3-13.6-2.6-20.5-3.9c-4.1-4.4-8.1-8.7-12.2-13.1     C595.4,273.2,602.3,274.5,609.1,275.7L609.1,275.7z M610.7,274.6c4.1,4.3,8.1,8.7,12.2,13.1c-0.2-6.2-0.4-12.4-0.5-18.5     c-4.1-4.4-8.1-8.7-12.2-13.1C610.4,262.2,610.5,268.4,610.7,274.6L610.7,274.6z M623.9,294.4c3.3,4.9,6.7,9.6,9.9,14.5     c-6.6-2.2-13.1-4.3-19.7-6.5c-3.3-4.8-6.7-9.6-9.9-14.4C610.8,290.1,617.3,292.3,623.9,294.4L623.9,294.4z M625.6,293.4     c3.3,4.9,6.7,9.6,9.9,14.5c0.9-6.1,1.7-12.3,2.5-18.4c-3.3-4.9-6.7-9.6-9.9-14.4C627.4,281.2,626.5,287.3,625.6,293.4     L625.6,293.4z M635.8,314.5c2.8,5.1,5.5,10.2,8.3,15.3c-6.3-2.7-12.6-5.4-18.9-8.1c-2.8-5.1-5.5-10.2-8.3-15.3     C623.2,309,629.5,311.8,635.8,314.5L635.8,314.5z M637.6,313.7c2.8,5.1,5.5,10.2,8.3,15.3c1.5-6,3.1-12.1,4.5-18.1     c-2.8-5.1-5.5-10.2-8.3-15.3C640.6,301.6,639.1,307.6,637.6,313.7L637.6,313.7z M644.7,335.9c1.9,5.3,3.8,10.8,5.7,16.1     c-5.7-3.5-11.5-7-17.3-10.5c-1.9-5.3-3.8-10.8-5.7-16.1C633.2,328.8,638.9,332.3,644.7,335.9L644.7,335.9z M646.6,335.3     c1.9,5.3,3.8,10.8,5.7,16.1c2.5-5.8,5-11.5,7.5-17.4c-1.9-5.3-3.8-10.8-5.7-16.1C651.7,323.7,649.1,329.6,646.6,335.3     L646.6,335.3z M650.5,358c1.2,5.5,2.6,11.1,3.8,16.6c-5.3-4-10.7-8-16-12c-1.2-5.5-2.6-11.1-3.8-16.6     C639.8,350,645.1,354,650.5,358L650.5,358z M652.5,357.6c1.2,5.5,2.6,11.1,3.8,16.6c3.1-5.5,6.3-11.1,9.4-16.6     c-1.2-5.5-2.6-11.1-3.8-16.6C658.8,346.5,655.6,352.1,652.5,357.6L652.5,357.6z M652.8,380.6c0.3,5.6,0.7,11.3,1,16.9     c-4.6-4.7-9.2-9.4-13.8-14c-0.3-5.6-0.7-11.3-1-16.9C643.7,371.3,648.3,375.9,652.8,380.6L652.8,380.6z M654.9,380.5     c0.3,5.6,0.7,11.3,1,16.9c4-5.1,8.1-10.1,12.1-15.2c-0.3-5.6-0.7-11.3-1-16.9C663,370.5,658.9,375.5,654.9,380.5L654.9,380.5z      M652.2,403.3c-0.3,5.6-0.7,11.3-1,16.9c-4-5.1-8.1-10.1-12.1-15.2c0.3-5.6,0.7-11.3,1-16.9C644.1,393.2,648.1,398.3,652.2,403.3     L652.2,403.3z M654.2,403.4c-0.3,5.6-0.7,11.3-1,16.9c4.6-4.7,9.3-9.4,13.8-13.9c0.4-5.6,0.7-11.3,1-16.9     C663.4,394.1,658.8,398.7,654.2,403.4L654.2,403.4z M648.1,425.8c-1.2,5.5-2.6,11.1-3.8,16.6c-3.1-5.5-6.3-11.1-9.4-16.6     c1.2-5.5,2.6-11.1,3.8-16.6C641.8,414.8,644.9,420.3,648.1,425.8L648.1,425.8z M650.1,426.1c-1.2,5.5-2.6,11.1-3.8,16.6     c5.3-4,10.7-8,16-11.9c1.2-5.5,2.6-11.1,3.8-16.6C660.8,418.2,655.4,422.2,650.1,426.1L650.1,426.1z M640.8,447.7     c-2.2,5.2-4.4,10.6-6.6,15.9c-2.2-5.9-4.3-11.7-6.5-17.7c2.2-5.3,4.4-10.6,6.6-15.9C636.5,435.8,638.6,441.8,640.8,447.7     L640.8,447.7z M642.7,448.3c-2.2,5.2-4.4,10.6-6.6,15.9c5.9-3.2,11.9-6.5,17.8-9.7c2.2-5.2,4.4-10.6,6.6-15.9     C654.7,441.8,648.7,445,642.7,448.3L642.7,448.3z M630.4,468.4c-2.8,5.1-5.5,10.1-8.3,15.3c-1.5-6-3.1-12.1-4.5-18.1     c2.8-5.1,5.5-10.2,8.3-15.3C627.5,456.3,628.9,462.4,630.4,468.4L630.4,468.4z M632.3,469.1c-2.8,5.1-5.5,10.1-8.3,15.3     c6.3-2.7,12.6-5.4,18.9-8.1c2.8-5.1,5.5-10.2,8.3-15.3C644.8,463.7,638.6,466.5,632.3,469.1L632.3,469.1z M617.2,487.8     c-3.6,4.7-7.2,9.4-10.7,14c-0.5-6.2-1-12.3-1.5-18.5c3.5-4.7,7.2-9.4,10.7-14C616.1,475.5,616.6,481.6,617.2,487.8L617.2,487.8z      M618.8,488.9c-3.5,4.7-7.2,9.4-10.7,14c6.7-1.9,13.4-3.7,19.9-5.6c3.5-4.7,7.2-9.4,10.7-14C632.1,485.1,625.5,487,618.8,488.9     L618.8,488.9z M601.2,505.6c-4.1,4.4-8.1,8.7-12.2,13.1c0.2-6.2,0.3-12.4,0.5-18.6c4.1-4.4,8.1-8.7,12.2-13.1     C601.5,493.2,601.4,499.4,601.2,505.6L601.2,505.6z M602.7,506.7c-4.1,4.4-8.1,8.7-12.2,13.1c6.9-1.3,13.6-2.6,20.5-3.9     c4.1-4.4,8.1-8.7,12.2-13.1C616.5,504.2,609.6,505.5,602.7,506.7L602.7,506.7z M582.7,521.4c-4.8,3.8-9.4,7.5-14.2,11.4     c1.1-6.1,2.3-12.2,3.5-18.3c4.8-3.8,9.4-7.5,14.2-11.4C585,509.2,583.9,515.3,582.7,521.4L582.7,521.4z M584.1,522.8     c-4.8,3.8-9.4,7.5-14.2,11.4c7-0.4,13.9-0.9,20.9-1.2c4.8-3.8,9.4-7.5,14.2-11.4C598.1,521.9,591.1,522.4,584.1,522.8     L584.1,522.8z M562.1,535.1c-5.3,3.1-10.6,6.3-15.8,9.4c2.1-5.9,4.3-11.8,6.4-17.7c5.2-3.1,10.6-6.3,15.8-9.4     C566.4,523.3,564.3,529.3,562.1,535.1L562.1,535.1z M563.2,536.6c-5.2,3.1-10.6,6.3-15.8,9.4c7,0.5,13.9,1,20.9,1.4     c5.2-3.1,10.6-6.3,15.8-9.4C577.3,537.6,570.3,537.1,563.2,536.6L563.2,536.6z M539.9,546.3c-5.6,2.7-11.3,5.3-16.8,8     c2.8-5.7,5.5-11.4,8.3-17.1c5.6-2.7,11.3-5.3,16.8-8C545.4,535,542.6,540.6,539.9,546.3L539.9,546.3z M540.8,548     c-5.6,2.7-11.3,5.3-16.8,8c6.9,1,13.7,2.1,20.7,3.1c5.6-2.7,11.3-5.3,16.8-8C554.7,550.1,547.8,549,540.8,548L540.8,548z      M516,554.8c-6,1.9-12,3.8-17.9,5.7c3.7-5.2,7.3-10.5,11.1-15.7c6-1.9,12-3.8,17.9-5.8C523.4,544.3,519.7,549.6,516,554.8     L516,554.8z M516.8,556.5c-6,1.9-12,3.8-17.9,5.7c6.7,1.9,13.3,3.9,19.9,5.8c6-1.9,12-3.8,17.9-5.7     C530,560.5,523.4,558.5,516.8,556.5L516.8,556.5z M483.8,565.6c-6,1.9-12,3.8-17.9,5.7c3.7-5.2,7.3-10.5,11.1-15.7     c6-1.9,12-3.8,17.9-5.8C491.2,555.1,487.5,560.4,483.8,565.6L483.8,565.6z M484.5,567.3c-6,1.9-12,3.8-17.9,5.7     c6.7,1.9,13.3,3.9,19.9,5.8c6-1.9,12-3.8,17.9-5.7C497.8,571.2,491.1,569.3,484.5,567.3L484.5,567.3z M550.7,238.1l21.1,4.5     l-14-14.6l-21.1-4.5L550.7,238.1L550.7,238.1z M512.9,218.1l21.1,4.5l-14-14.7l-21.1-4.5L512.9,218.1L512.9,218.1z"/>
		</g>
	</g>
</g>
</svg>